<svg width="55" height="37" viewBox="0 0 55 37" fill="none" xmlns="http://www.w3.org/2000/svg">
<path fill-rule="evenodd" clip-rule="evenodd" d="M0.700195 6.66053L28.3789 0.199219L54.3002 6.66053L28.3789 20.5062L11.1838 11.9047C10.9295 14.4565 10.0077 18.9693 9.45586 21.43H5.97832C7.55884 19.5755 8.3013 13.7874 8.53218 10.5783L0.700195 6.66053ZM15.1985 29.7388C13.4411 27.1543 13.0018 19.4315 13.0018 15.8932L28.3788 23.739L45.5132 14.5086C46.2162 20.4161 43.7559 27.1235 42.4378 29.7388C35.4083 29.0004 30.1362 33.7387 28.3788 36.2001C23.4582 30.2927 17.5417 29.4311 15.1985 29.7388ZM9.21873 27.3891C9.42157 26.9486 9.65411 26.4436 9.92979 25.5768C9.92979 23.7925 8.55288 22.3461 6.85438 22.3461C5.15587 22.3461 3.77897 23.7925 3.77897 25.5768C3.33698 29.2689 5.53418 32.0381 8.17043 32.4996C8.47148 29.012 8.77359 28.3559 9.21873 27.3891Z" fill="white"/>
</svg>
