<svg width="24" height="24" viewBox="0 0 24 24" fill="none" xmlns="http://www.w3.org/2000/svg">
<path fill-rule="evenodd" clip-rule="evenodd" d="M5 0C2.23858 0 0 2.23858 0 5V19C0 21.7614 2.23858 24 5 24H19C21.7614 24 24 21.7614 24 19V5C24 2.23858 21.7614 0 19 0H5ZM4.79844 9.19961C4.79844 8.09504 5.69387 7.19961 6.79844 7.19961H17.1984C18.303 7.19961 19.1984 8.09504 19.1984 9.19961V14.7996C19.1984 15.9042 18.303 16.7996 17.1984 16.7996H6.79844C5.69387 16.7996 4.79844 15.9042 4.79844 14.7996V9.19961ZM13.9484 11.7398C14.1484 11.8553 14.1484 12.1439 13.9484 12.2594L11.2484 13.8183C11.0484 13.9337 10.7984 13.7894 10.7984 13.5585V10.4408C10.7984 10.2098 11.0484 10.0655 11.2484 10.181L13.9484 11.7398Z" fill="white"/>
</svg>
