<svg width="866" height="577" viewBox="0 0 866 577" fill="none" xmlns="http://www.w3.org/2000/svg">
<path fill-rule="evenodd" clip-rule="evenodd" d="M118.564 199.5C10.5642 133.5 -4.76983 39 1.06416 0H590H590.564H866V362.709C828.317 317.368 771.496 288.5 707.932 288.5C594.474 288.5 502.499 380.476 502.499 493.934C502.499 516.543 506.151 538.299 512.898 558.644C514.627 564.206 516.645 569.552 518.946 574.611C519.288 575.41 519.634 576.206 519.985 577H119.064C226.264 487.801 238.731 394.5 231.564 359C232.764 296.199 156.73 226.5 118.564 199.5Z" fill="#D9D9D9"/>
<path fill-rule="evenodd" clip-rule="evenodd" d="M118.564 199.5C10.5642 133.5 -4.76983 39 1.06416 0H590H590.564H866V362.709C828.317 317.368 771.496 288.5 707.932 288.5C594.474 288.5 502.499 380.476 502.499 493.934C502.499 516.543 506.151 538.299 512.898 558.644C514.627 564.206 516.645 569.552 518.946 574.611C519.288 575.41 519.634 576.206 519.985 577H119.064C226.264 487.801 238.731 394.5 231.564 359C232.764 296.199 156.73 226.5 118.564 199.5Z" fill="url(#paint0_linear_1260_12890)"/>
<defs>
<linearGradient id="paint0_linear_1260_12890" x1="866.638" y1="-1.33839e-05" x2="458.036" y2="734.018" gradientUnits="userSpaceOnUse">
<stop stop-color="#FFFC00"/>
<stop offset="0.557296" stop-color="#DEC427"/>
<stop offset="1" stop-color="#D5B730"/>
</linearGradient>
</defs>
</svg>
