<svg width="20" height="20" viewBox="0 0 20 20" fill="none" xmlns="http://www.w3.org/2000/svg">
<path fill-rule="evenodd" clip-rule="evenodd" d="M19 10C19 14.9706 14.9706 19 10 19C5.02944 19 1 14.9706 1 10C1 5.02944 5.02944 1 10 1C14.9706 1 19 5.02944 19 10ZM20 10C20 15.5228 15.5228 20 10 20C4.47715 20 0 15.5228 0 10C0 4.47715 4.47715 0 10 0C15.5228 0 20 4.47715 20 10ZM10.3818 4.91839V3.53613H9.68457V4.91571C9.23952 4.94951 8.84304 5.05248 8.49512 5.22461C8.06217 5.43424 7.72721 5.73503 7.49023 6.12695C7.25781 6.51888 7.1416 6.98145 7.1416 7.51465C7.1416 8.05697 7.25326 8.50814 7.47656 8.86816C7.70443 9.22363 8.02572 9.51986 8.44043 9.75684C8.8597 9.99382 9.35645 10.2057 9.93066 10.3926C10.4912 10.5885 10.9333 10.7891 11.2568 10.9941C11.585 11.1947 11.8174 11.4202 11.9541 11.6709C12.0954 11.917 12.166 12.2087 12.166 12.5459C12.166 12.8877 12.0794 13.2021 11.9062 13.4893C11.7331 13.7718 11.4824 13.9974 11.1543 14.166C10.8307 14.3301 10.4365 14.4121 9.97168 14.4121C9.69368 14.4121 9.41569 14.3757 9.1377 14.3027C8.8597 14.2298 8.60449 14.1068 8.37207 13.9336C8.14421 13.7604 7.95964 13.528 7.81836 13.2363C7.67708 12.9447 7.60645 12.5778 7.60645 12.1357H6.79297C6.79297 12.7008 6.88411 13.1771 7.06641 13.5645C7.2487 13.9473 7.49251 14.2549 7.79785 14.4873C8.10319 14.7197 8.44499 14.8883 8.82324 14.9932C9.10106 15.0668 9.38133 15.1134 9.66406 15.133V16.4219H10.3613V15.1284C10.8033 15.093 11.1998 14.9955 11.5508 14.8359C12.002 14.6309 12.3529 14.3346 12.6035 13.9473C12.8542 13.5553 12.9795 13.0837 12.9795 12.5322C12.9795 11.9854 12.8678 11.5365 12.6445 11.1855C12.4212 10.8301 12.1022 10.5339 11.6875 10.2969C11.2773 10.0599 10.7852 9.84798 10.2109 9.66113C9.60482 9.45605 9.13997 9.25325 8.81641 9.05273C8.49284 8.84766 8.26953 8.61979 8.14648 8.36914C8.02344 8.11849 7.96191 7.82682 7.96191 7.49414C7.96191 7.1569 8.03483 6.84701 8.18066 6.56445C8.3265 6.2819 8.55208 6.05631 8.85742 5.8877C9.16276 5.71908 9.55013 5.63477 10.0195 5.63477C10.3568 5.63477 10.653 5.69401 10.9082 5.8125C11.168 5.92643 11.3867 6.09049 11.5645 6.30469C11.7422 6.51432 11.8743 6.76042 11.9609 7.04297C12.0521 7.32552 12.0977 7.63542 12.0977 7.97266H12.9111C12.9111 7.47591 12.8451 7.03841 12.7129 6.66016C12.5807 6.27734 12.3893 5.95605 12.1387 5.69629C11.8926 5.43197 11.5895 5.23372 11.2295 5.10156C10.972 5.00584 10.6895 4.94479 10.3818 4.91839Z" fill="#3F4281"/>
</svg>
