<svg width="14" height="14" viewBox="0 0 14 14" fill="none" xmlns="http://www.w3.org/2000/svg">
<path d="M6.37105 0.460332C6.5731 -0.153444 7.4269 -0.153444 7.62895 0.460332L8.87903 4.25773C8.96791 4.52774 9.21399 4.71189 9.49395 4.71792L13.3496 4.80088C13.972 4.81427 14.235 5.61345 13.7458 6.00501L10.6318 8.49792C10.4193 8.66806 10.3296 8.95237 10.4053 9.21643L11.5278 13.1342C11.7044 13.7505 11.0143 14.2454 10.5026 13.8694L7.38847 11.5813C7.15659 11.4109 6.84341 11.4109 6.61153 11.5813L3.49745 13.8694C2.98573 14.2454 2.29561 13.7505 2.4722 13.1342L3.5947 9.21643C3.67036 8.95237 3.58073 8.66806 3.36821 8.49792L0.254158 6.00501C-0.234966 5.61345 0.0280225 4.81427 0.650407 4.80088L4.50605 4.71792C4.78601 4.71189 5.03209 4.52774 5.12097 4.25773L6.37105 0.460332Z" fill="#FFE100"/>
<path d="M8.27024 2.40758L7.62895 0.460332C7.4269 -0.153444 6.5731 -0.153444 6.37105 0.460332L5.12097 4.25773C5.03209 4.52774 4.78601 4.71189 4.50605 4.71792L0.650407 4.80088C0.0280225 4.81427 -0.234966 5.61345 0.254158 6.00501L3.36821 8.49792C3.58073 8.66806 3.67036 8.95237 3.5947 9.21643L2.4722 13.1342C2.29561 13.7505 2.98573 14.2454 3.49745 13.8694L4.16003 13.3819C4.44404 7.82634 6.4529 4.30312 8.27024 2.40758Z" fill="#FFA800"/>
</svg>
