<svg width="418" height="287" viewBox="0 0 418 287" fill="none" xmlns="http://www.w3.org/2000/svg">
<path d="M288.362 30.8672C271.175 30.8672 255.041 35.3267 240.911 43.2434C241.161 44.6965 241.262 46.1496 241.312 47.5526C241.512 56.2711 238.305 63.4363 238.305 63.4363L246.924 72.6558L247.074 72.8563C247.074 72.8563 257.145 68.6473 267.918 70.9522C255.091 99.7634 274.031 129.927 278.19 136.04C278.691 136.742 278.992 137.143 278.992 137.143L277.338 140.349L274.883 145.059C273.33 146.312 271.927 147.565 270.674 148.868C266.265 153.227 263.258 157.686 261.204 162.045C256.945 171.065 256.845 179.482 257.546 184.994C255.291 184.543 251.032 183.742 245.32 182.739C240.911 181.988 235.6 181.086 229.637 180.134V176.175C229.637 174.622 228.484 173.319 226.931 173.219L206.638 171.315L199.974 170.714L175.973 168.509L176.825 165.653C182.337 151.423 206.287 156.935 206.287 156.935L210.897 156.383C209.995 153.778 211.398 149.118 212.05 147.314C211.298 146.262 210.697 144.959 210.346 143.406C205.736 139.748 205.786 130.428 205.987 126.721C201.327 128.574 197.268 126.871 196.968 121.359C198.32 111.689 197.018 99.4627 195.364 89.7421L194.613 90.0427C194.613 90.0427 193.21 91.2954 190.504 92.7485C182.788 96.9574 164.499 103.07 138.894 87.1366C104.371 65.641 80.8713 85.3828 80.8713 85.3828C80.8713 85.3828 72.7541 90.8945 66.9417 105.425C61.1294 119.956 64.6368 146.663 31.8172 172.468C-0.0504003 197.571 22.5977 247.827 44.3939 259.753C45.0453 260.104 45.6967 260.404 46.2979 260.705C47.6007 261.256 48.9536 261.907 50.4067 262.509C52.1103 263.26 53.864 263.962 55.7179 264.713C59.2254 266.116 62.9833 267.519 66.9918 268.722C67.7935 268.972 68.5952 269.223 69.4471 269.423C72.8042 270.375 76.3116 271.177 79.9694 271.778C80.3201 271.828 80.6208 271.879 80.9715 271.929C100.363 274.935 123.061 271.879 145.258 250.583C146.41 249.431 147.613 248.278 148.765 247.026C187.648 206.089 232.944 256.897 232.944 256.897L254.79 245.673C262.707 250.483 270.975 254.291 279.342 256.847C287.309 259.302 295.427 260.655 303.393 260.655C359.212 260.655 405.059 205.538 405.059 146.863C405.059 88.1888 344.23 30.8672 288.362 30.8672Z" fill="#E2E0E0"/>
<path d="M283.601 43.3901C266.866 42.6385 252.936 44.292 241.311 47.599C241.512 56.3175 238.305 63.4827 238.305 63.4827L246.923 72.7023L247.074 72.9027C247.074 72.9027 257.145 68.6938 267.918 70.9986C255.091 99.8098 274.031 129.974 278.19 136.087C278.691 136.788 278.991 137.189 278.991 137.189L277.338 140.396L274.883 145.106C273.329 146.359 271.926 147.611 270.674 148.914C266.264 153.273 263.258 157.733 261.204 162.092C256.945 171.111 256.844 179.529 257.546 185.041C255.291 184.59 251.032 183.788 245.32 182.786C240.911 182.034 235.599 181.132 229.637 180.18V176.222C229.637 174.669 228.484 173.366 226.931 173.266L206.638 171.362L199.974 170.76L175.973 168.556L176.825 165.7C182.336 151.469 206.287 156.981 206.287 156.981L210.897 156.43C209.995 153.824 211.398 149.164 212.049 147.361C211.298 146.308 210.696 145.006 210.346 143.452C205.736 139.795 205.786 130.475 205.986 126.767C201.327 128.621 197.268 126.917 196.967 121.406C198.32 111.735 197.017 99.5091 195.364 89.7885C195.063 87.8845 194.713 86.0806 194.362 84.4271C192.859 87.2331 191.556 90.039 190.453 92.7448C183.238 110.833 183.94 126.917 183.94 126.917C176.023 125.364 166.603 130.675 158.035 140.145C150.819 148.112 144.205 159.035 139.445 171.412L139.145 172.263C135.537 181.934 133.082 192.456 132.48 203.029C132.43 203.981 132.38 204.883 132.38 205.835C132.28 210.294 132.481 214.754 133.032 219.163C133.182 220.215 133.332 221.217 133.533 222.27C135.236 232.241 138.944 241.911 145.207 250.63C152.222 260.4 162.394 269.019 176.524 275.583C220.617 286.756 254.59 274.38 279.242 256.943C306.951 237.352 322.935 211.296 328.446 204.883C338.868 192.707 387.221 48.1502 283.601 43.3901Z" fill="#7BC8A7"/>
<path d="M229.887 83.778C229.035 84.7301 227.933 85.4315 226.58 85.8825C226.58 85.8825 227.181 82.3751 225.277 81.5233C232.192 77.0137 231.591 66.1406 231.591 66.1406C231.591 66.1406 234.898 78.3165 229.887 83.778Z" fill="#F44036"/>
<path d="M235.6 84.3786C235.6 84.3786 235.5 84.579 235.3 84.9298C233.696 87.5854 226.581 98.9596 221.02 99.7613C221.972 94.8007 223.825 87.4852 226.631 85.8818C227.984 85.4309 229.087 84.6793 229.938 83.7773C229.888 83.7773 232.544 85.5311 235.6 84.3786Z" fill="#E31451"/>
<path d="M229.588 176.275V181.386L151.973 172.217C151.672 172.167 151.372 172.167 151.071 172.167C149.518 172.167 144.307 172.217 139.146 172.267C135.488 172.317 131.78 172.367 129.425 172.367C129.174 172.367 128.874 172.367 128.673 172.417C127.671 172.517 126.769 172.868 126.018 173.269C123.512 174.722 122.31 177.478 121.759 179.031C121.508 179.683 121.458 180.134 121.458 180.134C121.458 180.134 112.239 180.134 108.681 180.134H107.98C105.174 180.134 102.969 184.343 102.969 184.343L102.618 183.691L99.2109 177.278C128.473 161.695 141.601 131.28 146.411 116.398L158.036 140.199L171.715 168.158L175.974 168.559L199.975 170.764L206.639 171.365L226.932 173.269C228.385 173.419 229.588 174.722 229.588 176.275Z" fill="#FFA608"/>
<path d="M146.311 116.398C141.451 131.279 128.373 161.744 99.1109 177.277L95.7037 170.813L74.9096 131.63C74.1079 130.077 74.7092 128.223 76.2625 127.471L134.286 99.6121C135.989 98.8104 138.044 99.5119 138.895 101.216L144.507 112.74L146.311 116.398Z" fill="#F6C721"/>
<path d="M61.6316 270.825C56.17 275.635 35.7266 290.416 13.9805 266.716C15.634 264.862 18.1393 263.91 18.1393 263.91C29.4633 265.764 41.4387 262.156 41.4387 262.156C45.3971 258.649 47.0506 258.098 47.6519 258.098C47.9525 258.098 48.0528 258.248 48.0528 258.248C48.2031 258.899 48.4035 259.501 48.7041 260.052C49.8566 262.457 52.1114 264.611 54.3662 266.315C57.8736 268.921 61.4311 270.524 61.4311 270.524C61.5314 270.624 61.5815 270.724 61.6316 270.825Z" fill="#F6C721"/>
<path d="M73.2055 277.291C67.9945 293.926 27.6088 283.605 27.6088 283.605C26.6568 283.154 25.8049 282.703 24.9531 282.252H24.903C17.4372 278.293 14.0801 274.986 12.9777 272.281C12.1259 270.276 12.5769 268.673 13.4287 267.42C13.579 267.17 13.7794 266.919 13.9799 266.719C35.726 290.419 56.1694 275.638 61.631 270.827C61.8314 271.078 62.0819 271.379 62.2823 271.629C62.5329 271.93 62.7834 272.23 63.084 272.481C67.794 277.241 73.2055 277.291 73.2055 277.291Z" fill="#FFA608"/>
<path d="M24.9025 282.246C11.5742 276.885 6.51349 271.674 4.75977 267.766C6.06253 270.471 10.4218 271.774 12.9772 272.275C14.0795 274.981 17.4367 278.288 24.9025 282.246Z" fill="#FFA608"/>
<path d="M18.138 263.909C18.138 263.909 15.6327 264.861 13.9792 266.715C13.7788 266.915 13.5783 267.166 13.428 267.416C12.5762 268.719 12.1753 270.322 12.9771 272.276C10.4216 271.775 6.06238 270.473 4.75962 267.767C2.95579 263.708 4.80972 261.053 4.80972 261.053C4.80972 261.053 6.51334 258.347 18.138 263.909Z" fill="#F6C721"/>
<path d="M214.405 200.976C213.052 201.627 211.699 202.328 210.446 202.98C198.421 202.429 156.432 200.124 140.297 195.865C140.297 195.865 87.285 264.661 63.1337 272.427C62.8832 272.177 62.5826 271.876 62.332 271.575C86.8841 258.097 130.477 209.644 138.444 193.71C138.444 193.71 139.646 193.059 142.502 193.159C143.805 193.209 156.632 194.963 171.714 196.867H171.764C186.896 198.721 204.383 200.675 214.405 200.976Z" fill="#CECECE"/>
<path d="M111.937 178.98C107.026 179.231 103.97 185.594 103.97 185.594L102.016 184.392C102.366 183.941 102.517 183.69 102.517 183.69C103.819 180.333 108.329 179.031 108.329 179.031L111.937 178.98Z" fill="#311F59"/>
<path d="M245.27 182.788C232.743 187.347 204.083 196.316 171.664 196.817H171.614C156.582 194.963 143.755 193.21 142.402 193.109C139.596 193.009 138.343 193.661 138.343 193.661C138.243 193.911 138.093 194.162 137.942 194.412C137.842 194.663 137.692 194.863 137.542 195.114C137.141 195.815 136.74 196.517 136.239 197.268C135.888 197.87 135.487 198.521 135.036 199.172C134.635 199.723 134.235 200.325 133.834 200.926C133.784 200.976 133.733 201.026 133.733 201.076C133.483 201.427 133.232 201.778 132.982 202.129C132.781 202.429 132.581 202.73 132.33 203.03C131.98 203.481 131.679 203.932 131.278 204.433C131.078 204.734 130.877 204.985 130.627 205.285C129.525 206.738 128.422 208.191 127.17 209.745C126.668 210.396 126.117 211.098 125.566 211.749C110.835 229.988 87.335 254.339 69.5473 266.866C68.6955 267.467 67.8437 268.018 67.042 268.57C66.9417 268.62 66.8916 268.67 66.7914 268.72C65.188 269.772 63.6347 270.674 62.1816 271.526C61.9812 271.275 61.7307 271.025 61.5303 270.724C61.4802 270.624 61.3799 270.574 61.3298 270.474C61.3298 270.474 57.7222 268.87 54.2648 266.265C54.6156 265.864 55.0164 265.313 55.5175 264.661C55.7179 264.411 55.9184 264.16 56.1188 263.859C56.2691 263.659 56.4194 263.459 56.5697 263.258C57.2211 262.406 57.9727 261.454 58.7744 260.402C58.9247 260.202 59.0751 260.001 59.2755 259.801C59.526 259.5 59.7264 259.2 59.977 258.849C60.2776 258.498 60.5281 258.097 60.8288 257.747C61.8309 256.444 62.9332 254.991 64.0857 253.488C64.4364 253.037 64.7371 252.636 65.0878 252.185C70.7498 244.869 77.7647 235.75 84.5291 226.881C85.1303 226.079 85.7316 225.328 86.3329 224.526C87.8862 222.522 89.4395 220.518 90.8926 218.563C91.1932 218.213 91.4437 217.812 91.7444 217.461C92.1452 216.96 92.496 216.459 92.8968 215.958C93.0972 215.707 93.2977 215.457 93.448 215.206C94.9512 213.202 96.4544 211.298 97.8573 209.444C98.2081 208.993 98.5087 208.592 98.8094 208.191C98.8094 208.141 98.8595 208.141 98.8595 208.091C99.1601 207.69 99.4607 207.289 99.7614 206.939C100.062 206.538 100.413 206.137 100.713 205.736C100.864 205.536 101.014 205.335 101.164 205.135C105.373 199.673 108.53 195.515 109.833 193.861C109.933 193.761 109.983 193.661 110.033 193.61C110.334 193.26 110.484 193.059 110.484 193.059C110.484 193.059 105.423 191.706 101.064 197.97C96.7049 204.233 59.5761 259.901 48.5527 260.001C48.2521 259.4 48.0517 258.799 47.9013 258.197C47.9013 258.197 47.8011 258.047 47.5005 258.047C46.0975 256.494 47.5005 254.74 47.5005 254.74C52.6614 252.285 96.5546 191.656 101.816 184.341L103.77 185.543C103.77 185.543 103.87 185.393 103.97 185.143C104.02 185.092 104.02 185.042 104.071 184.992C104.421 184.391 105.023 183.389 105.924 182.387C106.025 182.286 106.075 182.186 106.175 182.086C106.325 181.886 106.526 181.685 106.726 181.485C106.826 181.385 106.876 181.334 106.977 181.234C107.378 180.833 107.879 180.483 108.33 180.132C109.332 179.481 110.434 179.03 111.687 178.979C111.737 178.979 111.787 178.979 111.887 178.979L120.305 178.779C120.305 178.729 120.305 178.729 120.305 178.679C120.455 178.729 120.656 178.779 120.806 178.829L121.457 179.03C121.608 179.08 121.758 179.13 121.908 179.18C122.309 179.33 122.61 179.38 122.71 179.43H122.76V179.38C122.86 178.879 123.662 175.522 125.666 173.317C126.668 172.215 127.971 171.363 129.625 171.363H129.725C132.832 171.363 135.988 171.413 139.145 171.463C171.614 172.165 205.786 176.524 229.336 180.232C235.549 181.134 240.861 182.036 245.27 182.788Z" fill="#353364"/>
<path d="M120.506 178.679C120.707 172.365 128.173 171.363 128.173 171.363C128.724 171.363 129.275 171.363 129.826 171.363C129.826 171.363 124.214 175.672 122.962 179.481C123.012 179.43 121.909 179.13 120.506 178.679L119.104 178.228L120.506 178.679Z" fill="#311F59"/>
<path d="M260.403 188.552C259.902 188.602 259.351 188.652 258.85 188.702C258.599 188.752 258.399 188.752 258.148 188.752C257.747 188.803 257.347 188.853 256.946 188.903C256.394 188.953 255.893 189.003 255.392 189.053C254.14 189.203 252.887 189.354 251.684 189.554C250.081 189.805 248.528 190.055 247.025 190.356H246.975C245.922 190.556 244.87 190.757 243.818 190.957C241.864 191.358 239.96 191.809 238.056 192.31C237.955 192.36 237.805 192.36 237.705 192.41C237.204 192.51 236.703 192.661 236.252 192.811C235.751 192.961 235.3 193.062 234.799 193.212C233.847 193.462 232.895 193.763 231.943 194.064C230.991 194.364 230.089 194.665 229.187 194.966C228.736 195.116 228.285 195.266 227.834 195.417C227.383 195.567 226.932 195.717 226.531 195.867C225.93 196.068 225.278 196.318 224.727 196.519C224.326 196.669 223.926 196.82 223.575 196.97C223.174 197.12 222.773 197.27 222.372 197.471C219.566 198.573 216.911 199.776 214.456 200.978C204.434 200.678 186.947 198.724 171.715 196.87C204.134 196.369 232.794 187.349 245.321 182.84C251.033 183.842 255.242 184.644 257.547 185.095C257.848 185.145 258.098 185.195 258.299 185.245C259.05 185.395 259.451 185.495 259.451 185.495L260.403 188.552Z" fill="#2D2056"/>
<path d="M187.147 220.919C185.093 222.723 183.79 223.926 183.79 223.926C165.952 225.93 135.888 218.113 135.888 218.113C121.358 245.973 73.2055 277.339 73.2055 277.339C73.2055 277.339 71.8526 277.289 69.8984 276.688C89.7906 272.228 134.285 217.662 134.285 217.662C134.285 217.662 134.836 216.159 137.342 216.56C139.496 216.911 165.05 222.523 180.784 221.721C181.736 221.671 183.59 221.42 185.243 221.17C185.193 221.22 185.193 221.27 185.143 221.27C185.844 221.22 186.496 221.07 187.147 220.919C187.097 220.919 187.097 220.919 187.147 220.919Z" fill="#180E44"/>
<path d="M110.635 193.162C110.635 193.162 61.6807 256.998 54.3651 266.367C52.0602 264.664 49.8055 262.509 48.7031 260.104C59.7265 260.004 96.8553 204.336 101.215 198.073C105.574 191.809 110.635 193.162 110.635 193.162Z" fill="#311F59"/>
<path d="M210.395 202.982C196.566 210.298 188.148 218.215 185.242 221.171C183.588 221.421 181.684 221.672 180.782 221.722C165.049 222.524 139.495 216.912 137.34 216.561C134.835 216.11 134.284 217.663 134.284 217.663C134.284 217.663 89.7894 272.229 69.8972 276.639C67.943 276.037 65.4377 274.785 63.1328 272.43C87.2841 264.663 140.297 195.867 140.297 195.867C156.381 200.176 198.37 202.431 210.395 202.982Z" fill="#2D2056"/>
<path d="M260.403 188.551C241.663 190.154 226.281 195.215 214.405 200.977C213.052 201.629 211.7 202.33 210.447 202.981C196.467 210.397 187.999 218.414 185.193 221.27C185.895 221.17 186.546 221.02 187.198 220.869C193.01 215.809 205.186 205.787 213.754 203.082C213.754 203.082 215.357 202.23 218.063 200.977C226.581 197.019 246.022 189.052 261.205 190.906L260.403 188.551Z" fill="#180E44"/>
<path d="M263.108 192.86C263.108 192.86 232.042 186.045 185.343 226.832C185.343 226.832 149.618 226.832 143.705 235.1C143.705 235.1 151.121 223.926 184.041 225.078C184.041 225.078 218.063 188.2 263.159 190.455V192.86H263.108Z" fill="white"/>
<path d="M263.961 193.71C263.961 193.71 232.895 186.895 186.196 227.682C186.196 227.682 150.47 227.081 144.207 234.597C144.207 234.597 151.974 224.776 184.893 225.978C184.893 225.978 216.009 192.207 258.149 191.305C258.7 191.305 258.449 191.605 259.001 191.605C260.404 191.605 262.558 191.305 263.961 191.405V193.71Z" fill="#4E9B78"/>
<path d="M284.001 136.69L280.093 146.911C280.093 146.911 276.485 149.417 272.527 154.026C270.873 155.981 269.17 158.285 267.616 160.941C263.207 168.507 260.151 178.929 264.059 191.556H258.898C258.898 191.556 258.848 191.456 258.798 191.255C258.748 191.105 258.698 190.955 258.647 190.754C258.597 190.654 258.547 190.504 258.547 190.353C258.447 189.903 258.297 189.401 258.146 188.75C257.896 187.748 257.695 186.495 257.495 185.042C256.794 179.531 256.894 171.113 261.153 162.094C263.207 157.734 266.213 153.275 270.623 148.916C271.926 147.613 273.329 146.36 274.832 145.108L277.287 140.398L278.941 137.191C278.941 137.191 278.64 136.79 278.139 136.088C273.98 130.026 255.04 99.8114 267.867 71.0003C269.17 68.044 270.823 65.0877 272.878 62.1816C272.878 62.1816 272.878 62.1315 272.928 62.1315C272.978 62.0814 272.978 62.0814 272.978 62.0312C272.978 62.0814 272.928 62.0814 272.928 62.1315C272.577 62.7828 270.873 66.0398 269.42 71.4011C266.264 83.2763 264.46 105.423 281.346 132.681C281.797 133.383 282.197 134.084 282.648 134.786C283.149 135.437 283.55 136.038 284.001 136.69Z" fill="white"/>
<path d="M273.128 61.9297C273.128 61.9297 255.691 94.4487 284.903 137.54L280.995 147.762C280.995 147.762 256.192 163.846 264.66 191.505L264.009 193.659L262.105 191.505H259.65C259.65 191.505 250.28 166.702 275.734 146.008L280.093 136.638C280.093 136.688 250.681 98.1566 273.128 61.9297Z" fill="#4E9B78"/>
<path d="M139.647 106.175L137.392 101.765C137.392 101.765 136.64 100.362 134.987 100.913L130.828 102.918L139.647 106.175Z" fill="#FFA608"/>
<path d="M80.3194 127.969L77.263 129.522C77.263 129.522 76.3109 130.023 76.7118 131.176L78.0647 134.032L80.3194 127.969Z" fill="#FFA608"/>
<path d="M241.312 47.6016C241.513 56.3201 238.306 63.4853 238.306 63.4853L232.945 55.2178C235.199 54.4662 237.204 51.9108 236.352 49.1549C236.101 48.4033 235.65 47.6517 234.949 46.9001C234.849 46.7999 234.799 46.7498 234.698 46.6496C230.991 43.042 227.734 47.1006 227.734 47.1006L225.729 45.4972C224.527 44.495 222.974 43.994 221.37 44.0942L211.85 44.6454C209.244 35.7264 200.726 38.5324 200.726 38.5324C181.936 48.3532 193.01 70.6004 199.774 75.7614C200.075 75.9618 200.325 76.1622 200.626 76.3125C202.029 77.1143 203.081 77.916 203.983 78.6675C207.29 81.5236 207.841 84.0289 211.95 86.3338C217.161 89.24 225.278 81.6238 225.278 81.6238C227.182 82.4756 226.581 85.9831 226.581 85.9831C223.775 87.5865 221.921 94.902 220.969 99.8625C220.468 102.568 220.218 104.573 220.218 104.573C218.765 113.692 214.856 120.156 210.597 123.914C209.044 125.317 207.39 126.319 205.837 126.92C201.177 128.774 197.119 127.07 196.818 121.559C198.171 111.888 196.868 99.6621 195.215 89.9415C194.914 88.0374 194.563 86.2336 194.213 84.5801C192.86 77.6654 191.557 72.9053 191.557 72.9053C182.838 43.1422 185.544 37.9812 188.3 31.4173C191.056 24.8033 197.169 24.6529 197.169 24.6529C202.781 16.5858 210.347 18.6402 210.347 18.6402C232.093 22.3982 239.258 33.2211 240.861 43.3426C241.162 44.7456 241.262 46.1987 241.312 47.6016Z" fill="#3B2F5D"/>
<path d="M278.19 136.141C275.534 138.796 272.227 141.853 268.319 144.909C265.563 140.75 262.356 137.894 260.402 136.341C262.206 134.988 263.509 133.936 263.509 133.936V108.231H262.206C262.206 108.231 258.598 128.274 255.893 134.337C253.187 140.45 250.932 139.848 250.932 139.848C250.932 139.848 223.374 151.974 214.655 149.369C213.503 149.018 212.601 148.316 211.899 147.364C211.148 146.312 210.546 145.009 210.196 143.456C208.492 136.842 210.045 126.821 210.546 123.764C214.755 120.056 218.714 113.543 220.167 104.423C220.167 104.423 220.417 102.419 220.918 99.7133C226.48 98.8615 233.595 87.5375 235.199 84.8819C241.011 83.078 245.32 75.5621 246.823 72.706L246.974 72.9065C246.974 72.9065 257.045 68.6975 267.818 71.0024C255.091 99.8636 274.031 130.028 278.19 136.141Z" fill="#FC6A79"/>
<path d="M246.874 72.7532C245.421 75.6093 241.061 83.1252 235.249 84.929C235.449 84.5783 235.55 84.3779 235.55 84.3779C232.493 85.5303 229.838 83.7766 229.838 83.7766C234.848 78.315 231.541 66.1392 231.541 66.1392C231.541 66.1392 232.142 77.0122 225.228 81.5218C225.228 81.5218 217.111 89.138 211.899 86.2318C207.791 83.9269 207.24 81.4216 203.933 78.5655C203.031 77.8139 201.978 77.0122 200.575 76.2105C200.325 76.0602 200.024 75.8598 199.724 75.6594C192.909 70.4984 181.886 48.2512 200.676 38.4304C200.676 38.4304 207.39 36.1756 210.697 41.9879C211.599 43.4911 213.202 44.4932 214.956 44.393L221.57 44.0423C222.973 43.9421 224.376 44.393 225.478 45.2949L227.683 47.0988C227.683 47.0988 230.94 43.0903 234.648 46.6478C234.748 46.748 234.798 46.7981 234.898 46.8983C235.6 47.6499 236.051 48.4015 236.301 49.1531C237.203 51.909 235.199 54.4644 232.894 55.216L238.255 63.4835L246.874 72.7532Z" fill="#FF8762"/>
<path d="M263.56 108.23V133.935C263.56 133.935 262.257 134.987 260.454 136.34C257.698 138.394 253.739 141.05 251.485 141.551C247.777 142.353 225.129 151.472 225.129 151.472L223.575 152.224C223.024 152.073 222.623 151.973 222.623 151.973C222.623 151.973 218.164 151.222 216.26 155.731L216.16 155.781L210.848 156.433C209.947 153.827 211.349 149.167 212.001 147.363C212.702 148.316 213.604 149.017 214.757 149.368C223.475 151.973 251.034 139.848 251.034 139.848C251.034 139.848 253.238 140.449 255.994 134.336C258.7 128.223 262.308 108.23 262.308 108.23H263.56V108.23Z" fill="#E31451"/>
<path d="M210.247 143.504C205.637 139.847 205.687 130.527 205.888 126.819C207.441 126.218 209.044 125.215 210.648 123.812C210.097 126.819 208.543 136.84 210.247 143.504Z" fill="#E31451"/>
<path d="M278.192 136.141C275.536 138.796 272.229 141.853 268.321 144.909C258.55 152.525 244.971 160.292 228.286 162.697C228.286 162.697 227.234 162.847 225.58 163.098L226.282 164.902C228.286 164.601 229.589 164.35 229.589 164.35C246.224 162.647 259.853 154.93 269.674 147.164C272.58 144.909 275.085 142.654 277.29 140.5L278.943 137.293C278.993 137.243 278.693 136.842 278.192 136.141Z" fill="#F63A3D"/>
<path d="M209.797 165.002V165.954C213.455 166.154 217.563 165.904 221.121 165.503L220.62 163.699C217.062 164.2 213.004 164.751 209.797 165.002Z" fill="#F63A3D"/>
<path d="M269.671 147.113C259.851 154.879 246.172 162.596 229.586 164.299C229.586 164.299 228.284 164.55 226.279 164.85L227.231 167.306C228.584 167.205 229.586 167.105 229.586 167.105C229.586 167.105 246.121 164.8 261.153 162.094C263.208 157.735 266.214 153.276 270.623 148.917C271.926 147.614 273.329 146.361 274.832 145.108L277.288 140.398C275.083 142.603 272.527 144.858 269.671 147.113Z" fill="#FF3647"/>
<path d="M209.794 166.003V165.051C207.69 165.251 205.986 165.351 205.134 165.251C201.376 164.9 199.873 170.813 199.873 170.813L206.537 171.414C206.738 170.412 207.489 167.456 210.395 167.656C213.903 167.957 219.966 168.458 221.268 168.007C221.369 167.957 221.569 167.907 221.77 167.907L221.068 165.502C217.561 165.953 213.452 166.203 209.794 166.003Z" fill="#FF3647"/>
<path d="M260.404 136.34C257.648 138.394 253.689 141.05 251.435 141.551C247.727 142.353 225.079 151.472 225.079 151.472L223.525 152.224C225.379 152.775 229.137 154.629 226.682 159.89C226.682 159.89 225.88 161.543 224.878 161.593L225.48 163.097C227.133 162.846 228.185 162.696 228.185 162.696C244.871 160.291 258.449 152.524 268.22 144.908C265.514 140.699 262.358 137.843 260.404 136.34Z" fill="#FF8567"/>
<path d="M215.808 157.033C215.909 156.582 216.059 156.131 216.259 155.73L216.159 155.781L210.848 156.432L206.238 156.983C206.238 156.983 182.287 151.471 176.776 165.702L175.924 168.558L199.925 170.762C199.925 170.762 201.428 164.85 205.186 165.201C206.038 165.301 207.741 165.15 209.846 165C213.002 164.699 217.111 164.198 220.619 163.747L220.518 163.397C220.468 163.397 214.305 162.946 215.808 157.033Z" fill="#FF8567"/>
<path d="M227.232 167.306C225.428 167.456 223.023 167.656 221.821 167.907L221.27 165.953L226.481 165.352L227.232 167.306Z" fill="#30093D"/>
<path d="M225.128 161.994L225.529 163.046L226.23 164.85L226.43 165.401L221.219 166.003L221.069 165.552L220.568 163.748L220.468 163.397C220.468 163.397 214.255 162.946 215.808 157.033C215.908 156.583 216.058 156.132 216.259 155.731C218.163 151.221 222.622 151.973 222.622 151.973C222.622 151.973 223.023 152.023 223.574 152.223C225.428 152.774 229.737 154.729 227.332 159.94C227.332 159.94 226.13 161.944 225.128 161.994Z" fill="#51275D"/>
<path d="M257.496 185.042C255.241 184.591 250.982 183.789 245.27 182.787C240.861 182.035 235.549 181.133 229.587 180.181V176.223C229.587 174.67 228.434 173.367 226.881 173.267L206.588 171.363C206.788 170.361 207.54 167.404 210.446 167.605C213.954 167.905 220.016 168.406 221.319 167.956C221.419 167.905 221.62 167.855 221.82 167.855C223.023 167.605 225.378 167.404 227.232 167.254C228.585 167.154 229.587 167.054 229.587 167.054C229.587 167.054 246.122 164.749 261.154 162.043C256.845 171.112 256.794 179.53 257.496 185.042Z" fill="#FD0C5C"/>
<path d="M141.902 267.067L163.047 246.824H141.902V267.067Z" fill="#353364"/>
<path d="M142.703 55.0162L149.918 48.1016H142.703V55.0162Z" fill="#353364"/>
<path d="M391.931 119.254L392.382 97.207L381.158 108.481L391.931 119.254Z" fill="#353364"/>
<path d="M379.806 258.049V262.558C379.806 264.011 378.654 265.164 377.2 265.164H375.296L371.589 283.202C371.288 284.705 369.985 285.757 368.432 285.757H345.934C344.03 285.757 342.377 284.354 342.026 282.5L338.869 264.863H337.416C335.963 264.863 334.811 263.711 334.811 262.258V258.049C334.811 256.495 335.913 255.193 337.366 254.942C337.566 254.892 337.767 254.892 337.967 254.892H376.549C378.403 254.842 379.806 256.295 379.806 258.049Z" fill="#363465"/>
<path d="M417.186 212.853L370.737 246.675C370.637 246.224 369.635 241.814 370.587 237.355C370.888 236.002 371.389 235 371.94 234.248C371.94 234.248 371.99 234.198 371.99 234.148C373.393 232.344 375.197 232.044 375.197 232.044C376.249 228.536 378.454 227.183 381.66 224.678C384.867 222.173 390.078 223.476 390.078 223.476C390.078 221.471 392.233 219.667 393.636 218.766C394.989 217.814 398.546 217.763 401.703 218.365C404.86 218.966 407.615 213.154 407.615 213.154C414.831 209.546 415.683 212.653 416.935 212.753C417.035 212.753 417.086 212.803 417.186 212.853Z" fill="#FD6575"/>
<path d="M373.793 217.564C373.793 217.564 369.283 219.869 372.34 224.679C375.146 229.038 372.49 233.398 371.989 234.149C371.939 234.199 371.939 234.249 371.939 234.249C371.388 235.001 370.837 236.003 370.586 237.356C369.684 241.765 370.636 246.225 370.736 246.676L370.636 246.776C369.684 247.077 364.473 249.081 359.262 254.893H357.408L368.883 216.913L369.384 217.313C369.083 214.508 377.801 210.198 373.593 210.649C372.44 210.75 371.588 210.499 370.937 210.098L372.691 204.336C373.192 204.787 373.643 205.538 373.993 206.741C373.893 206.691 385.117 206.992 373.793 217.564Z" fill="#FFAC06"/>
<path d="M361.166 195.215C361.166 195.215 356.356 199.775 357.007 219.968C357.007 219.968 358.61 208.092 364.773 206.689C364.773 206.689 362.469 197.771 365.575 197.971C368.682 198.171 368.932 193.912 368.932 193.912C368.932 193.912 375.196 189.052 373.292 196.819C372.189 201.428 370.987 203.132 370.185 203.733C369.634 203.884 369.283 204.084 369.283 204.084C369.283 204.084 369.634 204.184 370.185 203.733C370.836 203.583 371.788 203.533 372.59 204.284L370.836 210.047C369.083 208.894 368.832 206.439 368.832 206.439C363.821 209.696 364.974 214.105 364.974 214.105L368.732 216.911L357.258 254.892H337.967C337.766 254.892 337.566 254.892 337.365 254.942C335.812 254.441 333.808 253.439 334.008 251.735C334.309 249.029 331.904 251.885 330.3 251.735C328.697 251.585 324.789 252.036 323.386 248.177C322.033 244.319 322.684 244.119 320.93 244.169C319.177 244.219 315.87 244.069 315.319 241.062C314.818 238.006 319.528 239.96 319.528 239.96C319.528 239.96 321.181 237.254 322.935 240.16C324.688 243.067 327.745 240.461 327.745 240.461C327.745 240.461 330.701 238.156 334.209 241.714C334.209 241.714 334.609 241.463 335.261 241.213C337.315 240.261 341.825 238.808 343.077 243.267C343.077 243.267 345.583 242.716 347.988 243.067C350.293 243.417 352.497 244.62 352.197 247.977C352.197 247.977 353.349 252.837 356.105 251.384C358.861 249.931 354.802 244.219 354.802 244.219C354.802 244.219 348.289 238.758 352.347 235.35C352.497 235.25 352.648 235.15 352.798 235C357.759 231.592 353.299 228.035 353.299 228.035C353.299 228.035 351.646 224.126 354.051 223.225C354.051 223.225 329.148 209.896 336.614 204.084C344.08 198.272 354.301 220.268 354.301 220.268C354.301 220.268 353.7 197.62 357.057 195.165C357.057 195.165 338.618 180.885 343.629 173.118C348.639 165.352 359.212 193.662 359.212 193.662C359.212 193.662 374.394 172.918 381.258 178.48C388.223 184.041 361.166 195.215 361.166 195.215Z" fill="#F9D12B"/>
<path d="M414.58 218.163C410.471 218.313 409.168 223.374 409.168 223.374C408.717 234.848 404.358 234.397 404.358 234.397C400.75 234.397 396.692 236.151 396.692 236.151C391.731 250.532 383.464 247.325 383.464 247.325C380.608 251.484 377.902 253.738 375.697 254.891H359.162C364.373 249.078 369.634 247.124 370.536 246.774C370.636 246.723 370.687 246.723 370.687 246.723C370.687 246.723 370.687 246.723 370.687 246.673L417.135 212.852C418.237 213.503 418.438 217.962 414.58 218.163Z" fill="#FF0D62"/>
<path d="M356.157 251.386C353.401 252.839 352.248 247.979 352.248 247.979C352.549 244.622 350.344 243.419 348.04 243.069C342.728 233.949 327.596 216.512 321.684 209.848C322.836 209.698 324.54 211 324.54 211C328.248 210.249 330.502 212.604 329.55 214.157C328.598 215.66 332.507 218.166 332.507 218.166C338.369 216.412 341.626 224.679 341.626 224.679C347.138 222.826 351.146 231.945 352.399 235.302C348.34 238.759 354.854 244.171 354.854 244.171C354.854 244.171 358.913 249.933 356.157 251.386Z" fill="#FB6877"/>
<path d="M348.038 243.064C345.633 242.713 343.127 243.265 343.127 243.265C341.925 238.855 337.365 240.308 335.311 241.21C331.703 240.96 332.605 237.753 332.605 237.753C332.605 237.753 333.056 231.44 331.302 232.191C329.548 232.943 320.83 227.531 324.337 223.172C327.845 218.863 324.137 215.756 324.137 215.756C324.137 215.756 321.181 217.71 320.63 212.6C320.429 210.595 320.98 209.944 321.682 209.844C327.544 216.458 342.726 233.895 348.038 243.064Z" fill="#FF0D62"/>
</svg>
