<svg width="24" height="24" viewBox="0 0 24 24" fill="none" xmlns="http://www.w3.org/2000/svg">
<path fill-rule="evenodd" clip-rule="evenodd" d="M5 0C2.23858 0 0 2.23858 0 5V19C0 21.7614 2.23858 24 5 24H19C21.7614 24 24 21.7614 24 19V5C24 2.23858 21.7614 0 19 0H5ZM9.24829 6H14.7517C16.5428 6 18 7.45715 18 9.24829V14.7518C18 16.5428 16.5428 18 14.7518 18H9.24829C7.45715 18 6 16.5428 6 14.7518V9.24829C6 7.45715 7.45715 6 9.24829 6ZM8.71884 12C8.71884 10.1907 10.1907 8.71884 12 8.71884C13.8093 8.71884 15.2812 10.1907 15.2812 12C15.2812 13.8093 13.8093 15.2812 12 15.2812C10.1907 15.2812 8.71884 13.8093 8.71884 12ZM9.42233 12C9.42233 13.4214 10.5787 14.5777 12 14.5777C13.4214 14.5777 14.5777 13.4214 14.5777 12C14.5777 10.5787 13.4214 9.42233 12 9.42233C10.5787 9.42233 9.42233 10.5787 9.42233 12ZM15.3596 7.55356C14.825 7.55356 14.3901 7.98853 14.3901 8.5231C14.3901 9.05777 14.825 9.49274 15.3596 9.49274C15.8943 9.49274 16.3293 9.05777 16.3293 8.5231C16.3293 7.98843 15.8943 7.55356 15.3596 7.55356ZM15.3596 8.78915C15.213 8.78915 15.0936 8.66977 15.0936 8.5231C15.0936 8.37634 15.213 8.25705 15.3596 8.25705C15.5064 8.25705 15.6258 8.37634 15.6258 8.5231C15.6258 8.66977 15.5064 8.78915 15.3596 8.78915Z" fill="white"/>
</svg>
