<svg width="16" height="17" viewBox="0 0 16 17" fill="none" xmlns="http://www.w3.org/2000/svg">
<path d="M7.50784 6.77398L6.76938 6.04031C6.68733 5.95879 6.54784 5.72239 6.6463 5.42892C6.76938 5.06208 7.1384 5.06208 7.38455 5.30664C7.47176 5.39328 7.54352 5.51062 7.61077 5.6206C7.73336 5.82107 7.84099 5.99707 7.99994 5.91811C8.06905 5.88378 8.14787 5.79159 8.23912 5.68486C8.47285 5.41149 8.78811 5.04275 9.23071 5.30664C9.84609 5.67355 8.7384 6.65162 8.49224 6.77398V9.09734H9.96917V8.11912C11.1589 7.30393 13.0707 5.03771 11.1999 2.49432C10.6257 1.67914 8.91109 0.244405 6.6463 1.02698C5.53854 1.43459 3.49532 2.98346 4.18455 5.91811C4.22562 6.2442 4.67697 7.14092 6.15385 8.11912V9.09734H7.50784V6.77398Z" fill="white"/>
<path d="M5.90769 10.0755C5.90769 9.73562 6.18321 9.4601 6.52308 9.4601H9.47692C9.81679 9.4601 10.0923 9.73562 10.0923 10.0755C10.0923 10.4154 9.81679 10.6909 9.47692 10.6909H6.52308C6.18321 10.6909 5.90769 10.4153 5.90769 10.0755Z" fill="white"/>
<path d="M0.369231 12.3964C0.16531 12.3964 0 12.5617 0 12.7656C0 12.9695 0.16531 13.1348 0.369231 13.1348H6.07117C6.4034 13.1735 6.81245 13.2442 7.12902 13.4574C7.38313 13.6285 7.61014 13.913 7.63368 14.4598C7.627 14.5579 7.62666 14.6523 7.63126 14.7412C7.64141 14.937 7.80285 15.0907 7.99894 15.0913C8.19503 15.0918 8.35735 14.939 8.36862 14.7433C8.37395 14.6508 8.37532 14.5616 8.37298 14.4756C8.39645 14.2115 8.48703 13.9276 8.68422 13.6947C8.93053 13.4037 9.3919 13.1348 10.2654 13.1348H15.6308C15.8347 13.1348 16 12.9695 16 12.7656C16 12.5617 15.8347 12.3964 15.6308 12.3964H10.2654C9.23117 12.3964 8.53998 12.7221 8.12059 13.2176C8.08958 13.2542 8.06033 13.2914 8.03276 13.3292C7.89806 13.1317 7.73019 12.9719 7.54155 12.8449C7.05589 12.5178 6.47382 12.4373 6.13397 12.3987C6.12014 12.3972 6.10623 12.3964 6.09231 12.3964H0.369231Z" fill="white"/>
<path d="M2.21554 16.8008H13.6615C14.3862 16.7629 15.7419 16.2037 15.7709 14.3175C15.7748 14.0623 15.558 13.8661 15.3027 13.8661H10.0716C9.92846 13.8661 9.79277 13.9286 9.69749 14.0355C9.16617 14.6313 8.2683 15.5446 8 15.4557C7.66674 15.3454 6.93243 14.9362 6.43053 14.2281C6.32865 14.0844 6.16832 13.9884 5.99215 13.9884H0.706643C0.444169 13.9884 0.225195 14.1946 0.244177 14.4564C0.315125 15.4349 0.765559 16.7207 2.21554 16.8008Z" fill="white"/>
</svg>
