<svg width="76" height="76" viewBox="0 0 76 76" fill="none" xmlns="http://www.w3.org/2000/svg">
<path d="M41.7437 47.9203C42.7755 47.9203 43.8072 47.9203 44.8529 47.9203C45.0899 47.9203 45.3269 47.9482 45.5639 47.99C45.8985 48.0458 46.0519 48.3944 45.8567 48.6732C45.7312 48.8545 45.5918 49.0218 45.4524 49.203C45.4245 49.2449 45.3687 49.2588 45.313 49.2588C45.1317 49.2588 44.9505 49.2449 44.7692 49.2309C44.5322 49.217 44.2952 49.203 44.0581 49.203C40.3913 49.203 36.7244 49.203 33.0576 49.203C32.6114 49.203 32.1932 49.0636 31.8167 48.8126C31.5518 48.6453 31.5797 48.3525 31.8725 48.241C32.0956 48.1574 32.3187 48.0876 32.5557 48.0319C32.7509 47.9761 32.9461 47.9482 33.1413 47.9203C33.3922 47.8924 33.6432 47.8646 33.8941 47.8506C34.173 47.8227 34.4518 47.8227 34.7307 47.767C35.1071 47.6973 35.4417 47.5439 35.7764 47.3626C36.2643 47.0838 36.6826 46.7352 37.0451 46.2891C37.3519 45.8987 37.6168 45.4944 37.798 45.0343C37.9096 44.7554 38.0072 44.4905 38.1047 44.1977C38.1605 44.0165 38.2023 43.8213 38.2163 43.6261C38.2442 43.3472 38.1047 43.1799 37.8259 43.1381C37.6725 43.1102 37.5331 43.1102 37.3797 43.0823C37.0312 43.0405 36.6826 42.9987 36.3341 42.9568C36.0831 42.929 35.8321 42.9011 35.5812 42.8592C35.2884 42.8174 34.9956 42.7616 34.7028 42.7059C34.3821 42.6362 34.0754 42.5664 33.7547 42.4967C33.5038 42.441 33.2667 42.3573 33.0158 42.2876C32.723 42.19 32.4302 42.1063 32.1374 41.9948C31.7331 41.8414 31.3287 41.6881 30.9384 41.5068C30.534 41.3256 30.1297 41.1443 29.7393 40.9352C29.2932 40.7121 28.8609 40.4611 28.4427 40.2102C27.9826 39.9174 27.5225 39.6246 27.0903 39.29C26.6023 38.9135 26.1561 38.5092 25.71 38.1049C25.459 37.8818 25.208 37.6448 24.971 37.3938C24.5249 36.9058 24.0787 36.4179 23.6604 35.902C23.3258 35.4837 23.0051 35.0515 22.6984 34.6193C22.4614 34.2847 22.2522 33.9361 22.057 33.5736C21.7921 33.1135 21.5412 32.6395 21.3181 32.1515C21.109 31.6914 20.9417 31.2313 20.7604 30.7572C20.6349 30.4087 20.5094 30.0462 20.3979 29.6976C20.3003 29.4048 20.2167 29.112 20.1469 28.8192C20.0633 28.4986 19.9796 28.1779 19.9099 27.8572C19.8681 27.662 19.8402 27.4529 19.8123 27.2577C19.7705 26.9928 19.7287 26.7418 19.7008 26.4769C19.6729 26.1841 19.659 25.8913 19.6311 25.5986C19.6171 25.501 19.6032 25.4034 19.5753 25.3197C19.4219 24.9014 19.4359 24.4692 19.4359 24.037C19.4359 23.8836 19.4638 23.7163 19.4638 23.563C19.4777 23.4096 19.5056 23.2702 19.5335 23.1168C19.5614 22.9495 19.5753 22.824 19.6171 22.6567C19.6171 22.6288 19.6311 22.6009 19.6311 22.587C19.659 22.1966 19.6868 21.7923 19.7287 21.4019C19.7426 21.2346 19.7844 21.0812 19.8263 20.9139C19.8541 20.7466 19.882 20.5932 19.9099 20.4259C19.9517 20.1889 20.0075 19.9519 20.0633 19.7288C20.1191 19.5197 20.1748 19.3105 20.2306 19.1014C20.3421 18.725 20.4537 18.3485 20.5792 17.9721C20.6907 17.6374 20.8162 17.2889 20.9417 16.9543C21.1229 16.5221 21.3181 16.0898 21.5133 15.6716C21.82 15.0302 22.1965 14.4168 22.6008 13.8312C22.9075 13.385 23.2422 12.9389 23.5768 12.5066C23.8138 12.1999 24.0787 11.9071 24.3297 11.6143C25.1523 10.6384 26.0725 9.75999 26.9927 8.86768C27.4667 8.40758 27.9407 7.96142 28.4148 7.51527C28.5821 7.34796 28.7912 7.25036 29.0143 7.16671C29.0422 7.15276 29.0701 7.15276 29.084 7.16671C29.3489 7.2643 29.4744 7.4595 29.4883 7.73835C29.5162 8.04508 29.3768 8.26816 29.1816 8.47729C28.7076 8.96528 28.2335 9.45326 27.7595 9.94124C27.4806 10.2201 27.1878 10.4711 26.909 10.7499C26.5883 11.0706 26.672 11.3773 26.9648 11.6562C27.4109 12.0744 27.8431 12.4927 28.2754 12.9249C28.4008 13.0504 28.5263 13.1898 28.6518 13.3153C28.8191 13.4966 29.098 13.5384 29.321 13.4129C29.5023 13.3153 29.6696 13.1898 29.8508 13.0783C30.3528 12.7576 30.8408 12.423 31.3427 12.1163C31.7052 11.8792 32.0816 11.6562 32.472 11.447C32.9879 11.1682 33.5177 10.9033 34.0893 10.736C34.3821 10.6523 34.661 10.5408 34.9538 10.4711C35.2187 10.4013 35.4975 10.3456 35.7764 10.2898C36.1249 10.2201 36.4874 10.1504 36.836 10.1086C37.8817 9.95519 38.9413 9.9273 40.0009 9.96913C40.2798 9.98307 40.5725 10.011 40.8514 10.0528C41.1721 10.0946 41.4788 10.1643 41.7995 10.2201C42.1899 10.3037 42.5803 10.3874 42.9567 10.485C43.3471 10.5965 43.7375 10.722 44.1139 10.8614C44.5182 11.0148 44.9226 11.1821 45.3269 11.3634C45.7034 11.5446 46.0798 11.7398 46.4423 11.9629C46.8466 12.2139 47.237 12.4788 47.6135 12.7576C47.9202 12.9807 48.199 13.2316 48.4918 13.4687C49.0077 13.8869 49.4399 14.3749 49.8721 14.8769C50.2904 15.3648 50.6668 15.8807 51.0015 16.4105C51.2106 16.7451 51.4197 17.0797 51.601 17.4283C51.8101 17.8326 51.9914 18.2649 52.1866 18.6831C52.2981 18.9201 52.3957 19.1711 52.4794 19.4221C52.563 19.673 52.6467 19.924 52.7024 20.175C52.7861 20.4678 52.8558 20.7745 52.9255 21.0673C52.9673 21.2764 53.0092 21.4855 53.0371 21.6947C53.0789 21.9735 53.1207 22.2524 53.1625 22.5312C53.1625 22.5591 53.1625 22.587 53.1765 22.6009C53.2322 23.3538 53.2601 24.0928 53.2183 24.8457C53.1904 25.3058 53.1486 25.7659 53.0928 26.226C53.051 26.5745 52.9813 26.937 52.8976 27.2856C52.8279 27.5644 52.7443 27.8433 52.6746 28.1221C52.5909 28.401 52.5072 28.6938 52.4096 28.9726C52.1866 29.5582 51.9495 30.1298 51.6428 30.6736C51.3919 31.1197 51.1269 31.5659 50.8342 31.9842C50.5274 32.4443 50.1649 32.8625 49.8303 33.3087C49.7606 33.3924 49.7048 33.476 49.663 33.5736C49.5933 33.7549 49.663 33.9082 49.8024 34.0476C50.2346 34.4659 50.6668 34.8981 51.0851 35.3164C51.2664 35.4837 51.4337 35.665 51.6149 35.8323C51.6986 35.902 51.8101 35.9717 51.9217 36.0135C52.089 36.0693 52.2423 35.9996 52.3678 35.888C52.563 35.7068 52.7443 35.5116 52.9395 35.3303C53.4693 34.8005 54.013 34.2707 54.5428 33.7549C54.7101 33.5875 54.8774 33.4202 55.1145 33.3366C55.2818 33.2808 55.4491 33.225 55.6443 33.239C55.7976 33.2529 55.965 33.4063 56.0207 33.5875C56.1044 33.8664 56.0068 34.0895 55.8255 34.2707C55.463 34.6611 55.0866 35.0376 54.7101 35.414C54.0409 36.0832 53.3717 36.7525 52.6885 37.4078C52.3539 37.7424 51.9914 38.0491 51.6289 38.3698C51.2803 38.6626 50.9318 38.9554 50.5692 39.2203C50.0813 39.5828 49.5793 39.9174 49.0635 40.2381C48.687 40.4751 48.2966 40.6703 47.9062 40.8655C47.5019 41.0746 47.0976 41.2837 46.6793 41.4511C46.1077 41.6881 45.536 41.8972 44.9505 42.1063C44.6298 42.2179 44.3231 42.3294 43.9884 42.3991C43.5423 42.5107 43.0822 42.6083 42.636 42.6919C42.3014 42.7477 41.9668 42.7895 41.6461 42.8314C41.2139 42.8732 40.7817 42.915 40.3355 42.9568C39.9451 42.9987 39.75 43.1799 39.6524 43.5424C39.4711 44.1698 39.3038 44.7972 39.0389 45.3968C38.76 46.0102 38.4115 46.5819 37.9793 47.0977C37.8677 47.2372 37.798 47.4045 37.7144 47.5718C37.6865 47.6275 37.7004 47.6833 37.7701 47.7251C37.9514 47.8088 38.1326 47.8646 38.3278 47.8646C39.4153 47.9203 40.5865 47.9203 41.7437 47.9203ZM51.9635 24.3159C51.9774 24.3159 51.9914 24.3159 51.9914 24.3159C51.9635 23.8418 51.9495 23.3678 51.8938 22.8937C51.8519 22.5312 51.7822 22.1687 51.7125 21.8062C51.6428 21.4716 51.5731 21.123 51.4755 20.7884C51.4058 20.5235 51.2664 20.2726 51.0015 20.1471C50.8899 20.0913 50.7644 20.0495 50.6529 20.0355C50.3043 20.0216 49.9418 19.9937 49.6072 20.0495C49.2447 20.0913 48.9101 20.0634 48.5755 19.9658C48.2966 19.8822 48.0457 19.7288 47.8365 19.5476C47.5437 19.2966 47.3346 18.9759 47.1255 18.6692C46.6793 17.9721 46.1077 17.4283 45.3687 17.0658C45.0481 16.9124 44.7134 16.8009 44.3788 16.7033C44.1697 16.6475 43.9466 16.6336 43.7375 16.6057C43.6956 16.6057 43.6538 16.5918 43.612 16.5778C43.3471 16.5639 43.0822 16.536 42.8312 16.5639C42.636 16.5778 42.4548 16.6754 42.2596 16.7312C41.925 16.8427 41.6043 16.9543 41.2697 17.0658C41.0745 17.1216 40.8653 17.1355 40.6701 17.0519C40.2658 16.8706 39.8475 16.7033 39.4432 16.5081C38.9413 16.2571 38.4394 16.0062 37.9514 15.7273C37.31 15.3648 36.7663 14.8769 36.3341 14.2913C36.1528 14.0542 36.0134 13.7754 36.0552 13.4687C36.0831 13.2595 36.1528 13.0504 36.2365 12.8552C36.4038 12.4927 36.6129 12.1441 36.7942 11.7816C36.8778 11.6283 36.8639 11.6004 36.6966 11.5446C36.6687 11.5307 36.6408 11.5307 36.6129 11.5307C36.111 11.461 35.6091 11.5446 35.135 11.684C34.4797 11.8653 33.8384 12.1163 33.2249 12.423C32.6672 12.7158 32.1095 13.0086 31.5797 13.3432C31.0917 13.6499 30.6316 13.9985 30.1715 14.347C29.6975 14.7235 29.2653 15.1557 29.0143 15.7134C28.9306 15.8946 28.9585 15.9365 29.1537 15.9365C29.5999 15.9365 30.046 15.9225 30.4922 15.9504C30.8408 15.9644 30.9941 16.1038 31.0638 16.3966C31.1057 16.5639 31.1196 16.7451 31.1196 16.9264C31.1196 17.3447 31.0917 17.7629 31.0917 18.1951C31.0917 18.9899 31.1196 19.7706 31.1196 20.5653C31.1196 20.8721 31.036 21.1649 30.8686 21.4158C30.6595 21.7365 30.3528 21.9596 30.0321 22.1548C29.5441 22.4476 29.4186 22.8937 29.5302 23.3678C29.5999 23.6606 29.7811 23.9115 30.0042 24.1346C30.297 24.4135 30.6595 24.5529 31.0638 24.5808C31.4263 24.5947 31.7749 24.5808 32.1374 24.5947C32.3605 24.6086 32.5975 24.6644 32.8206 24.7341C33.0437 24.7899 33.1273 24.9154 33.0994 25.1385C33.0715 25.4173 33.0018 25.6962 32.8066 25.9192C32.5557 26.212 32.3187 26.5188 32.0677 26.7976C31.5658 27.3832 31.0638 27.9688 30.5619 28.5404C30.3807 28.7495 30.1576 28.9029 29.8648 28.875C29.6835 28.8611 29.5162 28.7774 29.3629 28.6798C28.9446 28.387 28.5263 28.0803 28.108 27.7736C27.8292 27.5784 27.5225 27.4947 27.2018 27.6063C26.9648 27.6899 26.7556 27.8154 26.5326 27.9269C26.4768 27.9548 26.435 28.0245 26.421 28.0803C26.3095 28.3173 26.3513 28.5404 26.4489 28.7774C26.6162 29.1539 26.7696 29.5303 26.9508 29.8928C27.383 30.7851 27.9129 31.6217 28.5403 32.3885C29.1677 33.1693 29.8927 33.8664 30.7013 34.4799C31.3148 34.9539 31.9701 35.3722 32.6533 35.7486C33.2388 36.0693 33.8384 36.3342 34.4797 36.5433C34.898 36.6828 35.3163 36.7943 35.7345 36.8919C36.0552 36.9755 36.3759 37.0313 36.7105 37.0871C37.0172 37.1429 37.31 37.1986 37.6168 37.2126C38.1047 37.2405 38.6067 37.2544 39.0947 37.2683C39.2341 37.2683 39.3596 37.2823 39.499 37.2683C39.8057 37.2405 40.0985 37.2126 40.4052 37.1707C40.7259 37.1289 41.0466 37.0871 41.3673 37.0313C41.7437 36.9616 42.1202 36.878 42.4966 36.7664C42.9846 36.613 43.4726 36.4597 43.9466 36.2645C44.3928 36.0832 44.811 35.8602 45.2433 35.6371C46.0659 35.1909 46.8327 34.6472 47.5437 34.0476C48.1154 33.5597 48.6452 33.0159 49.1192 32.4303C49.5236 31.9284 49.914 31.4125 50.2207 30.8548C50.4856 30.3808 50.7366 29.8928 50.9596 29.4048C51.1688 28.9447 51.3361 28.4707 51.4894 27.9966C51.6149 27.6202 51.6986 27.2438 51.7962 26.8673C51.8519 26.6442 51.8938 26.4212 51.9217 26.1981C51.9635 25.8774 52.0193 25.5428 52.0471 25.2221C51.9774 24.8875 51.9635 24.5947 51.9635 24.3159ZM20.7743 25.2082C20.7883 25.2082 20.7883 25.2082 20.7743 25.2082C20.7883 25.3058 20.7743 25.4173 20.7883 25.5149C20.8301 25.8774 20.8719 26.2538 20.9138 26.6164C20.9695 27.1043 21.0671 27.5923 21.1787 28.0803C21.2623 28.4289 21.346 28.7774 21.4575 29.126C21.6109 29.6279 21.7782 30.1298 21.9734 30.6318C22.1965 31.2173 22.4614 31.775 22.7821 32.3188C23.0748 32.8207 23.3676 33.3087 23.6883 33.7827C24.1345 34.438 24.5806 35.0794 25.0686 35.7068C25.6821 36.5015 26.4071 37.1986 27.1878 37.826C27.6758 38.2164 28.1778 38.5789 28.7076 38.9135C29.3071 39.3039 29.9345 39.6525 30.5759 40.001C31.0081 40.2381 31.4682 40.4333 31.9283 40.6145C32.3605 40.7818 32.7927 40.9352 33.2389 41.0607C33.5038 41.1443 33.7687 41.2001 34.0475 41.2559C34.2985 41.3116 34.5355 41.3813 34.7865 41.4232C35.0653 41.4789 35.3441 41.5347 35.623 41.5905C35.8042 41.6323 35.9855 41.6741 36.1528 41.702C36.5293 41.7578 36.9057 41.8136 37.2961 41.8554C37.6028 41.8833 37.8956 41.9251 38.2023 41.9251C38.7879 41.9251 39.3735 41.9112 39.9591 41.8833C40.3495 41.8693 40.7399 41.8136 41.1302 41.7717C41.3115 41.7438 41.5067 41.716 41.6879 41.6741C42.0783 41.5905 42.4687 41.5208 42.8591 41.4371C43.138 41.3674 43.4168 41.2837 43.6956 41.2001C44.1 41.0746 44.4904 40.977 44.8808 40.8237C45.3966 40.6285 45.9264 40.4333 46.4284 40.1823C47.0697 39.8616 47.6971 39.527 48.3106 39.1645C48.938 38.7881 49.5375 38.3558 50.137 37.9376C50.3601 37.7842 50.5692 37.603 50.7644 37.4217C50.8899 37.3102 50.9039 37.1568 50.8202 37.0034C50.7644 36.878 50.6808 36.7664 50.5832 36.6688C50.0534 36.139 49.5236 35.6231 48.9938 35.1073C48.8125 34.926 48.6173 34.8145 48.3524 34.9121C48.2409 34.9539 48.1293 35.0376 48.0317 35.1073C47.7389 35.3303 47.4601 35.5813 47.1534 35.8044C46.4981 36.2924 45.8009 36.7106 45.0481 37.0592C44.6577 37.2405 44.2673 37.4078 43.863 37.5611C43.5005 37.7006 43.138 37.8121 42.7754 37.9236C42.5942 37.9794 42.399 38.0352 42.2038 38.077C41.9389 38.1328 41.6601 38.1885 41.3952 38.2443C41.2 38.2861 40.9908 38.328 40.7956 38.3558C40.6004 38.3837 40.3913 38.3977 40.1822 38.4256C39.8894 38.4534 39.6105 38.4813 39.3177 38.4953C38.8855 38.5092 38.4672 38.5092 38.035 38.4953C37.6446 38.4813 37.2403 38.4534 36.8499 38.3977C36.4456 38.3419 36.0552 38.2582 35.6648 38.1746C35.3442 38.1049 35.0235 38.0352 34.7167 37.9515C34.1312 37.7842 33.5595 37.5751 33.0018 37.3241C32.2489 36.9895 31.5239 36.5991 30.8268 36.1529C29.9484 35.5813 29.1258 34.94 28.3869 34.1871C27.7455 33.5457 27.1739 32.8347 26.672 32.0818C26.2119 31.3986 25.8215 30.6736 25.5008 29.9346C25.3475 29.5721 25.1941 29.2236 25.0547 28.8611C24.9292 28.4986 24.8037 28.1361 24.7061 27.7596C24.6364 27.4808 24.5946 27.2019 24.5527 26.9091C24.5109 26.5885 24.483 26.2678 24.4691 25.9471C24.4551 25.2361 24.4551 24.525 24.4691 23.8279C24.483 22.9913 24.4133 22.1408 24.5946 21.3182C24.6503 21.0533 24.6782 20.7884 24.7479 20.5375C24.8734 20.1331 24.985 19.7288 25.1523 19.3384C25.3614 18.8365 25.6124 18.3485 25.8494 17.8466C26.184 17.1634 26.6302 16.5499 27.0763 15.9365C27.3273 15.5879 27.5922 15.2533 27.8431 14.8908C27.9965 14.6817 28.0244 14.4586 27.8013 14.2634C27.5922 14.0821 27.383 13.9288 27.1878 13.7475C26.6999 13.3153 26.2119 12.8691 25.7239 12.4369C25.6542 12.3672 25.5845 12.3393 25.4869 12.409C25.3893 12.4788 25.2917 12.5345 25.222 12.6182C24.985 12.8831 24.7619 13.148 24.5527 13.4268C24.1763 13.9288 23.7998 14.4446 23.4652 14.9744C23.1724 15.4206 22.9075 15.8946 22.6845 16.3826C22.4056 16.9682 22.1407 17.5538 21.9176 18.1533C21.7364 18.6134 21.6109 19.0875 21.4715 19.5615C21.3599 19.9658 21.2623 20.3841 21.1647 20.7884C21.095 21.0812 21.0532 21.3879 20.9974 21.6947C20.9277 22.1408 20.858 22.6009 20.8162 23.0471C20.7743 23.4375 20.7604 23.8279 20.7604 24.2043C20.7465 24.525 20.7743 24.8596 20.7743 25.2082ZM42.5803 15.1696C42.7057 15.1836 42.8312 15.1836 42.9567 15.1975C43.1519 15.2254 43.361 15.2672 43.5562 15.3091C43.849 15.3509 44.1418 15.3927 44.4346 15.4485C44.8668 15.5461 45.299 15.6576 45.7312 15.7831C46.0659 15.8807 46.3865 16.0341 46.6514 16.2571C47.2928 16.7591 47.8087 17.3865 48.2409 18.0697C48.4639 18.4182 48.7846 18.6413 49.189 18.6971C49.5236 18.7389 49.8861 18.711 50.2207 18.6971C50.4298 18.6831 50.5414 18.5298 50.5135 18.3206C50.4995 18.237 50.4856 18.1673 50.4438 18.0975C50.0952 17.4841 49.7188 16.9124 49.2865 16.3547C49.0495 16.062 48.8125 15.7692 48.5615 15.4903C48.1014 14.9605 47.5856 14.4865 47.0418 14.0403C46.3447 13.4826 45.6058 12.9807 44.7971 12.5903C44.3928 12.3951 43.9745 12.2139 43.5423 12.0326C43.2495 11.9211 42.9567 11.8235 42.65 11.7398C42.3572 11.6562 42.0644 11.5725 41.7577 11.5028C41.5206 11.447 41.2836 11.4052 41.0466 11.3494C40.8235 11.3076 40.6004 11.2658 40.3774 11.2379C40.1822 11.21 39.973 11.1961 39.7778 11.1682C39.499 11.1403 39.2341 11.0985 38.9552 11.0706C38.774 11.0566 38.5927 11.0985 38.4673 11.2239C38.3557 11.3355 38.2442 11.461 38.1745 11.6143C38.049 11.8932 37.9096 12.172 37.7283 12.423C37.5192 12.7158 37.4495 13.0504 37.5052 13.399C37.561 13.7475 37.7422 14.0403 37.9932 14.2913C38.3696 14.6677 38.8437 14.8908 39.3317 15.0999C39.7778 15.2951 40.2379 15.4903 40.6841 15.6716C40.7538 15.6995 40.8375 15.7273 40.9072 15.7134C41.0745 15.6995 41.2139 15.6297 41.3533 15.5461C41.7298 15.3091 42.1341 15.1557 42.5803 15.1696ZM25.6263 24.3995C25.6124 24.776 25.6124 25.1663 25.6263 25.5428C25.6402 25.7659 25.6542 26.0029 25.71 26.212C25.7936 26.5466 26.0864 26.7 26.421 26.6024C26.5744 26.5606 26.7278 26.4769 26.8672 26.4072C27.1181 26.2817 27.383 26.1841 27.6758 26.1981C27.9826 26.212 28.2614 26.3236 28.4984 26.5048C28.7633 26.7 29.0143 26.8952 29.2653 27.0904C29.4465 27.2159 29.6417 27.2995 29.8508 27.188C29.9345 27.1462 30.0182 27.0904 30.0879 27.0207C30.297 26.8115 30.5201 26.6024 30.7153 26.3793C30.8408 26.2399 30.8129 26.1005 30.6734 25.9889C30.6037 25.9332 30.5061 25.8913 30.4225 25.8356C30.0321 25.6264 29.6278 25.4452 29.2513 25.2082C28.4706 24.7062 28.0941 23.9952 28.2475 23.061C28.2754 22.9216 28.2475 22.7543 28.2335 22.6149C28.1917 22.3221 28.1917 22.0293 28.3869 21.7783C28.5403 21.5692 28.7494 21.4577 28.9725 21.3322C29.3071 21.1509 29.5999 20.9 29.7254 20.5375C29.7811 20.3702 29.7951 20.175 29.7951 19.9798C29.7951 19.8125 29.7533 19.6312 29.7533 19.4639C29.7533 19.0317 29.7811 18.5855 29.7811 18.1533C29.7811 17.9442 29.7393 17.735 29.6975 17.5259C29.6696 17.3725 29.5581 17.261 29.4047 17.1913C29.0561 17.0519 28.6936 17.0379 28.3451 17.1355C27.8013 17.2749 27.3691 17.5956 27.0903 18.0697C26.9229 18.3485 26.7975 18.6274 26.658 18.9201C26.4071 19.4639 26.184 20.0216 26.0167 20.6072C25.8773 21.0673 25.7797 21.5274 25.7239 22.0014C25.6681 22.35 25.6542 22.7125 25.6402 23.061C25.6124 23.5072 25.6263 23.9534 25.6263 24.3995Z" fill="white"/>
<path d="M40.7258 34.6758C40.182 34.6758 39.6383 34.6758 39.1085 34.6758C39.0387 34.6758 38.8296 34.634 38.7878 34.634C38.1046 34.6479 37.4354 34.6061 36.7661 34.62C36.069 34.6339 35.3719 34.5921 34.6887 34.4806C34.2147 34.4109 33.7546 34.2993 33.2945 34.2017C32.9041 34.1181 32.5277 33.9926 32.1233 33.9229C31.5656 33.8253 31.2868 33.2955 31.2589 32.9051C31.231 32.5008 31.2031 32.0825 31.2031 31.6782C31.2031 31.4133 31.231 31.1344 31.2728 30.8695C31.3286 30.5349 31.482 30.2421 31.6911 29.9772C32.0118 29.545 32.3464 29.1406 32.681 28.7224C32.932 28.4017 33.1969 28.1089 33.42 27.7743C33.6849 27.37 33.8243 26.9238 33.9498 26.4498C34.0334 26.1012 34.131 25.7526 34.2705 25.418C34.4099 25.0555 34.7863 24.8743 35.0791 24.9858C35.2604 25.0555 35.4277 25.1392 35.581 25.2368C36.2642 25.6829 36.9335 26.143 37.6306 26.5892C38.3974 27.0772 39.1642 27.5652 39.9311 28.0392C40.0008 28.081 40.0705 28.1228 40.1541 28.1228C40.3912 28.1647 40.5445 28.095 40.6421 27.8719C40.7397 27.6349 40.8234 27.3839 40.907 27.1469C41.0046 26.9099 41.0883 26.6589 41.1998 26.4219C41.2835 26.2406 41.4229 26.1012 41.646 26.143C41.7715 26.1709 41.9109 26.2546 41.9806 26.3522C42.4128 26.868 42.8171 27.3839 43.2354 27.9137C43.5003 28.2483 43.7513 28.569 44.0162 28.9036C44.1696 29.0988 44.309 29.294 44.4623 29.4892C44.5739 29.6426 44.6157 29.8099 44.6297 29.9911C44.6575 30.4233 44.7273 30.8695 44.7412 31.3017C44.7691 32.3474 44.3926 33.1979 43.5282 33.8253C43.2215 34.0484 42.9008 34.2296 42.5662 34.4109C42.2316 34.5921 41.8691 34.6897 41.4787 34.6618C41.2138 34.6758 40.9767 34.6897 40.7258 34.6758C40.7258 34.6897 40.7258 34.6897 40.7258 34.6758ZM43.4864 31.1484C43.4724 30.8834 43.4306 30.5349 43.2633 30.2142C43.082 29.8935 42.8869 29.5729 42.6777 29.2661C42.5522 29.0849 42.4128 28.9176 42.2734 28.7503C42.1618 28.6248 41.9527 28.6387 41.8272 28.7642C41.6739 28.9176 41.6042 29.0988 41.5205 29.294C41.4508 29.4753 41.3811 29.6565 41.2695 29.8099C41.1162 30.033 40.8791 30.1027 40.6282 30.019C40.5027 29.9772 40.3912 29.9075 40.2936 29.8378C40.0984 29.6844 39.9311 29.5031 39.7219 29.3637C39.3455 29.0849 38.969 28.8339 38.5926 28.569C37.9094 28.1089 37.2123 27.6627 36.5152 27.2166C36.2782 27.0632 36.0272 26.8959 35.7762 26.7426C35.5253 26.5892 35.2464 26.645 35.1209 26.868C35.0791 26.9517 35.0373 27.0353 35.0373 27.119C35.0094 27.4118 34.8979 27.6767 34.7166 27.9277C34.1729 28.6666 33.6291 29.4195 33.0853 30.1724C32.9738 30.3257 32.8483 30.4652 32.7507 30.6325C32.5555 30.9671 32.5416 31.3435 32.5834 31.72C32.6113 31.971 32.6392 32.2219 32.6392 32.4729C32.6392 32.6681 32.7647 32.7796 32.9459 32.8214C33.3503 32.933 33.7546 33.0166 34.1589 33.1282C34.5214 33.2258 34.8839 33.3373 35.2464 33.421C35.4834 33.4767 35.7205 33.5325 35.9575 33.5604C36.1666 33.6022 36.3897 33.6162 36.5988 33.644C36.6685 33.658 36.7243 33.658 36.794 33.658C36.8777 33.658 36.9753 33.6719 37.0729 33.6719C37.282 33.658 37.4911 33.6301 37.7003 33.6162C38.007 33.6162 38.3277 33.6301 38.6344 33.6301C38.9412 33.6301 39.2618 33.6162 39.5686 33.5883C39.7916 33.5743 40.0147 33.5325 40.2378 33.5046C40.5166 33.4767 40.7955 33.4488 41.0604 33.407C41.5484 33.3234 42.0364 33.17 42.4686 32.919C43.1378 32.5565 43.4864 31.9988 43.4864 31.1484Z" fill="white"/>
<path d="M47.7805 21.457C48.2406 21.457 48.7007 21.457 49.1469 21.457C49.5512 21.457 49.7464 21.7498 49.7464 22.0566C49.7604 22.5027 49.7604 22.9489 49.7325 23.395C49.7185 23.6739 49.7046 23.9667 49.5652 24.2316C49.4397 24.4825 49.2584 24.6638 48.9796 24.7474C48.6171 24.845 48.2825 24.9845 47.92 25.096C47.6132 25.1936 47.2926 25.2633 46.9719 25.347C46.8743 25.3748 46.7627 25.3888 46.6651 25.4167C46.4281 25.5003 46.2469 25.4167 46.0656 25.2772C45.8286 25.096 45.731 24.8729 45.731 24.5801C45.731 24.0643 45.7031 23.5344 45.7031 23.0186C45.7031 22.684 45.7171 22.3633 45.731 22.0287C45.7449 21.7359 46.0099 21.4849 46.3305 21.4849C46.8185 21.457 47.3065 21.457 47.7805 21.457ZM47.8224 22.5306C47.7387 22.5306 47.669 22.5306 47.5853 22.5306C47.5017 22.5306 47.418 22.5445 47.3483 22.5445C47.1671 22.5585 47.0137 22.67 46.9998 22.8094C46.9719 23.0743 46.9579 23.3532 46.9579 23.632C46.9579 23.7994 47.1113 23.9667 47.2507 23.9667C47.4738 23.9667 47.6969 23.9945 47.906 23.9109C48.0454 23.8551 48.1849 23.8133 48.2964 23.7296C48.5753 23.5344 48.645 23.2556 48.6031 22.9349C48.5613 22.67 48.394 22.5306 48.1152 22.5167C48.0176 22.5167 47.92 22.5306 47.8224 22.5306Z" fill="white"/>
<path d="M70.0605 76H5.93946C2.663 76 0 73.337 0 70.0605V5.93946C0 2.663 2.663 0 5.93946 0H70.0605C73.337 0 76 2.663 76 5.93946V70.0605C76 73.337 73.337 76 70.0605 76ZM5.93946 1.97982C3.7505 1.97982 1.97982 3.7505 1.97982 5.93946V70.0605C1.97982 72.2495 3.7505 74.0202 5.93946 74.0202H70.0605C72.2495 74.0202 74.0202 72.2495 74.0202 70.0605V5.93946C74.0202 3.7505 72.2495 1.97982 70.0605 1.97982H5.93946Z" fill="white"/>
<path d="M30.5752 59.2288C29.9478 59.2288 29.3344 59.1173 28.7348 58.8942C28.1353 58.6711 27.6194 58.3505 27.2012 57.9183L28.0935 56.2173C28.5396 56.5519 28.9719 56.8029 29.3762 56.9841C29.7945 57.1654 30.1709 57.249 30.5195 57.249C30.882 57.249 31.0632 57.1235 31.0632 56.8726C31.0632 56.7332 30.9935 56.6077 30.8541 56.5101C30.7147 56.4125 30.4358 56.3009 30.0315 56.1615C29.5156 56.0081 29.0973 55.8408 28.7627 55.6875C28.4281 55.5341 28.1493 55.3668 27.9262 55.1855C27.717 55.0043 27.5637 54.8091 27.4661 54.586C27.3685 54.3629 27.3267 54.112 27.3267 53.8052C27.3267 53.4009 27.3964 53.0384 27.5497 52.7038C27.6892 52.3692 27.8983 52.0764 28.1632 51.8254C28.4281 51.5745 28.7348 51.3793 29.0834 51.2538C29.4459 51.1144 29.8363 51.0586 30.2685 51.0586C30.7983 51.0586 31.3002 51.1283 31.7743 51.2817C32.2483 51.435 32.7363 51.7418 33.2103 52.1879L32.2344 53.8889C31.7882 53.5682 31.4118 53.3451 31.119 53.2057C30.8123 53.0663 30.5334 53.0105 30.2685 53.0105C30.1151 53.0105 29.9897 53.0384 29.8921 53.1081C29.7945 53.1778 29.7387 53.2754 29.7387 53.4149C29.7387 53.5682 29.8084 53.6798 29.9618 53.7774C30.1012 53.875 30.394 53.9726 30.8262 54.098C31.3421 54.2514 31.7743 54.4048 32.1368 54.5721C32.4853 54.7394 32.7781 54.9206 32.9873 55.1158C33.1964 55.311 33.3498 55.5341 33.4474 55.7711C33.545 56.0221 33.5868 56.3009 33.5868 56.6216C33.5868 57.0259 33.5171 57.3884 33.3777 57.7091C33.2382 58.0298 33.043 58.3086 32.7781 58.5317C32.5132 58.7548 32.2065 58.936 31.844 59.0615C31.4536 59.1591 31.0353 59.2288 30.5752 59.2288Z" fill="#A00D0D"/>
<path d="M37.9786 59.2283C37.3373 59.2283 36.7656 59.1168 36.2777 58.8937C35.7897 58.6706 35.3853 58.3639 35.0507 58.0014C34.7161 57.6249 34.4651 57.1927 34.2978 56.7047C34.1305 56.2167 34.0469 55.7009 34.0469 55.1571C34.0469 54.6134 34.1305 54.0975 34.2978 53.6095C34.4651 53.1215 34.7161 52.6893 35.0507 52.3129C35.3853 51.9364 35.7897 51.6436 36.2777 51.4206C36.7656 51.1975 37.3233 51.0859 37.9786 51.0859C38.62 51.0859 39.1777 51.1975 39.6657 51.4206C40.1536 51.6436 40.5719 51.9504 40.8926 52.3129C41.2272 52.6893 41.4782 53.1215 41.6455 53.6095C41.8128 54.0975 41.8964 54.6134 41.8964 55.1571C41.8964 55.7009 41.8128 56.2167 41.6455 56.7047C41.4782 57.1927 41.2272 57.6249 40.8926 58.0014C40.558 58.3778 40.1536 58.6706 39.6657 58.8937C39.1777 59.1168 38.606 59.2283 37.9786 59.2283ZM36.7099 55.1432C36.7099 55.673 36.8214 56.0913 37.0584 56.384C37.2955 56.6768 37.6022 56.8302 37.9786 56.8302C38.3551 56.8302 38.6618 56.6768 38.8849 56.384C39.1219 56.0913 39.2334 55.673 39.2334 55.1432C39.2334 54.6134 39.1219 54.1951 38.8849 53.9023C38.6479 53.6095 38.3411 53.4561 37.9786 53.4561C37.6022 53.4561 37.2955 53.6095 37.0584 53.9023C36.8214 54.1951 36.7099 54.6134 36.7099 55.1432Z" fill="#A00D0D"/>
<path d="M45.7725 59.2288C45.1451 59.2288 44.5316 59.1173 43.9321 58.8942C43.3326 58.6711 42.8167 58.3505 42.3984 57.9183L43.2908 56.2173C43.7369 56.5519 44.1691 56.8029 44.5735 56.9841C44.9917 57.1654 45.3682 57.249 45.7167 57.249C46.0792 57.249 46.2605 57.1235 46.2605 56.8726C46.2605 56.7332 46.1908 56.6077 46.0513 56.5101C45.9119 56.4125 45.6331 56.3009 45.2287 56.1615C44.7129 56.0081 44.2946 55.8408 43.96 55.6875C43.6254 55.5341 43.3465 55.3668 43.1234 55.1855C42.9143 55.0043 42.7609 54.8091 42.6633 54.586C42.5657 54.3629 42.5239 54.112 42.5239 53.8052C42.5239 53.4009 42.5936 53.0384 42.747 52.7038C42.8864 52.3692 43.0956 52.0764 43.3605 51.8254C43.6254 51.5745 43.9321 51.3793 44.2807 51.2538C44.6432 51.1144 45.0336 51.0586 45.4658 51.0586C45.9956 51.0586 46.4975 51.1283 46.9715 51.2817C47.4456 51.435 47.9336 51.7418 48.4076 52.1879L47.4316 53.8889C46.9855 53.5682 46.609 53.3451 46.3163 53.2057C46.0095 53.0663 45.7307 53.0105 45.4658 53.0105C45.3124 53.0105 45.1869 53.0384 45.0893 53.1081C44.9917 53.1778 44.936 53.2754 44.936 53.4149C44.936 53.5682 45.0057 53.6798 45.159 53.7774C45.2985 53.875 45.5912 53.9726 46.0235 54.098C46.5393 54.2514 46.9715 54.4048 47.334 54.5721C47.6826 54.7394 47.9754 54.9206 48.1845 55.1158C48.3937 55.311 48.547 55.5341 48.6446 55.7711C48.7422 56.0221 48.7841 56.3009 48.7841 56.6216C48.7841 57.0259 48.7143 57.3884 48.5749 57.7091C48.4355 58.0298 48.2403 58.3086 47.9754 58.5317C47.7105 58.7548 47.4038 58.936 47.0413 59.0615C46.6509 59.1591 46.2326 59.2288 45.7725 59.2288Z" fill="#A00D0D"/>
<path d="M16.0625 62.7825C16.0625 62.3643 16.1322 61.9599 16.2856 61.5556C16.425 61.1513 16.6341 60.7888 16.913 60.4681C17.1918 60.1474 17.5265 59.8825 17.9168 59.6873C18.3072 59.4921 18.7673 59.3945 19.2693 59.3945C19.8827 59.3945 20.3986 59.534 20.8447 59.7989C21.2909 60.0777 21.6255 60.4263 21.8347 60.8864L20.5241 61.9042C20.4683 61.7369 20.3846 61.5974 20.287 61.4859C20.1894 61.3744 20.0779 61.2907 19.9664 61.221C19.8548 61.1513 19.7293 61.1094 19.6039 61.0816C19.4784 61.0537 19.3529 61.0397 19.2414 61.0397C18.9904 61.0397 18.7813 61.0955 18.6 61.1931C18.4188 61.3046 18.2793 61.4301 18.1539 61.6114C18.0423 61.7787 17.9587 61.9739 17.9029 62.183C17.8471 62.3921 17.8192 62.6152 17.8192 62.8244C17.8192 63.0614 17.8471 63.2845 17.9168 63.5075C17.9866 63.7306 18.0702 63.9119 18.1957 64.0792C18.3212 64.2465 18.4745 64.3859 18.6558 64.4835C18.837 64.5811 19.0322 64.6369 19.2553 64.6369C19.3668 64.6369 19.4923 64.6229 19.6178 64.595C19.7433 64.5672 19.8548 64.5114 19.9803 64.4556C20.0919 64.3859 20.2034 64.3023 20.287 64.1907C20.3846 64.0792 20.4544 63.9537 20.5101 63.8003L21.9183 64.7205C21.8207 64.9715 21.6813 65.1946 21.4861 65.3898C21.2909 65.585 21.0818 65.7523 20.8308 65.8917C20.5798 66.0311 20.3289 66.1287 20.05 66.1984C19.7712 66.2681 19.4923 66.31 19.2274 66.31C18.7673 66.31 18.3351 66.2124 17.9447 66.0032C17.5543 65.808 17.2197 65.5292 16.9409 65.1946C16.662 64.8599 16.4389 64.4835 16.2856 64.0652C16.1322 63.647 16.0625 63.2287 16.0625 62.7825Z" fill="white"/>
<path d="M24.6784 66.3517C24.2601 66.3517 23.8976 66.282 23.577 66.1286C23.2563 65.9892 22.9914 65.794 22.7822 65.557C22.5731 65.32 22.4058 65.0411 22.2943 64.7205C22.1827 64.3998 22.127 64.0652 22.127 63.7305C22.127 63.382 22.1827 63.0474 22.2943 62.7406C22.4058 62.42 22.5592 62.1411 22.7822 61.9041C22.9914 61.6671 23.2563 61.4719 23.577 61.3325C23.8976 61.193 24.2601 61.1094 24.6784 61.1094C25.0967 61.1094 25.4592 61.1791 25.7799 61.3325C26.1005 61.4719 26.3654 61.6671 26.5746 61.9041C26.7837 62.1411 26.951 62.42 27.0626 62.7406C27.1741 63.0613 27.2299 63.3959 27.2299 63.7305C27.2299 64.0791 27.1741 64.4137 27.0626 64.7205C26.951 65.0411 26.7977 65.32 26.5746 65.557C26.3654 65.794 26.0866 65.9892 25.7799 66.1286C25.4592 66.282 25.0967 66.3517 24.6784 66.3517ZM23.8558 63.7305C23.8558 64.0652 23.9255 64.3301 24.0789 64.5253C24.2323 64.7205 24.4274 64.8181 24.6645 64.8181C24.9015 64.8181 25.0967 64.7205 25.25 64.5253C25.4034 64.3301 25.4731 64.0652 25.4731 63.7305C25.4731 63.3959 25.3895 63.131 25.25 62.9358C25.0967 62.7406 24.9015 62.643 24.6645 62.643C24.4274 62.643 24.2323 62.7406 24.0789 62.9358C23.9395 63.1171 23.8558 63.3959 23.8558 63.7305Z" fill="white"/>
<path d="M35.3174 66.253H33.6443V63.4087C33.6443 63.1578 33.6025 62.9765 33.5049 62.865C33.4073 62.7534 33.3097 62.6977 33.1703 62.6977C33.0309 62.6977 32.8914 62.7674 32.7381 62.8929C32.5847 63.0323 32.4732 63.1996 32.4035 63.4087V66.239H30.7304V63.4087C30.7304 63.1578 30.6885 62.9765 30.5909 62.865C30.4933 62.7534 30.3957 62.6977 30.2563 62.6977C30.1169 62.6977 29.9775 62.7674 29.8241 62.8929C29.6707 63.0323 29.5592 63.1996 29.4895 63.4087V66.239H27.8164V61.1779H29.3222V61.9308C29.4895 61.652 29.7126 61.4428 30.0054 61.3034C30.2982 61.164 30.6328 61.0803 31.0371 61.0803C31.2323 61.0803 31.3857 61.1082 31.539 61.1501C31.6784 61.1919 31.8039 61.2616 31.9015 61.3453C31.9991 61.4289 32.0828 61.5265 32.1525 61.6241C32.2083 61.7217 32.264 61.8332 32.2919 61.9448C32.4592 61.6659 32.6823 61.4568 32.9751 61.3034C33.2679 61.1501 33.5886 61.0664 33.9511 61.0664C34.2578 61.0664 34.4948 61.1222 34.6761 61.2477C34.8573 61.3731 34.9967 61.5265 35.0804 61.7078C35.178 61.889 35.2338 62.0981 35.2616 62.3073C35.2895 62.5164 35.3035 62.7116 35.3035 62.8789V66.253H35.3174Z" fill="white"/>
<path d="M39.2618 66.3523C38.9272 66.3523 38.6344 66.2825 38.3834 66.1292C38.1324 65.9898 37.9512 65.7806 37.8118 65.5018V68.3042H36.1387V61.1936H37.6026V61.9465C37.7699 61.6676 37.9651 61.4585 38.2161 61.3051C38.4531 61.1517 38.7598 61.082 39.1084 61.082C39.4151 61.082 39.694 61.1517 39.9728 61.2772C40.2377 61.4027 40.4608 61.584 40.656 61.821C40.8512 62.058 40.9906 62.3229 41.1022 62.6436C41.2137 62.9643 41.2695 63.3128 41.2695 63.6753C41.2695 64.0518 41.2137 64.4003 41.1161 64.7349C41.0185 65.0556 40.8791 65.3345 40.6978 65.5715C40.5166 65.8085 40.3075 65.9898 40.0704 66.1292C39.8055 66.2825 39.5406 66.3523 39.2618 66.3523ZM38.6762 64.8186C38.8017 64.8186 38.9132 64.7907 39.0108 64.7349C39.1084 64.6792 39.206 64.5955 39.2757 64.4979C39.3454 64.4003 39.4151 64.2748 39.457 64.1354C39.4988 63.996 39.5267 63.8566 39.5267 63.7032C39.5267 63.3825 39.443 63.1316 39.2757 62.9364C39.1084 62.7412 38.8853 62.6436 38.6065 62.6436C38.2997 62.6436 38.0348 62.8109 37.8118 63.1595V64.0378C37.8954 64.2609 38.0209 64.4422 38.1743 64.5955C38.3276 64.7489 38.4949 64.8186 38.6762 64.8186Z" fill="white"/>
<path d="M43.2645 66.3501C42.7904 66.3501 42.4279 66.1967 42.1909 65.89C41.9399 65.5833 41.8145 65.1232 41.8145 64.5236V61.1914H43.4875V64.1054C43.4875 64.3284 43.5294 64.5097 43.627 64.6212C43.7246 64.7467 43.85 64.8025 44.0034 64.8025C44.1289 64.8025 44.2683 64.7746 44.4077 64.7049C44.5472 64.6352 44.6726 64.4958 44.8121 64.2866V61.1914H46.4852V64.2308C46.4852 64.3982 46.513 64.5236 46.5549 64.5934C46.5967 64.6631 46.6803 64.7049 46.8058 64.7188V66.2525C46.513 66.3222 46.276 66.3501 46.0948 66.3501C45.5231 66.3501 45.1885 66.1131 45.1049 65.653L45.063 65.4717C44.84 65.7924 44.589 66.0155 44.2823 66.1549C43.9895 66.2804 43.6409 66.3501 43.2645 66.3501Z" fill="white"/>
<path d="M50.752 65.9771C50.515 66.0887 50.2641 66.1723 49.9991 66.256C49.7342 66.3257 49.4693 66.3675 49.2044 66.3675C49.0092 66.3675 48.8419 66.3396 48.6607 66.2839C48.4934 66.2281 48.34 66.1444 48.2145 66.0329C48.089 65.9214 47.9914 65.768 47.9078 65.5868C47.8381 65.4055 47.7962 65.1685 47.7962 64.8896V62.5752H47.2246V61.1949H47.7962V59.6055H49.4693V61.1949H50.3756V62.5752H49.4693V64.2483C49.4693 64.4156 49.4972 64.5271 49.5669 64.5968C49.6366 64.6666 49.7203 64.6944 49.8318 64.6944C49.9155 64.6944 50.0131 64.6805 50.1107 64.6526C50.2222 64.6247 50.3198 64.5829 50.4314 64.5271L50.752 65.9771Z" fill="white"/>
<path d="M53.5258 66.35C53.1215 66.35 52.759 66.2803 52.4383 66.1409C52.1176 66.0015 51.8527 65.8202 51.6436 65.5832C51.4344 65.3462 51.2671 65.0673 51.1556 64.7606C51.0441 64.4539 50.9883 64.1332 50.9883 63.7846C50.9883 63.4221 51.0441 63.0736 51.1556 62.7529C51.2671 62.4322 51.4205 62.1394 51.6436 61.9024C51.8527 61.6654 52.1176 61.4702 52.4383 61.3168C52.759 61.1774 53.1215 61.0938 53.5397 61.0938C53.958 61.0938 54.3205 61.1635 54.6412 61.3168C54.9619 61.4563 55.2268 61.6514 55.4359 61.8885C55.645 62.1255 55.8124 62.4043 55.9239 62.725C56.0354 63.0457 56.0912 63.3803 56.0912 63.7149C56.0912 63.8125 56.0912 63.9101 56.0773 64.0077C56.0633 64.1053 56.0633 64.189 56.0494 64.2726H52.7868C52.8008 64.5375 52.8984 64.7327 53.0657 64.8582C53.233 64.9837 53.4143 65.0395 53.6095 65.0395C53.7907 65.0395 53.958 64.9976 54.1253 64.9C54.2926 64.8164 54.3902 64.6909 54.446 64.5236L55.8681 64.9697C55.6729 65.3741 55.3941 65.7087 55.0037 65.9596C54.5715 66.2246 54.0974 66.35 53.5258 66.35ZM54.2647 63.1851C54.2369 62.9481 54.1532 62.7529 54.0138 62.6135C53.8744 62.474 53.707 62.4043 53.4979 62.4043C53.2888 62.4043 53.1075 62.474 52.982 62.6135C52.8426 62.7529 52.759 62.9481 52.7311 63.1851H54.2647Z" fill="white"/>
<path d="M59.7718 62.7529C59.4511 62.7529 59.1583 62.7947 58.8934 62.8644C58.6285 62.9481 58.4333 63.0736 58.3079 63.2548V66.2524H56.6348V61.1913H58.1684V62.1534C58.3357 61.8188 58.5449 61.5538 58.7819 61.3726C59.0329 61.1913 59.2838 61.0938 59.5766 61.0938C59.6882 61.0938 59.7579 61.0938 59.7857 61.1077V62.7529H59.7718Z" fill="white"/>
</svg>
