<svg width="33" height="37" viewBox="0 0 33 37" fill="none" xmlns="http://www.w3.org/2000/svg">
<path fill-rule="evenodd" clip-rule="evenodd" d="M2.2055 9.90129C5.61594 2.97729 15.0804 -3.28901 26.762 2.9786C29.2911 4.33555 33.2081 8.67071 32.3896 15.0293C31.7072 17.4831 30.4283 18.2523 28.041 18.8753C26.0797 19.7907 23.232 22.6186 23.4367 31.4387C22.4987 34.259 18.5254 38.8741 10.1352 34.7718C5.27506 32.5496 -3.11508 24.4645 2.2055 9.90129ZM24.8013 13.8923C26.3553 13.8923 27.615 12.6296 27.615 11.0719C27.615 9.51428 26.3553 8.25156 24.8013 8.25156C23.2473 8.25156 21.9875 9.51428 21.9875 11.0719C21.9875 12.6296 23.2473 13.8923 24.8013 13.8923ZM19.4287 7.74023C19.4287 8.87306 18.5125 9.7914 17.3823 9.7914C16.2521 9.7914 15.3359 8.87306 15.3359 7.74023C15.3359 6.6074 16.2521 5.68906 17.3823 5.68906C18.5125 5.68906 19.4287 6.6074 19.4287 7.74023ZM10.9874 10.8161C11.9763 10.8161 12.778 10.0126 12.778 9.02133C12.778 8.03011 11.9763 7.22656 10.9874 7.22656C9.9985 7.22656 9.19683 8.03011 9.19683 9.02133C9.19683 10.0126 9.9985 10.8161 10.9874 10.8161ZM8.68585 14.1495C8.68585 15.1407 7.88418 15.9442 6.89527 15.9442C5.90636 15.9442 5.10469 15.1407 5.10469 14.1495C5.10469 13.1582 5.90636 12.3547 6.89527 12.3547C7.88418 12.3547 8.68585 13.1582 8.68585 14.1495ZM6.38277 22.0974C7.37168 22.0974 8.17335 21.2938 8.17335 20.3026C8.17335 19.3114 7.37168 18.5078 6.38277 18.5078C5.39386 18.5078 4.59219 19.3114 4.59219 20.3026C4.59219 21.2938 5.39386 22.0974 6.38277 22.0974ZM10.7327 25.9432C10.7327 26.9344 9.93105 27.738 8.94214 27.738C7.95323 27.738 7.15156 26.9344 7.15156 25.9432C7.15156 24.952 7.95323 24.1484 8.94214 24.1484C9.93105 24.1484 10.7327 24.952 10.7327 25.9432ZM14.0578 31.3286C15.0467 31.3286 15.8483 30.5251 15.8483 29.5338C15.8483 28.5426 15.0467 27.7391 14.0578 27.7391C13.0689 27.7391 12.2672 28.5426 12.2672 29.5338C12.2672 30.5251 13.0689 31.3286 14.0578 31.3286Z" fill="white"/>
</svg>
