<svg width="50" height="50" viewBox="0 0 50 50" fill="none" xmlns="http://www.w3.org/2000/svg">
<path d="M48.7635 16.9783C47.8909 13.4585 46.1488 10.2165 43.6983 7.55225C41.2478 4.88796 38.168 2.88739 34.7439 1.73556C33.016 0.707429 29.3632 0 25.1658 0C21.2783 0 17.8414 0.613105 15.9634 1.51861C12.8161 2.48816 9.92778 4.1601 7.51461 6.40932C5.10145 8.65855 3.2259 11.4268 2.02829 14.507C0.854511 16.0351 0 19.9872 0 24.6091C0 28.6273 0.638536 32.155 1.58695 34.0415C4.57304 43.87 11.8129 49.4635 24.0765 49.9917C24.2203 50.0028 24.3647 50.0028 24.5085 49.9917C25.6917 49.8219 26.5462 48.9447 26.3865 48.0297C26.2633 47.5853 25.9821 47.2016 25.5962 46.9513C25.2103 46.701 24.7465 46.6015 24.2925 46.6715C22.6277 46.539 20.9779 46.258 19.3627 45.832C9.0334 43.0023 2.07524 32.4569 3.77487 22.1095C5.63414 10.8944 15.4281 2.82972 26.2926 3.63147C31.5753 4.00637 36.5392 6.30875 40.2492 10.1049C43.9591 13.901 46.1591 18.9288 46.4347 24.2412C46.5736 26.3678 46.2348 28.4985 45.4432 30.4757C44.6516 32.4529 43.4276 34.226 41.8616 35.6639C40.9696 36.4939 39.8427 37.8428 38.6877 37.2485C37.1853 36.4845 38.3966 35.0319 38.7816 33.966C39.9273 30.7685 37.7863 29.8158 35.5232 28.8537C33.2602 27.8916 31.6075 27.9104 31.0535 30.8533C30.5934 33.2963 29.2224 33.0605 27.8045 31.6645C24.6681 28.5896 21.5975 25.4675 18.5175 22.3265C17.0714 20.855 16.9118 19.4967 19.3063 19.0723C22.7525 18.4215 21.9731 16.3652 21.1844 14.158C20.2453 11.5358 18.6772 10.3851 15.785 11.4509C10.9021 13.2336 9.21182 19.393 12.7238 24.4959C15.129 27.7838 17.8222 30.8489 20.7712 33.6548C31.7296 44.6246 41.0071 43.9644 47.8902 31.8815C48.5641 31.1304 49.0416 30.2228 49.2799 29.2404C49.3505 29.0821 49.3949 28.9132 49.4114 28.7405C49.8098 27.1174 50.0054 25.4507 49.9936 23.7791C50.0578 21.451 49.6389 19.1349 48.7635 16.9783Z" fill="white"/>
</svg>
