<svg width="12" height="16" viewBox="0 0 12 16" fill="none" xmlns="http://www.w3.org/2000/svg">
<path d="M5.978 10.7036C5.59666 10.7036 5.296 10.578 5.076 10.3269C4.856 10.0757 4.746 9.74331 4.746 9.32964C4.746 8.93075 4.79 8.5614 4.878 8.22161C4.98066 7.86704 5.13467 7.51985 5.34 7.18006C5.56 6.82548 5.846 6.47091 6.198 6.11634C6.43266 5.86519 6.616 5.64358 6.748 5.45152C6.89467 5.25946 6.99733 5.08218 7.056 4.91967C7.11466 4.74238 7.144 4.5651 7.144 4.38781C7.144 4.04802 7.01933 3.78947 6.77 3.61219C6.52067 3.4349 6.16133 3.34626 5.692 3.34626C5.22266 3.34626 4.78266 3.39797 4.372 3.50138C3.96133 3.6048 3.56533 3.75993 3.184 3.96676C2.744 4.20314 2.35533 4.28439 2.018 4.21053C1.68066 4.12188 1.41666 3.9446 1.226 3.67867C1.03533 3.41274 0.925331 3.10249 0.895998 2.74792C0.881331 2.39335 0.976665 2.04617 1.182 1.70637C1.402 1.36657 1.73933 1.08587 2.194 0.864265C2.79533 0.56879 3.43333 0.35457 4.108 0.221606C4.78266 0.0738688 5.41333 0 6 0C7.012 0 7.89933 0.162512 8.662 0.487535C9.43933 0.812557 10.0407 1.27054 10.466 1.8615C10.8913 2.43767 11.104 3.11727 11.104 3.90028C11.104 4.34349 11.038 4.76454 10.906 5.16343C10.774 5.56233 10.5613 5.95383 10.268 6.33795C9.97467 6.70729 9.564 7.08403 9.036 7.46814C8.58133 7.80794 8.22933 8.1108 7.98 8.37673C7.73067 8.62788 7.54733 8.87165 7.43 9.10803C7.32733 9.34441 7.24667 9.60295 7.188 9.88366C7.12933 10.12 7.00466 10.3195 6.814 10.482C6.62333 10.6297 6.34467 10.7036 5.978 10.7036ZM5.912 16C5.23733 16 4.702 15.8006 4.306 15.4017C3.92466 15.0028 3.734 14.4783 3.734 13.8283C3.734 13.193 3.92466 12.6833 4.306 12.2992C4.702 11.9003 5.23733 11.7008 5.912 11.7008C6.58667 11.7008 7.11467 11.9003 7.496 12.2992C7.87733 12.6833 8.068 13.193 8.068 13.8283C8.068 14.4783 7.87733 15.0028 7.496 15.4017C7.11467 15.8006 6.58667 16 5.912 16Z" fill="white"/>
</svg>
