<svg width="41" height="37" viewBox="0 0 41 37" fill="none" xmlns="http://www.w3.org/2000/svg">
<path d="M12.4048 0.398438C8.99143 0.398438 6.21429 3.16096 6.21429 6.55633V26.9248H22.881C25.2438 26.9248 27.1667 28.8375 27.1667 31.1879V33.5563C27.1667 35.1195 28.4413 36.389 30.0108 36.3966H30.0368C31.5997 36.389 32.8686 35.1285 32.8791 33.5748C32.88 33.0727 32.881 3.24054 32.881 3.24054C32.881 2.17002 33.2528 1.19233 33.8575 0.398438H12.4048ZM37.6429 0.398438C36.0676 0.398438 34.7857 1.6736 34.7857 3.24054V8.92475H38.119C39.4324 8.92475 40.5 7.86275 40.5 6.55633V3.24054C40.5 1.6736 39.2181 0.398438 37.6429 0.398438ZM13.3571 7.03002H25.7381C26.5267 7.03002 27.1667 7.66665 27.1667 8.45107C27.1667 9.23549 26.5267 9.87212 25.7381 9.87212H13.3571C12.5686 9.87212 11.9286 9.23549 11.9286 8.45107C11.9286 7.66665 12.5686 7.03002 13.3571 7.03002ZM13.3571 13.6616H25.7381C26.5267 13.6616 27.1667 14.2982 27.1667 15.0826C27.1667 15.8671 26.5267 16.5037 25.7381 16.5037H13.3571C12.5686 16.5037 11.9286 15.8671 11.9286 15.0826C11.9286 14.2982 12.5686 13.6616 13.3571 13.6616ZM13.3571 20.2932H23.8333C24.6219 20.2932 25.2619 20.9298 25.2619 21.7142C25.2619 22.4986 24.6219 23.1353 23.8333 23.1353H13.3571C12.5686 23.1353 11.9286 22.4986 11.9286 21.7142C11.9286 20.9298 12.5686 20.2932 13.3571 20.2932ZM2.88095 28.8195C1.56762 28.8195 0.5 29.8815 0.5 31.1879V32.1353C0.5 34.4857 2.42286 36.3984 4.78571 36.3984H26.2385C25.6337 35.6045 25.2619 34.6269 25.2619 33.5563V31.1879C25.2619 29.8815 24.1943 28.8195 22.881 28.8195H2.88095Z" fill="white"/>
</svg>
