<svg width="20" height="20" viewBox="0 0 20 20" fill="none" xmlns="http://www.w3.org/2000/svg">
<path d="M17.5915 16.7872L19.9989 0.120365C19.9996 0.11527 20 0.110127 20 0.104976C20 0.0263763 19.9189 -0.0242696 19.851 0.0118998L0.263361 10.442C-0.118054 10.6451 -0.0761362 11.2189 0.330513 11.3613L5.59042 13.2024C5.75366 13.2595 5.93413 13.2239 6.06509 13.1086L12.2821 7.63648C12.736 7.23693 13.3567 7.8654 12.9744 8.33751L8.73226 13.5764C8.51379 13.8462 8.62598 14.2572 8.94914 14.371L16.9509 17.1877C17.2393 17.2892 17.5467 17.097 17.5915 16.7872Z" fill="white"/>
<path d="M10.1761 16.086L8.08054 15.3486C7.76396 15.2372 7.4347 15.4789 7.4347 15.8226V19.4979C7.4347 19.9823 8.03722 20.1848 8.31592 19.7941L10.4114 16.8562C10.6059 16.5836 10.4873 16.1955 10.1761 16.086Z" fill="white"/>
</svg>
