<svg width="194" height="190" viewBox="0 0 194 190" fill="none" xmlns="http://www.w3.org/2000/svg">
<path d="M33.9132 189.661H66.0341V174.554C65.3795 172.669 62.8402 168.528 57.9195 167.043C52.9987 165.557 46.9842 166.424 44.592 167.043C31.1284 172.039 31.8629 184.204 33.9132 189.661Z" fill="white"/>
<path d="M87.1629 166.207C72.2361 170.975 73.5443 184.075 75.6927 189.763H135.623C138.407 189.763 138.673 187.895 138.458 186.961L137.685 172.701C126.653 180.137 115.818 181.656 111.78 181.486C111.058 168.346 101.693 162.536 87.1629 166.207Z" fill="white"/>
<path d="M117.191 172.96C98.0011 149.657 78.5435 160.124 71.2134 168.27C60.6862 156.249 47.728 158.818 42.5649 161.605C19.646 144.693 9.60341 120.924 7.44696 111.154C-5.93147 45.511 40.1498 12.5794 64.8627 4.31893C122.39 -11.1006 160.865 18.4536 172.912 35.1581C213.419 94.1928 185.126 146.193 165.916 164.814C148.724 169.158 148.258 158.066 150.174 151.977L165.916 128.908C165.916 128.908 170.617 117.333 171.91 109.52C172.699 104.747 172.912 97.176 172.912 97.176H165.916C168.514 114.554 154.505 136.014 147.175 144.572C142.378 146.547 142.178 156.75 142.677 161.605C134.282 169.109 122.188 172.302 117.191 172.96Z" fill="white"/>
<path d="M20.4487 150.011L8.5764 133.781C5.37375 134.981 1.49135 140.195 0.431641 143.737C0.431641 148.511 2.36437 154.512 10.3714 155.466C16.777 156.23 19.7586 152.148 20.4487 150.011Z" fill="white"/>
<path d="M61.8232 131.405C57.9742 132.491 46.354 133.405 48.4551 123.019C50.9277 110.797 58.6266 96.9462 77.5961 94.2302C96.5655 91.5142 112.786 110.798 111.961 127.637C112.053 129.719 110.229 131.982 101.514 131.982C83.4861 131.982 97.207 131.349 100.414 131.982" stroke="#212121" stroke-width="5" stroke-linecap="round"/>
<path d="M104.261 111.613H80.0674C71.7284 112.519 56.9198 119.87 64.3976 142.032C66.8978 149.442 83.4639 153.593 89.6411 142.032V124.944" stroke="#212121" stroke-width="5" stroke-linecap="round"/>
<path d="M38.1057 29.9464C34.9426 27.6032 34.1741 30.0727 34.9414 32.0305C37.55 39.5336 45.4739 44.6683 49.2448 45.917C54.9787 47.8156 62.7829 47.0623 66.1073 45.6728L69.8792 43.7829L73.4913 41.5044C75.0212 39.9218 73.8562 37.3323 71.5733 38.1886C66.8936 40.8412 57.4618 40.2832 53.8321 39.7886C45.1955 37.3217 40.0236 32.0622 38.1057 29.9464Z" fill="#212121"/>
<path d="M122.498 29.9464C125.661 27.6032 126.429 30.0727 125.662 32.0305C123.053 39.5336 115.13 44.6683 111.359 45.917C105.625 47.8156 97.8207 47.0623 94.4963 45.6728L90.7243 43.7829L87.1123 41.5044C85.5823 39.9218 86.7473 37.3323 89.0302 38.1886C93.7099 40.8412 103.142 40.2832 106.771 39.7886C115.408 37.3217 120.58 32.0622 122.498 29.9464Z" fill="#212121"/>
<path d="M34.666 63.2109C40.4265 69.0757 55.5093 77.2863 69.7564 63.2109" stroke="#212121" stroke-width="5" stroke-linecap="round"/>
<path d="M90.8457 63.2109C96.6062 69.0757 111.689 77.2863 125.936 63.2109" stroke="#212121" stroke-width="5" stroke-linecap="round"/>
</svg>
