<svg width="149" height="189" viewBox="0 0 149 189" fill="none" xmlns="http://www.w3.org/2000/svg">
<path d="M92.9993 189C86.6641 189 81.9127 187.24 78.7451 183.721C75.5775 180.025 74.5217 174.834 75.5775 168.147L77.9532 153.365H21.9923C14.7772 153.365 9.40992 151.869 5.89036 148.877C2.54679 145.885 0.875 141.838 0.875 136.735C0.875 132.335 1.93087 128.376 4.0426 124.856C6.33031 121.161 9.23394 117.289 12.7535 113.242L98.8066 11.8785C102.502 7.65502 106.022 4.6634 109.365 2.90363C112.885 0.967875 117.284 0 122.564 0C128.195 0 132.506 2.02374 135.498 6.07123C138.666 9.94273 139.633 15.486 138.402 22.7011L122.828 121.161H132.858C137.962 121.161 141.833 122.304 144.473 124.592C147.112 126.704 148.432 129.784 148.432 133.831C148.432 139.814 146.936 144.566 143.945 148.085C140.953 151.605 135.85 153.365 128.635 153.365H118.076L115.436 169.466C114.557 175.802 112.269 180.641 108.573 183.985C104.878 187.328 99.6865 189 92.9993 189ZM82.9686 121.161L94.3191 49.3617H101.182L32.8149 131.191L34.1348 121.161H82.9686Z" fill="white"/>
</svg>
