<svg width="8" height="12" viewBox="0 0 8 12" fill="none" xmlns="http://www.w3.org/2000/svg">
<path d="M6.76309 5.54856L6.76319 5.54867C6.88287 5.66815 6.9505 5.83044 6.9505 6.00002C6.9505 6.1693 6.88318 6.33197 6.76288 6.45166M6.76309 5.54856L6.58656 6.27443M6.76309 5.54856L2.13779 0.936062L2.13774 0.93601C1.88845 0.687557 1.48492 0.688025 1.23614 0.937248L1.23609 0.937305C0.987334 1.18667 0.988053 1.59046 1.23733 1.83906L1.23733 1.83907L5.4098 6.00001M6.76309 5.54856L5.58682 5.82349M6.76288 6.45166L6.58656 6.27443M6.76288 6.45166L6.76309 6.45146L6.58656 6.27443M6.76288 6.45166L2.13777 11.0638L2.13772 11.0639C2.01335 11.1878 1.85014 11.25 1.68747 11.25C1.52434 11.25 1.36053 11.1874 1.23599 11.0627L1.23591 11.0626C0.987205 10.8132 0.987924 10.4096 1.23715 10.161L1.23718 10.1609L5.4098 6.00001M6.58656 6.27443L1.96124 10.8868C1.88554 10.9623 1.78658 11 1.68747 11C1.58812 11 1.48876 10.962 1.41292 10.886C1.26177 10.7345 1.26216 10.4891 1.41371 10.338L5.58682 6.17655L5.4098 6.00001M5.4098 6.00001L5.58682 5.82349M5.58682 5.82349L5.76385 6.00002L5.58682 5.82349Z" fill="white" stroke="white" stroke-width="0.5"/>
</svg>
