<svg width="41" height="37" viewBox="0 0 41 37" fill="none" xmlns="http://www.w3.org/2000/svg">
<path d="M1.9375 0.398438C1.00476 0.398438 0.25 1.13033 0.25 2.0348V24.9439C0.25 25.4936 0.530151 25.9794 0.958618 26.275C1.23218 26.4668 1.57166 26.5803 1.9375 26.5803H39.0625C39.9952 26.5803 40.75 25.8484 40.75 24.9439V2.0348C40.75 1.13033 39.9952 0.398438 39.0625 0.398438H1.9375Z" fill="white"/>
<path d="M18.7202 30.1742C18.7795 30.2717 18.8125 30.3867 18.8125 30.5082V30.8342C18.8125 31.1969 19.1157 31.4893 19.4882 31.4893H21.5118C21.7426 31.4893 21.9469 31.3775 22.0688 31.2081C22.1447 31.1026 22.1875 30.9732 22.1875 30.8342V30.5082C22.1875 30.1454 22.4907 29.853 22.8632 29.853H26.5743C26.8248 29.853 27.0457 29.9872 27.161 30.1854C27.217 30.2797 27.25 30.3899 27.25 30.5082V32.4705C27.25 32.7294 27.4049 32.9531 27.6323 33.0602C27.7213 33.1017 27.8202 33.1257 27.9257 33.1257H28.2618C28.5189 33.1257 28.7463 33.2663 28.8584 33.4741C28.9078 33.5652 28.9375 33.6706 28.9375 33.7809V35.7433C28.9375 36.106 28.6343 36.3984 28.2618 36.3984H12.7382C12.4877 36.3984 12.2668 36.2658 12.1515 36.0676C12.0955 35.9718 12.0625 35.8615 12.0625 35.7433V33.7809C12.0625 33.4181 12.3657 33.1257 12.7382 33.1257H13.0743C13.3018 33.1257 13.5061 33.0154 13.6281 32.8461C13.7039 32.7406 13.75 32.6112 13.75 32.4705V30.5082C13.75 30.1454 14.0532 29.853 14.4257 29.853H18.1368C18.384 29.853 18.6016 29.9808 18.7202 30.1742Z" fill="white"/>
</svg>
