<svg width="45" height="44" viewBox="0 0 45 44" fill="none" xmlns="http://www.w3.org/2000/svg">
<path fill-rule="evenodd" clip-rule="evenodd" d="M5.73242 0C2.971 0 0.732422 2.23858 0.732422 5V39C0.732422 41.7614 2.971 44 5.73242 44H39.7324C42.4938 44 44.7324 41.7614 44.7324 39V5C44.7324 2.23858 42.4938 0 39.7324 0H5.73242ZM25.6231 28.2414C25.7044 29.283 25.8228 30.8 22.8937 30.8C14.5162 30.8 9.53433 17.309 9.53433 14.9084C9.53433 13.8395 10.1899 13.2012 11.2877 13.2012H13.9948C15.2521 13.2012 15.6987 14.0284 15.9935 14.9213C17.045 18.2219 18.5322 20.8044 19.3682 21.7606C19.2893 20.4018 19.3257 19.4427 19.3536 18.7068C19.4016 17.4436 19.4246 16.838 18.7962 15.9972C17.6588 14.4789 18.7093 13.2 19.8071 13.2H24.0619C25.733 13.2 25.6943 14.7944 25.6528 16.5044C25.6508 16.5874 25.6488 16.6707 25.647 16.754C25.6272 17.6774 25.6019 18.92 25.6393 20.5474C26.8646 19.3987 28.4992 16.1533 29.0811 14.5751C29.4287 13.6869 30.1162 13.2 31.0226 13.2H33.7297C34.3776 13.2 34.8572 13.4147 35.1586 13.8395C35.3587 14.1234 35.5523 14.6256 35.3411 15.4L35.3389 15.4094C34.9485 17.106 32.2953 21.3465 31.6001 22.3262H31.6023C31.5748 22.3731 31.522 22.4635 31.489 22.5315C31.5401 22.6176 31.7715 22.8741 32.1038 23.2426C33.1942 24.4516 35.3711 26.8655 35.8339 28.4158C36.0649 29.2559 35.8537 29.7956 35.6381 30.103C35.4148 30.421 34.9683 30.8 34.1103 30.8H31.4032C30.3127 30.8 29.775 30.1582 28.8278 29.0276C28.4975 28.6333 28.1174 28.1797 27.6467 27.6731C26.4675 26.4505 25.8967 26.1419 25.6547 26.0691C25.6372 26.3903 25.6414 26.9168 25.6457 27.4656L25.6459 27.4795C25.5772 27.6523 25.5984 27.9249 25.6231 28.2414Z" fill="#4C75A3"/>
</svg>
