<svg width="41" height="40" viewBox="0 0 41 40" fill="none" xmlns="http://www.w3.org/2000/svg">
<path id="Subtract" fill-rule="evenodd" clip-rule="evenodd" d="M5.5 0C2.73858 0 0.5 2.23858 0.5 5V35C0.5 37.7614 2.73858 40 5.5 40H35.5C38.2614 40 40.5 37.7614 40.5 35V5C40.5 2.23858 38.2614 0 35.5 0H5.5ZM10.5 20C10.5 14.4775 14.9775 10 20.5 10C26.0225 10 30.5 14.4775 30.5 20C30.5 25.5225 26.0225 30 20.5 30C18.7054 30 17.0245 29.5209 15.5684 28.693L10.5895 30L11.9258 25.1253C11.027 23.6251 10.5 21.876 10.5 20ZM17.1281 15.3353C17.1111 15.3353 17.0941 15.3353 17.0771 15.3353C16.9105 15.3353 16.643 15.3962 16.4147 15.6445C16.3991 15.6619 16.3814 15.6809 16.3621 15.7017C16.1043 15.9793 15.5505 16.576 15.5505 17.7116C15.5505 18.9283 16.4354 20.1077 16.5596 20.2702C16.5688 20.2826 16.5861 20.3083 16.6113 20.3457C16.9252 20.8118 18.4603 23.0917 20.793 24.0104C22.6835 24.7547 23.2129 24.6919 23.6355 24.6417C23.6799 24.6364 23.7231 24.6313 23.7666 24.6273C24.2199 24.5881 25.2307 24.0296 25.4365 23.4521C25.6424 22.8738 25.6423 22.3779 25.5781 22.2738C25.5279 22.1927 25.4127 22.137 25.2404 22.0538C25.1985 22.0335 25.1531 22.0116 25.1045 21.9873C24.8562 21.8631 23.6385 21.2633 23.4102 21.1816C23.1852 21.1 23.0193 21.057 22.8568 21.3053C22.6901 21.5537 22.2181 22.1113 22.0706 22.2738C21.9273 22.4404 21.7835 22.4598 21.5352 22.3356C21.4944 22.3153 21.439 22.2913 21.3705 22.2616C21.0212 22.1106 20.3337 21.8132 19.543 21.1068C18.8071 20.4518 18.3093 19.6404 18.166 19.3929C18.0227 19.1454 18.1509 19.0093 18.2751 18.8851C18.3504 18.8125 18.4363 18.7087 18.5222 18.605C18.5645 18.5538 18.6068 18.5027 18.6478 18.4554C18.7537 18.3252 18.7992 18.2313 18.8646 18.0964C18.8733 18.0785 18.8824 18.0599 18.8919 18.0404C18.9778 17.8779 18.9341 17.7316 18.8724 17.6074C18.8469 17.5561 18.7498 17.3166 18.629 17.0188C18.4576 16.5963 18.2386 16.0563 18.109 15.7699C17.9232 15.359 17.7291 15.346 17.5508 15.3418C17.4216 15.3351 17.2742 15.3352 17.1281 15.3353Z" fill="#4FCE5D"/>
</svg>
