<svg width="30" height="30" viewBox="0 0 30 30" fill="none" xmlns="http://www.w3.org/2000/svg">
<path fill-rule="evenodd" clip-rule="evenodd" d="M5 0C2.23858 0 0 2.23858 0 5V25C0 27.7614 2.23858 30 5 30H25C27.7614 30 30 27.7614 30 25V5C30 2.23858 27.7614 0 25 0H5ZM7.5 15C7.5 10.8581 10.8581 7.5 15 7.5C19.1419 7.5 22.5 10.8581 22.5 15C22.5 19.1419 19.1419 22.5 15 22.5C13.6541 22.5 12.3933 22.1407 11.3013 21.5198L7.56714 22.5L8.56934 18.844C7.89521 17.7188 7.5 16.407 7.5 15ZM12.4711 11.5014C12.4583 11.5015 12.4456 11.5015 12.4329 11.5015C12.3079 11.5015 12.1073 11.5471 11.936 11.7334C11.9243 11.7464 11.9111 11.7607 11.8966 11.7763C11.7032 11.9845 11.2878 12.432 11.2878 13.2837C11.2878 14.1962 11.9516 15.0808 12.0447 15.2026C12.0516 15.2119 12.0646 15.2312 12.0835 15.2593C12.3189 15.6089 13.4702 17.3188 15.2197 18.0078C16.6377 18.566 17.0347 18.5189 17.3516 18.4813C17.3849 18.4773 17.4173 18.4735 17.45 18.4705C17.79 18.4411 18.548 18.0222 18.7024 17.5891C18.8568 17.1554 18.8567 16.7834 18.8086 16.7053C18.7709 16.6445 18.6845 16.6028 18.5553 16.5403C18.5238 16.5251 18.4898 16.5087 18.4534 16.4905C18.2671 16.3974 17.3539 15.9475 17.1826 15.8862C17.0139 15.825 16.8895 15.7928 16.7676 15.979C16.6426 16.1653 16.2886 16.5834 16.178 16.7053C16.0705 16.8303 15.9626 16.8448 15.7764 16.7517C15.7458 16.7364 15.7042 16.7184 15.6529 16.6962C15.3909 16.5829 14.8753 16.3599 14.2822 15.8301C13.7304 15.3388 13.357 14.7303 13.2495 14.5447C13.142 14.3591 13.2382 14.2569 13.3313 14.1638C13.3878 14.1094 13.4523 14.0315 13.5166 13.9537C13.5484 13.9154 13.5801 13.877 13.6108 13.8416C13.6903 13.7439 13.7244 13.6735 13.7735 13.5723C13.78 13.5589 13.7868 13.5449 13.7939 13.5303C13.8583 13.4084 13.8255 13.2987 13.7793 13.2056C13.7602 13.1671 13.6873 12.9875 13.5967 12.7641C13.4682 12.4472 13.3039 12.0422 13.2068 11.8274C13.0674 11.5193 12.9218 11.5095 12.7881 11.5063C12.6912 11.5013 12.5807 11.5014 12.4711 11.5014Z" fill="#4FCE5D"/>
</svg>
