<svg width="37" height="37" viewBox="0 0 37 37" fill="none" xmlns="http://www.w3.org/2000/svg">
<path d="M9.96364 15.6633C17.6953 14.9397 19.9053 16.423 20.0309 17.287V1.96365C20.0309 1.09921 19.3301 0.398438 18.4657 0.398438H9.87602C9.4438 0.398438 9.09341 0.748822 9.09341 1.18104V14.879C9.09341 15.3448 9.49982 15.7067 9.96364 15.6633Z" fill="white"/>
<path d="M31.6602 15.6633C23.9285 14.9397 21.7185 16.423 21.5929 17.287V1.96365C21.5929 1.09921 22.2937 0.398438 23.1581 0.398438H31.7478C32.18 0.398438 32.5304 0.748822 32.5304 1.18104V14.879C32.5304 15.3448 32.124 15.7067 31.6602 15.6633Z" fill="white"/>
<path d="M0.5 24.7898V34.7693C0.890625 35.1532 1.82812 35.6137 2.45312 34.3855C3.49479 33.234 6.75 31.4684 11.4375 33.6178C12.3018 34.0142 13.0641 34.3938 13.7558 34.7383C17.7531 36.7288 19.3907 37.5443 24.7187 33.6178L36.4375 24.7898C36.6979 23.5104 36.2812 21.1818 32.5312 22.103L24.805 26.8024C24.5196 26.976 24.3802 27.311 24.4223 27.6423C24.6563 29.484 24.2049 32.1479 20.8125 31.3146L13.4166 29.4978C13.1571 29.434 12.9371 29.2433 12.9031 28.9783C12.8067 28.2271 13.1255 27.347 14.9531 27.8601L20.8125 30.1631C22.375 30.7208 24.7187 28.4179 21.5937 26.4987L17.2969 24.0218L13.3906 22.4865C10.2656 21.7189 6.75 21.7194 0.5 24.7898Z" fill="white"/>
</svg>
