<svg width="16" height="16" viewBox="0 0 16 16" fill="none" xmlns="http://www.w3.org/2000/svg">
<path d="M4.20606 6.78439C7.64234 6.4628 8.62457 7.12201 8.6804 7.50602V0.695652C8.6804 0.311454 8.36895 0 7.98475 0H4.16712C3.97502 0 3.81929 0.155726 3.81929 0.347825V6.43579C3.81929 6.64283 3.99992 6.80369 4.20606 6.78439Z" fill="white"/>
<path d="M13.849 6.78439C10.4127 6.4628 9.43045 7.12201 9.37463 7.50602V0.695652C9.37463 0.311454 9.68608 0 10.0703 0H13.8879C14.08 0 14.2357 0.155726 14.2357 0.347825V6.43579C14.2357 6.64283 14.0551 6.80369 13.849 6.78439Z" fill="white"/>
<path d="M0 10.8406V15.276C0.173611 15.4465 0.590277 15.6512 0.868055 15.1054C1.33102 14.5936 2.77778 13.8089 4.86111 14.7642C5.24525 14.9403 5.58407 15.1091 5.89148 15.2621C7.66804 16.1468 8.39586 16.5093 10.7639 14.7642L15.9722 10.8406C16.088 10.272 15.9028 9.23706 14.2361 9.64648L10.8022 11.7351C10.6754 11.8122 10.6134 11.9611 10.6321 12.1084C10.7361 12.9269 10.5355 14.1109 9.02777 13.7405L5.74071 12.933C5.62537 12.9047 5.5276 12.82 5.51248 12.7021C5.46962 12.3683 5.61135 11.9772 6.42361 12.2052L9.02777 13.2287C9.72222 13.4766 10.7639 12.4531 9.375 11.6001L7.46527 10.4993L5.72916 9.81693C4.34028 9.47575 2.77778 9.476 0 10.8406Z" fill="white"/>
</svg>
