<svg width="10" height="10" viewBox="0 0 10 10" fill="none" xmlns="http://www.w3.org/2000/svg">
<g id="Combined shape 2112">
<path fill-rule="evenodd" clip-rule="evenodd" d="M1.71768 1.17001L1.17 1.7177L4.45321 5.00091L1.167 8.28712L1.71409 8.83421L5.0003 5.548L8.28326 8.83095L8.83094 8.28327L5.54799 5.00032L8.83418 1.71413L8.28709 1.16704L5.0009 4.45323L1.71768 1.17001Z" fill="white"/>
<path d="M1.17 1.7177L0.816446 1.36414C0.722678 1.45791 0.67 1.58509 0.67 1.7177C0.67 1.8503 0.722678 1.97748 0.816446 2.07125L1.17 1.7177ZM1.71768 1.17001L2.07124 0.816458C1.87598 0.621196 1.55939 0.621195 1.36413 0.816458L1.71768 1.17001ZM4.45321 5.00091L4.80677 5.35446C5.00203 5.1592 5.00203 4.84262 4.80677 4.64736L4.45321 5.00091ZM1.167 8.28712L0.813451 7.93357C0.618189 8.12883 0.618189 8.44541 0.813451 8.64067L1.167 8.28712ZM1.71409 8.83421L1.36054 9.18776C1.5558 9.38303 1.87238 9.38303 2.06765 9.18776L1.71409 8.83421ZM5.0003 5.548L5.35386 5.19445C5.15859 4.99918 4.84201 4.99918 4.64675 5.19445L5.0003 5.548ZM8.28326 8.83095L7.9297 9.18451C8.12497 9.37977 8.44155 9.37977 8.63681 9.18451L8.28326 8.83095ZM8.83094 8.28327L9.1845 8.63682C9.27826 8.54305 9.33094 8.41588 9.33094 8.28327C9.33094 8.15066 9.27826 8.02348 9.1845 7.92972L8.83094 8.28327ZM5.54799 5.00032L5.19443 4.64676C5.10067 4.74053 5.04799 4.86771 5.04799 5.00032C5.04799 5.13292 5.10067 5.2601 5.19443 5.35387L5.54799 5.00032ZM8.83418 1.71413L9.18773 2.06768C9.38299 1.87242 9.38299 1.55584 9.18773 1.36057L8.83418 1.71413ZM8.28709 1.16704L8.64064 0.813485C8.44538 0.618222 8.1288 0.618223 7.93353 0.813485L8.28709 1.16704ZM5.0009 4.45323L4.64735 4.80678C4.84261 5.00204 5.15919 5.00204 5.35445 4.80678L5.0009 4.45323ZM1.52355 2.07125L2.07124 1.52356L1.36413 0.816458L0.816446 1.36414L1.52355 2.07125ZM4.80677 4.64736L1.52355 1.36414L0.816446 2.07125L4.09966 5.35446L4.80677 4.64736ZM1.52056 8.64067L4.80677 5.35446L4.09966 4.64736L0.813451 7.93357L1.52056 8.64067ZM2.06765 8.48066L1.52056 7.93357L0.813451 8.64067L1.36054 9.18776L2.06765 8.48066ZM4.64675 5.19445L1.36054 8.48066L2.06765 9.18776L5.35386 5.90155L4.64675 5.19445ZM8.63681 8.4774L5.35386 5.19445L4.64675 5.90155L7.9297 9.18451L8.63681 8.4774ZM8.47739 7.92972L7.9297 8.4774L8.63681 9.18451L9.1845 8.63682L8.47739 7.92972ZM5.19443 5.35387L8.47739 8.63682L9.1845 7.92972L5.90154 4.64676L5.19443 5.35387ZM8.48062 1.36057L5.19443 4.64676L5.90154 5.35387L9.18773 2.06768L8.48062 1.36057ZM7.93353 1.52059L8.48062 2.06768L9.18773 1.36057L8.64064 0.813485L7.93353 1.52059ZM5.35445 4.80678L8.64064 1.52059L7.93353 0.813485L4.64735 4.09967L5.35445 4.80678ZM1.36413 1.52356L4.64735 4.80678L5.35445 4.09967L2.07124 0.816458L1.36413 1.52356Z" fill="#242538"/>
</g>
</svg>
