<svg width="16" height="16" viewBox="0 0 16 16" fill="none" xmlns="http://www.w3.org/2000/svg">
<path d="M1.75412 0.32904C1.70724 0.282156 1.64365 0.255817 1.57735 0.255817C1.51104 0.255817 1.44745 0.282156 1.40057 0.32904L0.329084 1.40053C0.2822 1.44741 0.25586 1.511 0.25586 1.5773C0.25586 1.64361 0.2822 1.7072 0.329084 1.75408L6.57556 8.00056L0.323223 14.2529C0.276339 14.2998 0.25 14.3634 0.25 14.4297C0.25 14.496 0.276339 14.5596 0.323223 14.6065L1.39354 15.6768C1.49117 15.7744 1.64947 15.7744 1.7471 15.6768L7.99944 9.42443L14.2454 15.6704C14.343 15.768 14.5013 15.768 14.599 15.6704L15.6704 14.5989C15.7681 14.5013 15.7681 14.343 15.6704 14.2454L9.42448 7.9994L15.6768 1.7471C15.7744 1.64947 15.7744 1.49117 15.6768 1.39354L14.6065 0.323223C14.5596 0.276339 14.496 0.25 14.4297 0.25C14.3634 0.25 14.2998 0.276339 14.2529 0.323223L8.0006 6.57552L1.75412 0.32904Z" fill="white" stroke="white" stroke-width="0.5" stroke-linejoin="round"/>
</svg>
