<svg width="332" height="363" viewBox="0 0 332 363" fill="none" xmlns="http://www.w3.org/2000/svg">
<path d="M177.077 362.499C262.639 362.499 332 352.529 332 340.232C332 327.934 262.639 317.965 177.077 317.965C91.5156 317.965 22.1543 327.934 22.1543 340.232C22.1543 352.529 91.5156 362.499 177.077 362.499Z" fill="#515151"/>
<path d="M260.271 262.215C247.712 274.192 224.954 294.603 208.096 301.603C203.461 303.543 200.426 308.267 200.932 313.243C203.545 339.558 244.762 366.97 287.244 334.16C312.699 314.508 305.534 282.204 292.217 264.576C284.462 254.371 269.459 253.359 260.271 262.215Z" fill="#FFCD00"/>
<path d="M260.945 34.147C260.945 34.147 211.636 2.43357 160.725 0.578001C109.731 -1.19323 60.5901 27.3151 37.9164 74.4635C15.2427 121.612 48.0311 171.375 47.6939 227.717C47.4411 284.059 77.9536 329.858 138.894 324.038C199.835 318.218 201.943 276.974 256.815 240.875C311.687 204.775 371.195 112.334 260.945 34.147Z" fill="#FFCD00"/>
<path opacity="0.7" d="M260.945 34.147C260.945 34.147 211.636 2.43357 160.725 0.578001C109.731 -1.19323 60.5901 27.3151 37.9164 74.4635C15.2427 121.612 48.0311 171.375 47.6939 227.717C47.4411 284.059 77.9536 329.858 138.894 324.038C199.835 318.218 201.943 276.974 256.815 240.875C311.687 204.775 371.195 112.334 260.945 34.147Z" fill="#FFCD00"/>
<path d="M91.4397 42.5787C91.4397 42.5787 41.8778 67.8819 17.0969 106.849C-7.684 145.816 -5.74536 195.916 24.3458 233.112C54.4369 270.308 111.838 265.5 159.966 289.032C208.095 312.564 261.113 307.757 283.871 257.825C306.629 207.893 272.239 189.253 266.423 131.393C260.607 73.533 208.601 -10.9799 91.4397 42.5787Z" fill="white"/>
<path opacity="0.7" d="M91.4397 42.5787C91.4397 42.5787 41.8778 67.8819 17.0969 106.849C-7.684 145.816 -5.74536 195.916 24.3458 233.112C54.4369 270.308 111.838 265.5 159.966 289.032C208.095 312.564 261.113 307.757 283.871 257.825C306.629 207.893 272.239 189.253 266.423 131.393C260.607 73.533 208.601 -10.9799 91.4397 42.5787Z" fill="white"/>
<path d="M62.8658 243.404C64.8044 242.729 68.3446 239.524 68.3446 239.524C68.3446 239.524 65.563 237.837 65.3102 237.837C63.1187 236.91 58.3142 236.403 56.5441 238.512C55.4484 239.862 55.7012 241.886 57.0499 242.982C57.1341 243.067 57.2184 243.151 57.3027 243.151C58.8199 244.247 61.18 243.994 62.8658 243.404Z" fill="#9C9C9C"/>
<path d="M99.1115 212.625C99.1958 212.625 97.6786 209.673 97.5101 209.504C96.2457 207.564 92.4527 204.443 89.8398 205.203C88.154 205.709 87.2268 207.48 87.7326 209.251C87.7326 209.335 87.8168 209.504 87.9011 209.504C88.5754 211.275 90.6827 212.372 92.3684 212.794C94.4757 213.3 99.1115 212.625 99.1115 212.625Z" fill="#9C9C9C"/>
<path d="M73.15 252.516C74.8358 251.419 77.1959 247.708 77.3645 247.455C79.4717 248.805 81.6632 249.985 83.939 250.998C85.2033 251.672 86.5519 252.178 87.9848 252.769C87.3105 252.6 86.8048 252.516 86.7205 252.516C84.3604 252.263 79.556 253.022 78.4602 255.468C77.7859 257.07 78.4602 259.01 80.146 259.601C80.3146 259.685 80.3989 259.685 80.4831 259.769C82.2532 260.444 84.4447 259.516 85.9619 258.589C87.4791 257.576 89.5021 254.456 90.0078 253.612L91.6093 254.287C94.1379 255.299 96.5823 256.227 99.111 257.323C99.9539 257.661 100.797 258.082 101.64 258.504C101.05 258.336 100.544 258.251 100.46 258.251C98.0995 257.998 93.295 258.757 92.1993 261.203C91.525 262.806 92.1993 264.746 93.8851 265.336C94.0536 265.42 94.1379 265.42 94.2222 265.505C95.9923 266.18 98.1838 265.252 99.701 264.324C101.218 263.312 103.073 260.528 103.747 259.516C104.59 259.938 105.433 260.36 106.276 260.781C106.866 261.035 107.371 261.372 107.877 261.709L109.478 262.721C110.406 263.396 111.417 264.071 112.344 264.83C113.019 265.336 113.609 265.758 114.199 266.18C113.356 265.842 111.67 265.083 111.501 264.999C109.226 264.324 104.337 264.324 102.82 266.686C101.893 268.204 102.314 270.144 103.747 271.071C103.831 271.156 104 271.24 104 271.24C105.686 272.168 107.961 271.662 109.563 270.903C111.333 270.144 114.114 266.854 114.452 266.517C115.463 267.276 116.474 268.035 117.402 268.71C120.015 270.818 122.29 272.758 123.976 274.192L125.241 273.011C123.47 271.493 121.195 269.553 118.329 267.529C117.317 266.77 116.222 265.926 115.042 265.083C115.632 263.902 116.222 262.637 116.643 261.372C118.666 261.625 122.459 260.528 122.965 260.36C123.386 261.541 123.808 262.721 124.145 263.902C125.156 267.023 125.999 269.806 126.589 271.999L128.022 270.734C127.348 268.71 126.673 266.264 125.662 263.396C125.241 262.215 124.735 260.866 124.229 259.516C124.65 259.263 128.275 257.155 129.455 255.468C130.551 254.034 131.394 251.925 130.888 249.985C130.382 248.299 128.696 247.286 126.926 247.792C126.842 247.792 126.673 247.877 126.673 247.877C124.229 248.973 123.218 253.697 123.47 256.058C123.47 256.227 123.808 257.745 124.06 258.673C123.808 258.082 123.639 257.576 123.386 256.986C122.965 255.89 122.459 254.877 122.038 253.612C121.785 253.022 121.532 252.431 121.279 251.925C121.026 251.419 120.689 250.745 120.436 250.238C119.762 248.973 118.919 247.624 118.16 246.274C119.087 245.937 122.543 244.503 123.723 243.154C124.903 241.888 126.252 239.864 125.915 238.009C125.662 236.322 124.145 234.972 122.375 235.225C122.206 235.225 122.122 235.225 122.038 235.31C119.425 235.984 117.739 240.539 117.57 242.901C117.57 243.069 117.655 244.756 117.739 245.684C117.233 244.925 116.727 244.081 116.222 243.407C114.704 241.214 113.103 239.021 111.501 236.828C110.996 236.153 110.49 235.478 110.069 234.803C110.406 234.635 114.452 233.117 115.884 231.683C117.064 230.418 118.413 228.393 118.076 226.538C117.823 224.851 116.306 223.501 114.536 223.754C114.367 223.754 114.283 223.754 114.199 223.839C111.586 224.514 109.9 229.068 109.731 231.43C109.731 231.683 109.9 234.044 109.984 234.719C108.888 233.201 107.877 231.683 106.866 230.249C105.601 228.225 104.337 226.116 103.325 223.923C103.494 223.839 107.708 222.236 109.226 220.802C110.406 219.537 111.754 217.513 111.417 215.657C111.164 213.97 109.647 212.621 107.877 212.874C107.708 212.874 107.624 212.874 107.54 212.958C104.927 213.633 103.241 218.188 103.073 220.549C103.073 220.718 103.157 222.658 103.241 223.501L103.073 223.586C102.061 221.393 101.302 219.115 100.712 216.754C100.375 215.489 100.122 214.139 99.9539 212.958C100.712 212.705 104.505 211.693 105.938 210.512C107.371 209.332 108.804 207.56 108.72 205.62C108.72 203.849 107.287 202.5 105.517 202.5C105.348 202.5 105.264 202.5 105.18 202.5C102.567 202.837 100.291 207.223 99.9539 209.585C99.9539 209.753 99.8696 211.018 99.7853 212.031C99.701 211.44 99.5324 210.85 99.5324 210.344C99.2796 208.319 99.111 206.464 99.0267 204.861C98.9424 203.934 98.9424 203.09 98.9424 202.247C99.6167 201.572 102.398 198.957 103.073 197.27C103.747 195.583 104.253 193.306 103.325 191.704C102.567 190.101 100.628 189.595 99.0267 190.354C98.9424 190.438 98.7738 190.523 98.7738 190.523C96.5823 192.125 96.6666 196.933 97.3409 199.21C97.4252 199.463 98.6895 202.331 98.7738 202.331L98.8581 202.247C98.8581 203.006 98.8581 203.849 98.9424 204.777C99.0267 206.464 99.111 208.319 99.3638 210.259C99.6167 212.368 99.9539 214.645 100.46 216.754C100.965 219.2 101.724 221.477 102.651 223.754L102.735 223.839C102.23 223.248 100.712 221.646 100.628 221.561C98.8581 219.959 94.3908 218.019 92.115 219.453C90.5978 220.381 90.1764 222.405 91.1878 223.839C91.2721 223.923 91.3564 224.092 91.4407 224.092C92.6207 225.61 94.8965 226.116 96.6666 226.116C98.6895 226.116 102.651 224.345 102.988 224.176C104 226.453 105.18 228.646 106.528 230.839C107.287 232.02 108.13 233.285 108.888 234.55C108.467 234.044 108.046 233.623 107.961 233.538C106.191 231.936 101.724 229.996 99.4481 231.43C97.9309 232.358 97.5095 234.382 98.521 235.816C98.6052 235.9 98.6895 236.069 98.7738 236.069C99.9539 237.587 102.23 238.093 104 238.093C105.77 238.093 109.226 236.659 110.153 236.237C110.406 236.659 110.827 237.165 111.08 237.671C112.681 239.864 114.199 242.141 115.632 244.334C116.137 245.093 116.643 245.937 117.149 246.696C116.727 246.274 116.39 245.937 116.39 245.853C114.62 244.25 110.153 242.31 107.877 243.744C106.36 244.672 105.938 246.696 106.95 248.13C107.034 248.214 107.118 248.383 107.203 248.383C108.383 249.901 110.659 250.407 112.429 250.407C114.199 250.407 117.402 249.142 118.413 248.636C118.919 249.395 119.34 250.323 119.762 251.082C120.015 251.672 120.352 252.178 120.52 252.769C120.689 253.359 121.026 253.95 121.195 254.456C121.616 255.552 122.038 256.649 122.459 257.745C122.712 258.42 123.049 259.179 123.218 259.938C122.712 259.179 121.7 257.661 121.532 257.492C120.099 255.89 118.329 254.793 116.306 254.118C116.137 253.865 116.053 253.781 115.8 253.612C114.536 252.431 112.513 252.6 111.333 253.865C111.249 253.95 111.164 254.034 111.08 254.118C109.563 256.311 111.333 260.866 112.85 262.721C112.934 262.89 114.03 263.902 114.704 264.577L113.187 263.649C112.26 262.974 111.249 262.384 110.153 261.625L108.551 260.613C108.046 260.275 107.371 259.938 106.866 259.685C105.601 259.01 104.253 258.336 102.82 257.745C103.41 256.902 105.433 253.865 105.854 252.094C106.191 250.323 106.107 248.046 104.843 246.612C103.663 245.262 101.724 245.093 100.375 246.274C100.291 246.359 100.207 246.443 100.122 246.527C98.3524 248.467 99.4481 253.275 100.628 255.299C100.712 255.468 101.724 256.817 102.314 257.576C101.471 257.239 100.628 256.902 99.7853 256.48C97.2566 255.468 94.8122 254.54 92.1993 253.612C91.4407 253.359 90.5978 253.022 89.9235 252.769C90.1764 252.516 92.6207 248.889 93.0422 246.949C93.3793 245.178 93.295 242.901 92.0307 241.467C90.8507 240.117 88.912 239.948 87.5634 241.129C87.4791 241.214 87.3948 241.298 87.3105 241.382C85.5405 243.322 86.6362 248.13 87.8163 250.154C87.9006 250.323 89.4178 252.263 89.7549 252.769C88.0691 252.094 86.3834 251.504 84.7819 250.745C82.5904 249.817 80.3989 248.636 78.3759 247.455C78.4602 247.286 81.0732 243.575 81.4946 241.551C81.8318 239.78 81.7475 237.503 80.4831 236.069C79.3031 234.719 77.3645 234.55 76.0158 235.731C75.9315 235.816 75.8473 235.9 75.763 235.984C73.9929 237.924 75.0887 242.732 76.2687 244.756C76.353 244.925 77.4488 246.443 78.0388 247.118L77.9545 247.286C75.8473 246.021 73.9086 244.503 72.1386 242.816C71.1271 241.888 70.1999 241.045 69.357 240.117C69.947 239.442 72.4757 236.575 72.9814 234.719C73.5715 232.948 73.6557 230.671 72.6443 229.152C71.6328 227.719 69.6942 227.297 68.177 228.309C68.0927 228.393 68.0084 228.478 67.9241 228.562C65.9012 230.333 66.4912 235.141 67.4184 237.334C67.5027 237.503 68.0927 238.599 68.5984 239.442C68.2613 239.021 67.8398 238.599 67.4184 238.262C66.154 236.743 64.8897 235.225 63.8782 233.96C63.2882 233.201 62.7825 232.526 62.361 231.851C62.6139 230.924 63.4568 227.213 63.1196 225.441C62.8668 223.67 61.9396 221.477 60.1695 220.634C58.6523 219.79 56.7137 220.381 55.8708 221.814C55.7865 221.899 55.7865 222.068 55.7022 222.068C54.7751 224.598 57.4723 228.562 59.3267 230.08C59.4952 230.249 62.2768 231.936 62.2768 231.936V231.851C62.6982 232.526 63.1197 233.117 63.7097 233.96C64.7211 235.225 65.8169 236.828 67.0812 238.346C68.5141 240.033 70.0313 241.635 71.5485 243.154C73.3186 244.84 75.2572 246.359 77.2802 247.708L77.3645 247.792C76.6059 247.539 74.4986 247.118 74.2458 247.033C71.8857 246.78 67.0812 247.539 65.9855 249.985C65.3112 251.588 65.9855 253.528 67.6712 254.118C67.8398 254.203 67.9241 254.203 68.0084 254.287C69.4413 254.371 71.6328 253.528 73.15 252.516Z" fill="#9C9C9C"/>
<path d="M195.623 86.3598C197.056 88.7214 202.029 92.1795 202.029 92.1795C202.029 92.1795 203.293 88.131 203.293 87.878C203.883 84.7573 203.04 78.6001 200.006 76.9132C197.899 75.9011 195.539 76.7446 194.527 78.7688C194.443 78.9375 194.359 79.0219 194.359 79.1905C193.516 81.4678 194.443 84.3355 195.623 86.3598Z" fill="#9C9C9C"/>
<path d="M245.184 123.38C245.184 123.464 248.471 120.765 248.639 120.512C250.747 118.235 253.612 112.668 251.927 109.547C250.747 107.607 248.302 106.933 246.279 108.029C246.111 108.113 246.026 108.198 245.942 108.282C243.919 109.632 243.161 112.584 242.992 114.945C242.823 117.729 245.184 123.38 245.184 123.38Z" fill="#9C9C9C"/>
<path d="M187.109 101.961C188.963 103.732 194.357 105.672 194.779 105.841C193.683 108.962 192.84 112.082 192.166 115.203C191.744 117.059 191.492 118.914 191.07 120.77C191.07 119.926 191.07 119.083 191.07 118.999C190.817 115.878 188.457 110.142 185.001 109.299C182.81 108.877 180.618 110.311 180.197 112.588C180.197 112.757 180.113 112.841 180.113 113.01C179.86 115.456 181.545 117.986 183.231 119.589C184.917 121.192 189.469 122.963 190.649 123.384C190.48 124.059 190.396 124.818 190.311 125.493C189.721 129.036 189.216 132.409 188.626 135.783C188.373 136.964 188.12 138.145 187.951 139.326C187.951 138.566 187.951 137.892 187.951 137.723C187.699 134.602 185.338 128.867 181.883 128.023C179.691 127.602 177.5 129.036 177.078 131.313C177.078 131.482 176.994 131.566 176.994 131.735C176.741 134.181 178.343 136.711 180.113 138.313C181.798 140 185.928 141.434 187.361 141.94C187.109 143.121 186.771 144.302 186.434 145.483C186.181 146.242 186.013 147.001 185.76 147.76L184.917 150.037C184.327 151.471 183.737 152.905 183.231 154.254C182.81 155.182 182.473 156.11 182.051 157.038C182.304 155.857 182.725 153.495 182.725 153.327C182.978 150.206 181.461 144.049 178.258 142.868C176.151 142.109 173.791 143.205 172.948 145.398C172.864 145.567 172.864 145.651 172.779 145.82C172.105 148.182 173.454 150.881 174.887 152.736C176.488 154.761 181.293 157.375 181.798 157.713C181.124 159.231 180.45 160.665 179.775 162.014C177.837 166.063 176.151 169.352 174.802 171.882L176.657 173.232C178.005 170.617 179.775 167.075 181.63 162.858C182.304 161.339 183.063 159.737 183.737 157.966C185.423 158.387 187.193 158.64 188.879 158.893C189.216 161.508 191.576 165.978 191.997 166.569C190.649 167.412 189.216 168.256 187.951 169.099C184.243 171.292 181.04 173.148 178.427 174.497L180.534 176.015C182.894 174.666 185.844 172.895 189.047 170.955C190.48 170.111 191.997 169.099 193.514 168.087C193.936 168.593 197.645 172.557 200.089 173.569C202.196 174.497 205.146 175.003 207.338 173.822C209.361 172.726 210.119 170.28 209.024 168.256C208.939 168.087 208.855 168.003 208.771 167.918C206.664 165.135 200.51 165.219 197.476 166.231C197.307 166.316 195.453 167.075 194.357 167.665C195.032 167.243 195.537 166.822 196.212 166.4C197.476 165.557 198.74 164.629 200.089 163.701L202.028 162.183C202.702 161.677 203.292 161.086 203.966 160.58C205.399 159.315 206.832 157.966 208.265 156.532C209.024 157.628 211.805 161.508 213.744 162.773C215.767 163.954 218.633 164.966 220.908 164.038C223.016 163.279 224.196 160.918 223.437 158.809C223.353 158.64 223.353 158.556 223.268 158.387C221.667 155.267 215.43 154.423 212.395 154.929C212.142 154.929 210.035 155.604 208.855 155.941C209.698 155.098 210.541 154.254 211.384 153.327C213.744 150.712 216.02 148.097 218.295 145.483C218.97 144.724 219.728 143.796 220.403 143.037C220.655 143.374 223.858 148.097 226.05 149.447C227.989 150.628 230.939 151.64 233.215 150.712C235.322 149.953 236.502 147.591 235.743 145.483C235.659 145.314 235.659 145.23 235.575 145.061C233.973 141.94 227.736 141.097 224.701 141.603C224.448 141.603 221.33 142.531 220.571 142.784C222.173 141.012 223.69 139.241 225.376 137.639C227.567 135.446 229.843 133.253 232.287 131.313C232.456 131.566 235.743 136.373 237.935 137.807C239.873 138.988 242.823 140 245.099 139.072C247.206 138.313 248.387 135.952 247.628 133.843C247.544 133.674 247.544 133.59 247.459 133.421C245.858 130.301 239.62 129.457 236.586 129.963C236.333 129.963 233.973 130.638 232.877 131.06L232.793 130.891C235.322 128.951 238.019 127.349 240.801 125.915C242.402 125.156 243.919 124.397 245.352 123.806C245.858 124.818 248.302 129.289 250.241 130.638C252.18 132.072 254.792 133.337 257.153 132.747C259.344 132.241 260.693 130.048 260.271 127.77C260.271 127.602 260.187 127.517 260.103 127.349C258.923 124.059 252.77 122.541 249.651 122.794C249.482 122.794 247.796 123.047 246.532 123.3C247.206 123.047 247.881 122.71 248.555 122.541C250.999 121.613 253.36 120.854 255.382 120.348C256.563 120.011 257.574 119.673 258.585 119.505C259.597 120.179 263.643 122.963 266.003 123.384C268.363 123.806 271.313 123.637 273.083 122.035C274.769 120.517 275.022 117.986 273.505 116.215C273.42 116.047 273.252 115.962 273.252 115.962C270.639 113.685 264.486 115.119 261.873 116.637C261.62 116.806 258.333 119.336 258.333 119.336L258.417 119.42C257.49 119.673 256.394 119.926 255.298 120.179C253.191 120.77 250.915 121.36 248.471 122.288C245.774 123.216 243.161 124.312 240.632 125.577C237.766 126.927 234.985 128.614 232.372 130.469L232.287 130.554C232.877 129.795 234.479 127.433 234.647 127.18C236.08 124.481 237.345 118.324 234.9 115.793C233.215 114.191 230.686 114.191 229 115.878C228.916 115.962 228.747 116.131 228.747 116.131C227.146 117.986 227.146 121.107 227.651 123.3C228.241 125.915 231.697 130.385 231.95 130.722C229.337 132.662 226.893 134.771 224.617 137.133C223.268 138.398 222.004 139.832 220.571 141.181C221.077 140.506 221.498 139.832 221.583 139.663C223.016 136.964 224.28 130.807 221.836 128.276C220.15 126.674 217.621 126.674 216.02 128.361C215.935 128.529 215.767 128.614 215.767 128.698C214.165 130.554 214.165 133.59 214.671 135.867C215.177 138.145 218.043 142.109 218.801 143.121L217.284 144.808C214.924 147.423 212.564 150.037 210.204 152.483C209.361 153.327 208.518 154.17 207.591 155.098C208.012 154.423 208.349 153.917 208.434 153.833C209.867 151.134 211.131 144.977 208.686 142.446C207.001 140.844 204.472 140.844 202.786 142.531C202.702 142.615 202.533 142.784 202.533 142.868C200.932 144.724 200.932 147.844 201.438 150.037C201.943 152.315 204.556 155.941 205.483 157.122C204.556 157.966 203.713 158.809 202.786 159.568C202.112 160.074 201.606 160.58 200.932 161.086L198.993 162.52C197.729 163.364 196.38 164.291 195.2 165.135C194.357 165.725 193.514 166.231 192.587 166.822C193.43 165.978 195.116 164.207 195.2 164.123C196.802 161.93 197.729 159.231 197.982 156.532C198.235 156.279 198.319 156.026 198.488 155.773C199.583 153.748 198.825 151.302 196.802 150.206C196.633 150.122 196.549 150.037 196.38 149.953C193.093 148.772 187.951 152.315 186.013 154.761C185.844 154.929 184.833 156.616 184.158 157.713C184.411 157.038 184.748 156.363 185.001 155.604C185.591 154.17 186.181 152.736 186.687 151.218C186.94 150.459 187.193 149.7 187.446 148.941C187.699 148.182 187.867 147.338 188.12 146.579C188.626 144.724 189.047 142.784 189.469 140.844C190.649 141.35 195.116 143.037 197.476 142.952C199.836 142.868 202.702 142.109 204.135 140.085C205.484 138.313 205.146 135.699 203.376 134.265C203.208 134.181 203.123 134.096 203.039 134.012C200.005 132.325 194.357 135.024 192.082 137.133C191.913 137.301 190.396 138.988 189.721 139.916C189.974 138.735 190.143 137.554 190.396 136.373C190.986 132.915 191.407 129.457 191.913 125.915C192.082 124.818 192.166 123.806 192.334 122.71C192.756 122.963 197.982 125.071 200.595 124.903C202.871 124.818 205.821 124.059 207.254 122.035C208.602 120.264 208.265 117.649 206.495 116.215C206.326 116.131 206.242 116.047 206.158 115.962C203.123 114.275 197.476 116.974 195.2 119.083C195.032 119.252 192.924 121.698 192.419 122.372C192.756 120.011 193.093 117.733 193.599 115.456C194.189 112.335 194.947 109.299 195.959 106.347C196.212 106.431 201.606 108.709 204.219 108.624C206.495 108.54 209.445 107.781 210.878 105.757C212.227 103.985 211.889 101.286 210.119 99.9368C209.951 99.8524 209.867 99.7681 209.782 99.6838C206.748 97.9969 201.1 100.696 198.825 102.804C198.656 102.973 197.055 104.829 196.296 105.757L196.127 105.672C197.223 102.636 198.488 99.7681 200.089 97.0691C200.932 95.5509 201.775 94.117 202.702 92.7675C203.713 93.2736 208.181 95.6352 210.541 95.8883C212.817 96.057 215.851 95.6352 217.453 93.7797C219.054 92.0928 218.97 89.4781 217.284 87.9599C217.115 87.8756 217.031 87.7069 216.947 87.7069C214.081 85.6826 208.181 87.7912 205.736 89.6468C205.568 89.7311 204.303 90.912 203.461 91.7554C203.882 91.165 204.303 90.5746 204.641 89.9842C206.158 87.8756 207.759 85.9357 209.108 84.3331C209.867 83.4053 210.625 82.6462 211.299 81.8028C212.479 81.8028 217.453 81.8871 219.644 80.9593C221.836 80.0316 224.196 78.3447 224.87 75.8987C225.544 73.7057 224.196 71.4285 222.004 70.838C221.836 70.7537 221.751 70.7537 221.583 70.7537C218.127 70.2476 213.828 74.8022 212.479 77.5856C212.311 77.8386 210.962 81.8028 211.047 81.8028H211.131C210.457 82.4775 209.698 83.321 209.024 84.1644C207.591 85.8513 205.989 87.6225 204.472 89.7311C202.786 92.0084 201.1 94.3701 199.668 96.8161C197.982 99.5151 196.549 102.383 195.537 105.419L195.453 105.588C195.537 104.576 195.622 101.708 195.537 101.539C195.285 98.4186 192.924 92.6832 189.469 91.8398C187.277 91.418 185.086 92.8519 184.664 95.1292C184.664 95.2979 184.58 95.3822 184.58 95.5509C183.737 97.9125 185.338 100.359 187.109 101.961Z" fill="#9C9C9C"/>
<path d="M226.638 217.348V215.155C226.638 203.853 240.967 203.347 240.967 195.334C240.967 191.791 238.101 189.514 233.887 189.514C229.251 189.514 226.301 192.044 226.301 195.587V196.515C226.301 197.358 225.795 197.78 224.952 197.78L216.271 197.442C215.512 197.442 214.922 197.021 214.922 196.43V195.503C214.922 185.719 222.761 178.887 234.14 178.887C245.35 178.887 252.599 185.297 252.599 194.743C252.599 208.238 238.101 208.323 238.101 215.745V217.179C238.186 217.854 237.68 218.444 237.006 218.528C236.921 218.528 236.753 218.528 236.753 218.528H228.155C227.481 218.613 226.891 218.107 226.807 217.432C226.638 217.516 226.638 217.348 226.638 217.348ZM225.879 230.421C225.879 226.879 228.998 223.927 232.875 223.927C236.5 223.927 239.787 226.879 239.787 230.421C239.787 233.963 236.5 236.916 232.791 236.916C229.167 236.916 225.879 233.963 225.879 230.421Z" fill="#263238"/>
<path d="M55.0287 124.228V122.288C55.0287 112.504 67.5035 112.082 67.5035 104.997C67.5035 101.961 65.0591 100.021 61.3504 100.021C57.3045 100.021 54.7759 102.214 54.7759 105.335V106.094C54.7759 106.853 54.3544 107.275 53.5958 107.275L46.0941 107.021C45.4198 107.021 44.9141 106.684 44.9141 106.178V105.419C44.9141 96.9002 51.7415 90.9961 61.6875 90.9961C71.3808 90.9961 77.7024 96.4785 77.7024 104.744C77.7024 116.468 65.0591 116.552 65.0591 122.963V124.228C65.1434 124.818 64.7219 125.409 64.1319 125.409C64.0476 125.409 63.9633 125.409 63.879 125.409H56.3773C55.7873 125.493 55.1973 125.071 55.1973 124.481C55.0287 124.396 55.0287 124.312 55.0287 124.228ZM54.3544 135.53C54.3544 132.409 57.0516 129.879 60.4232 129.879C63.5419 129.879 66.4077 132.493 66.4077 135.53C66.4077 138.651 63.5419 141.181 60.3389 141.181C57.1359 141.265 54.4387 138.735 54.3544 135.53Z" fill="#FFBE00"/>
<path d="M213.067 49.0798V48.152C213.067 43.1757 219.388 43.007 219.388 39.3802C219.388 37.862 218.208 36.8499 216.27 36.8499C214.247 36.8499 212.982 37.9463 212.982 39.4645V39.8863C212.982 40.2236 212.73 40.4767 212.308 40.4767L208.515 40.308C208.178 40.308 207.841 40.1393 207.841 39.8863V39.5489C207.841 35.2473 211.297 32.2109 216.27 32.2109C221.243 32.2109 224.361 34.9943 224.361 39.1272C224.361 45.0312 217.955 45.0313 217.955 48.3207V48.9954C217.955 49.2485 217.787 49.5858 217.45 49.5858C217.365 49.5858 217.365 49.5858 217.281 49.5858H213.488C213.32 49.6702 213.067 49.4172 213.067 49.0798C213.067 49.1641 213.067 49.0798 213.067 49.0798ZM212.645 54.8152C212.477 53.1283 213.825 51.6944 215.511 51.5258C217.197 51.3571 218.63 52.7066 218.798 54.3935C218.967 56.0803 217.618 57.5142 215.933 57.6829C215.848 57.6829 215.764 57.6829 215.68 57.6829C214.078 57.6829 212.73 56.4177 212.645 54.8152Z" fill="#595855"/>
<path d="M29.1504 181.501V180.32C29.1504 174.079 37.0735 173.826 37.0735 169.355C37.0735 167.415 35.4721 166.15 33.112 166.15C30.499 166.15 28.9818 167.5 28.9818 169.524V170.03C28.9818 170.536 28.729 170.705 28.2232 170.705L23.4188 170.536C22.9973 170.536 22.6602 170.283 22.6602 169.946V169.44C22.6602 163.957 26.9589 160.246 33.2805 160.246C39.5179 160.246 43.4795 163.789 43.4795 169.018C43.4795 176.44 35.4721 176.525 35.4721 180.657V181.416C35.5563 181.754 35.2192 182.091 34.882 182.176C34.7977 182.176 34.7135 182.176 34.7135 182.176H29.9933C29.6561 182.26 29.319 182.007 29.1504 181.501ZM29.1504 181.501C29.1504 181.67 29.1504 181.585 29.1504 181.501ZM28.7289 188.754C28.5604 186.646 30.1619 184.79 32.2691 184.706C34.3763 184.622 36.2307 186.14 36.3149 188.248C36.3992 190.357 34.882 192.213 32.7748 192.297C32.6905 192.297 32.5219 192.297 32.5219 192.297C30.499 192.466 28.8132 190.779 28.7289 188.754Z" stroke="#263238" stroke-miterlimit="10"/>
<path d="M89.4162 68.4806V67.6371C89.4162 63.3356 94.895 63.1669 94.895 60.1305C94.895 58.8653 93.7992 57.9376 92.1978 57.9376C90.4277 57.9376 89.3319 58.8653 89.3319 60.2148V60.5522C89.3319 60.8896 89.0791 61.0583 88.8262 61.0583L85.5389 60.8896C85.2861 60.8896 85.0332 60.7209 85.0332 60.5522V60.1305C85.0332 56.4194 87.9833 53.8047 92.3663 53.8047C96.7494 53.8047 99.278 56.2507 99.278 59.7931C99.278 64.9381 93.7992 64.9381 93.7992 67.7215V68.3119C93.7992 68.5649 93.6307 68.818 93.3778 68.818C93.2935 68.818 93.2935 68.818 93.2092 68.818H89.922C89.5848 68.9023 89.3319 68.6493 89.4162 68.4806ZM89.0791 73.3725C88.9948 71.9387 90.0905 70.7579 91.6077 70.5892C93.0406 70.5048 94.2207 71.6013 94.3893 73.1195C94.4736 74.5534 93.3778 75.7342 91.8606 75.9029C91.7763 75.9029 91.7763 75.9029 91.692 75.9029C90.3434 75.9029 89.0791 74.8064 89.0791 73.3725Z" fill="#263238"/>
<path d="M186.263 248.049V247.205C186.263 242.904 191.742 242.735 191.742 239.698C191.742 238.433 190.646 237.506 189.044 237.506C187.274 237.506 186.179 238.433 186.179 239.783V240.12C186.179 240.458 185.926 240.626 185.673 240.626L182.386 240.458C182.133 240.458 181.88 240.289 181.88 240.12V239.783C181.88 236.072 184.83 233.457 189.213 233.457C193.596 233.457 196.209 235.903 196.209 239.445C196.209 244.59 190.73 244.59 190.73 247.374V247.964C190.73 248.217 190.562 248.47 190.309 248.47H190.224H186.937C186.6 248.555 186.347 248.302 186.263 248.049ZM186.263 248.049C186.263 248.133 186.263 248.133 186.263 248.049ZM186.01 253.025C185.926 251.591 187.022 250.41 188.539 250.242C189.972 250.157 191.152 251.254 191.32 252.772C191.405 254.206 190.309 255.387 188.792 255.555C188.707 255.555 188.707 255.555 188.623 255.555C187.19 255.555 186.094 254.459 186.01 253.025Z" stroke="#263238" stroke-miterlimit="10"/>
<path d="M160.64 262.977C160.556 262.808 160.556 262.724 160.472 262.555C160.387 262.386 160.387 262.302 160.303 262.133C160.219 261.964 160.219 261.88 160.134 261.711C160.05 261.543 160.05 261.458 159.966 261.29C159.881 261.121 159.881 261.037 159.797 260.868C159.713 260.699 159.713 260.615 159.629 260.446L159.46 260.025C159.376 259.856 159.376 259.771 159.291 259.603L159.123 259.181C159.039 259.012 159.039 258.928 158.954 258.759L158.786 258.338C158.701 258.169 158.701 258.085 158.617 257.916L158.449 257.494C158.364 257.325 158.364 257.241 158.28 257.072L158.111 256.651C158.027 256.482 158.027 256.398 157.943 256.229C157.859 256.06 157.859 255.976 157.774 255.807C157.69 255.639 157.69 255.554 157.606 255.386C157.521 255.217 157.521 255.133 157.437 254.964C155.33 248.469 148.671 243.746 141.422 243.746C134.426 243.746 128.273 247.795 125.66 253.614C125.576 253.783 125.492 253.867 125.407 254.036L125.239 254.458C125.154 254.626 125.07 254.711 124.986 254.88C124.902 255.048 124.817 255.133 124.733 255.301L124.564 255.723C124.48 255.892 124.396 255.976 124.312 256.145C124.227 256.313 124.143 256.398 124.059 256.566C123.974 256.735 123.89 256.819 123.806 256.988L123.637 257.41C123.553 257.579 123.469 257.663 123.384 257.832C123.3 258 123.216 258.085 123.132 258.253L122.963 258.675C122.879 258.844 122.794 258.928 122.71 259.097C122.626 259.265 122.542 259.35 122.457 259.518L122.289 259.94C122.204 260.109 122.12 260.193 122.036 260.362C121.952 260.531 121.867 260.615 121.783 260.784L121.614 261.205C121.53 261.374 121.446 261.458 121.361 261.627C121.277 261.796 121.193 261.88 121.109 262.049C119.929 264.41 119.423 267.025 119.423 269.724C119.423 280.267 128.526 288.87 139.821 288.87C150.863 288.87 160.387 280.267 160.387 269.724C160.387 267.7 160.05 265.676 159.291 263.82C160.724 263.314 160.64 263.145 160.64 262.977Z" fill="#263238"/>
<path d="M145.049 117.902C111.249 117.902 88.3223 137.808 88.3223 166.822V169.437C88.3223 170.28 88.828 171.124 89.5023 171.545C89.6709 171.714 89.7552 171.798 89.9237 171.883C90.0923 172.051 90.1766 172.136 90.3452 172.22C90.5138 172.389 90.5981 172.473 90.7666 172.557C90.9352 172.726 91.0195 172.81 91.1881 172.895C91.3567 173.063 91.4409 173.148 91.6095 173.232C91.7781 173.401 91.8624 173.485 92.031 173.57C92.1995 173.738 92.2838 173.823 92.4524 173.907C92.621 174.076 92.7053 174.16 92.8739 174.244C93.0424 174.413 93.1267 174.497 93.2953 174.582C93.4639 174.75 93.6325 174.835 93.801 174.919C93.9696 175.088 94.0539 175.172 94.2225 175.256C94.3911 175.425 94.4754 175.509 94.6439 175.594C94.8125 175.762 94.8968 175.847 95.0654 175.931C95.234 176.1 95.3182 176.184 95.4868 176.269C95.6554 176.437 95.7397 176.522 95.9083 176.606C96.0768 176.775 96.1611 176.859 96.3297 176.943C96.4983 177.112 96.5826 177.196 96.7511 177.281C96.9197 177.449 97.004 177.534 97.1726 177.618C97.3412 177.787 97.4255 177.871 97.594 177.955C97.7626 178.124 97.8469 178.208 98.0155 178.293C98.7741 178.968 99.7013 179.305 100.713 179.221L121.785 179.98C123.892 179.98 125.156 178.968 125.156 176.859V174.75C125.156 166.063 132.237 159.99 143.447 159.99C153.646 159.99 160.558 165.472 160.558 173.991C160.558 174.919 160.474 175.931 160.305 176.859C149.685 190.776 122.206 196.849 122.206 223.754V230.164C122.206 232.779 123.639 234.213 126.252 234.213H151.539C154.152 234.213 155.585 232.779 155.585 230.164V226.285C155.585 204.439 198.403 204.271 198.403 164.46C199.415 136.542 178.09 117.902 145.049 117.902Z" fill="#263238"/>
<path d="M123.05 230.669V224.259C123.05 190.943 165.194 189.509 165.194 165.724C165.194 155.434 156.85 148.686 144.375 148.686C130.72 148.686 122.123 156.109 122.123 166.652V169.266C122.123 171.881 120.69 173.146 118.077 173.146L92.4531 172.218C90.093 172.218 88.4072 171.038 88.4072 169.351V166.736C88.4072 137.722 111.334 117.816 145.134 117.816C178.175 117.816 199.5 136.541 199.5 164.543C199.5 204.354 156.681 204.607 156.681 226.367V230.669C156.681 233.284 155.248 234.717 152.635 234.717H127.264C124.483 234.802 123.05 233.368 123.05 230.669Z" fill="#FFBE00" stroke="#3A3A3A" stroke-miterlimit="10"/>
<path d="M120.856 269.384C120.856 258.841 130.128 250.238 141.423 250.238C152.212 250.238 161.821 258.926 161.821 269.384C161.821 279.843 152.212 288.531 141.254 288.531C129.96 288.446 120.856 279.843 120.856 269.384Z" fill="#FFBE00" stroke="#383837" stroke-miterlimit="10"/>
<path d="M140.242 309.951C159.98 309.951 175.981 306.364 175.981 301.938C175.981 297.513 159.98 293.926 140.242 293.926C120.505 293.926 104.504 297.513 104.504 301.938C104.504 306.364 120.505 309.951 140.242 309.951Z" fill="#263238"/>
<path d="M176.235 46.3795C178.68 46.4638 181.124 46.2108 183.484 45.7891" stroke="#263238" stroke-linecap="round" stroke-linejoin="round"/>
<path d="M111.415 120.855L109.982 124.061C109.982 124.061 101.553 124.988 101.553 125.579C101.553 126.169 101.637 130.639 102.058 130.724C102.48 130.892 102.817 130.892 103.154 130.724L115.629 127.519L116.809 121.868L111.415 120.855Z" fill="white" stroke="#263238" stroke-linecap="round" stroke-linejoin="round"/>
<path d="M109.056 126.509C107.538 127.774 105.853 128.871 104.083 129.883C102.144 130.81 102.06 132.16 102.65 132.16C103.24 132.16 108.971 129.798 108.971 129.798C108.971 129.798 114.113 128.449 114.872 128.027C115.63 127.605 115.715 125.328 115.715 125.328" fill="white"/>
<path d="M109.056 126.509C107.538 127.774 105.853 128.871 104.083 129.883C102.144 130.81 102.06 132.16 102.65 132.16C103.24 132.16 108.971 129.798 108.971 129.798C108.971 129.798 114.113 128.449 114.872 128.027C115.63 127.605 115.715 125.328 115.715 125.328" stroke="#263238" stroke-linecap="round" stroke-linejoin="round"/>
<path d="M118.831 59.8789L113.606 99.6894L110.065 121.281L117.989 123.137L124.057 97.5808L126.839 81.5554L118.831 59.8789Z" fill="#253A8E"/>
<path d="M160.639 31.0302L157.52 30.6085L151.115 28.0781L150.777 35.8378L160.892 36.7656L160.639 31.0302Z" fill="white" stroke="#263238" stroke-linecap="round" stroke-linejoin="round"/>
<path d="M123.719 172.217C121.359 174.916 119.168 177.868 117.145 180.82C114.448 184.953 115.375 189.339 118.746 190.436C122.118 191.532 126.248 188.496 127.428 186.218C128.608 183.941 128.187 182.676 129.957 180.23C131.727 177.868 133.075 175.507 132.485 172.386C131.727 169.181 125.405 170.024 123.719 172.217Z" fill="#7D7D7D" stroke="#263238" stroke-linecap="round" stroke-linejoin="round"/>
<path d="M127.008 186.73C126.755 186.308 126.586 185.718 126.249 185.212C123.721 180.826 119.253 181.079 116.556 181.922C114.702 185.634 115.798 189.345 118.748 190.357C121.698 191.453 125.575 189.007 127.008 186.73Z" fill="white" stroke="#263238" stroke-linecap="round" stroke-linejoin="round"/>
<path d="M126.25 185.211C125.323 186.56 124.058 190.356 119.17 188.838C117.821 188.416 116.557 187.657 115.714 186.645C115.967 188.416 117.062 189.85 118.748 190.44C122.036 191.537 126.25 188.5 127.43 186.223C128.61 183.946 128.189 182.681 129.959 180.235C131.729 177.873 133.077 175.511 132.487 172.391C132.487 176.186 131.139 176.777 129.369 178.885C127.43 180.909 127.177 183.861 126.25 185.211Z" fill="white" stroke="#263238" stroke-linecap="round" stroke-linejoin="round"/>
<path d="M170.079 172.217C172.44 174.916 174.631 177.868 176.654 180.82C179.351 184.953 178.424 189.339 175.053 190.436C171.765 191.616 167.551 188.496 166.371 186.218C165.191 183.941 165.612 182.676 163.842 180.23C162.072 177.868 160.723 175.507 161.313 172.386C162.072 169.181 168.309 170.024 170.079 172.217Z" fill="#7D7D7D" stroke="#263238" stroke-linecap="round" stroke-linejoin="round"/>
<path d="M166.792 186.73C167.045 186.308 167.213 185.718 167.551 185.212C170.079 180.826 174.547 181.079 177.244 181.922C179.098 185.634 178.002 189.345 175.052 190.357C172.186 191.453 168.309 189.007 166.792 186.73Z" fill="white" stroke="#263238" stroke-linecap="round" stroke-linejoin="round"/>
<path d="M167.551 185.211C168.478 186.56 169.742 190.356 174.631 188.838C175.98 188.416 177.244 187.657 178.087 186.645C177.834 188.416 176.738 189.85 175.053 190.44C171.765 191.537 167.551 188.5 166.371 186.223C165.191 183.946 165.612 182.681 163.842 180.235C162.072 177.873 160.723 175.511 161.313 172.391C161.313 176.186 162.662 176.777 164.432 178.885C166.286 180.909 166.708 183.861 167.551 185.211Z" fill="white" stroke="#263238" stroke-linecap="round" stroke-linejoin="round"/>
<path d="M177.496 117.898C177.496 115.115 172.607 111.91 172.607 111.91C165.274 104.488 152.04 105.415 147.152 106.09C142.263 105.415 129.029 104.403 121.696 111.91C121.696 111.91 116.808 115.031 116.808 117.898C116.808 120.766 122.961 171.794 122.961 171.794C122.961 171.794 122.792 174.493 127.175 174.746C131.558 175.084 133.413 172.553 133.413 172.553L135.183 129.285C135.183 129.285 142.263 124.224 143.527 124.14C143.949 124.055 144.623 123.971 145.297 123.887V123.971C146.477 123.718 147.826 123.718 149.09 123.971C149.765 124.056 150.355 124.14 150.86 124.224C152.125 124.393 159.205 129.369 159.205 129.369L160.975 172.638C160.975 172.638 162.914 175.168 167.212 174.831C171.595 174.493 171.427 171.879 171.427 171.879C171.427 171.879 177.496 120.766 177.496 117.898Z" fill="#263238" stroke="#263238" stroke-linecap="round" stroke-linejoin="round"/>
<path d="M159.036 129.374C159.036 129.374 158.109 118.915 162.66 115.035" stroke="#707070" stroke-linecap="round" stroke-linejoin="round"/>
<path d="M135.184 129.374C135.184 129.374 135.606 120.686 134.763 117.566C133.836 114.445 132.234 113.18 132.234 113.18" stroke="#707070" stroke-linecap="round" stroke-linejoin="round"/>
<path d="M141 108.793C141 108.793 146.057 114.613 146.984 119.505" stroke="#707070" stroke-linecap="round" stroke-linejoin="round"/>
<path d="M152.042 109.133C152.042 109.133 149.26 112.254 148.923 114.615" stroke="#707070" stroke-linecap="round" stroke-linejoin="round"/>
<path d="M144.96 47.9841C144.96 47.9841 140.409 47.3937 138.807 48.9119C137.206 50.5144 131.896 56.2498 131.896 56.2498L134.677 106.266C134.677 106.266 141.167 108.796 146.646 108.796C152.125 108.796 158.446 106.772 159.879 105.676C161.312 104.579 160.048 50.9361 160.048 50.9361C160.048 50.9361 148.332 47.478 144.96 47.9841Z" fill="#FFBE00" stroke="#263238" stroke-linecap="round" stroke-linejoin="round"/>
<path d="M153.306 48.9928C155.666 48.5711 158.11 48.4024 160.555 48.4024C163.674 48.4024 166.792 48.5711 166.792 48.5711L174.631 41.0644L158.785 37.3533L160.049 30.0997C160.049 30.0997 171.681 29.3406 177.497 30.4371C183.313 31.5335 192.416 34.4012 192.922 34.4012C193.343 34.4012 194.018 36.1725 193.512 37.3533C193.09 38.5341 178.256 54.9812 173.788 59.2828C170.922 62.0661 168.141 65.1025 165.612 68.2233L163.589 103.31C163.589 103.31 168.731 106.094 169.742 107.106C170.67 108.034 171.765 111.829 171.765 111.829C171.765 111.829 162.156 107.865 159.712 107.612C157.183 107.275 155.582 107.19 155.16 106.262C154.739 105.335 150.777 63.3313 150.777 63.3313L150.946 49.9206C150.946 49.8362 150.946 48.9928 153.306 48.9928Z" fill="#253A8E"/>
<path d="M162.747 70.5859L154.233 71.6824L154.992 74.8875L159.206 75.8996L163.337 74.044L162.747 70.5859Z" stroke="#263238" stroke-linecap="round" stroke-linejoin="round"/>
<path d="M167.551 51.7734L165.696 68.2206L170.585 54.2194" stroke="#263238" stroke-linecap="round" stroke-linejoin="round"/>
<path d="M174.632 40.9775C174.632 40.9775 178.593 41.7366 184.494 39.375" stroke="#263238" stroke-linecap="round" stroke-linejoin="round"/>
<path d="M139.651 47.8125L140.41 59.2833C141.843 61.2232 144.119 62.3197 146.563 62.2354C150.525 62.0667 150.946 59.2833 150.946 59.2833V49.8368L139.651 47.8125Z" fill="white" stroke="#263238" stroke-linecap="round" stroke-linejoin="round"/>
<path d="M151.115 53.72L150.777 63.1666L154.065 58.0216C154.065 58.0216 157.689 62.5762 158.616 62.4075C159.543 62.2388 158.026 60.3832 157.689 58.612C157.352 56.8408 154.739 50.768 154.402 48.9968C154.065 47.2255 151.115 46.9725 150.946 47.7316C150.862 48.4064 150.862 49.0811 150.946 49.7559L151.115 53.72Z" fill="#7D7D7D" stroke="#263238" stroke-linecap="round" stroke-linejoin="round"/>
<path d="M140.242 62.2357C140.242 62.2357 140.832 106.263 139.315 106.769C137.713 107.275 131.476 107.36 127.43 109.3C123.384 111.24 121.614 111.999 121.614 111.999C121.614 111.999 123.553 107.444 125.744 105.42C127.177 104.155 128.863 102.974 130.633 102.13L126.503 81.0444C126.503 81.0444 119.001 61.0548 118.833 59.9584C118.664 58.8619 133.162 50.6805 136.112 49.2466C139.062 47.8128 139.905 49.078 139.905 49.078L140.242 62.2357Z" fill="#253A8E"/>
<path d="M136.278 46.969C136.278 46.969 132.485 58.9459 132.148 60.5484C131.811 62.1509 132.148 62.1509 133.328 60.9701C134.508 59.7893 137.29 57.1746 137.29 57.1746L140.24 62.2353L140.071 52.9574V47.6437C140.071 47.6437 139.903 45.4508 136.278 46.969Z" fill="#7D7D7D" stroke="#263238" stroke-linecap="round" stroke-linejoin="round"/>
<path d="M128.862 72.7773H138.133L138.049 76.5728L133.919 78.0067L128.777 76.5728L128.862 72.7773Z" stroke="#263238" stroke-linecap="round" stroke-linejoin="round"/>
<path d="M154.402 31.4513C154.402 31.4513 156.593 41.0665 157.099 42.5847C157.52 44.1029 154.57 50.26 153.643 51.6939C152.885 52.8747 151.62 53.7181 150.187 53.8868C149.092 53.8868 143.107 51.8626 141.674 50.9348C140.241 50.007 138.893 48.9105 138.893 48.9105C137.544 49.5009 135.943 49.3322 134.762 48.3201C132.824 46.5489 130.379 44.5246 130.969 43.1751C131.56 41.7413 132.992 40.8978 134.594 40.9822C136.364 40.9822 135.774 40.8135 135.774 40.8135C135.774 40.8135 132.655 36.2589 132.655 32.6321C132.655 29.0053 139.398 26.3906 143.36 26.3906C146.057 26.475 148.754 27.1497 151.199 28.3305L154.402 31.4513Z" fill="white" stroke="#263238" stroke-linecap="round" stroke-linejoin="round"/>
<path d="M148.923 34.9961L151.704 40.3941L148.923 42.2497L147.574 40.7315" stroke="#263238" stroke-linecap="round" stroke-linejoin="round"/>
<path d="M154.065 39.8828C154.065 39.8828 154.234 41.148 152.295 43.1722" stroke="#263238" stroke-linecap="round" stroke-linejoin="round"/>
<path d="M145.89 37.0175C145.89 37.7766 145.552 38.367 145.215 38.367C144.877 38.367 144.54 37.7766 144.54 37.0175C144.54 36.2584 144.877 35.668 145.215 35.668C145.552 35.668 145.89 36.2584 145.89 37.0175Z" fill="#263238"/>
<path d="M150.777 33.1367C151.199 33.1367 151.452 33.7271 151.452 34.4862C151.452 35.2453 151.115 35.8357 150.777 35.8357C150.44 35.8357 150.103 35.2453 150.103 34.4862C150.103 33.7271 150.44 33.1367 150.777 33.1367Z" fill="#263238"/>
<path d="M137.375 23.1849C137.375 23.1849 127.513 26.8117 127.176 31.3663C126.839 35.9209 136.026 42.2467 136.448 43.0058C136.869 43.7649 138.386 42.078 138.386 42.078C137.796 41.2346 137.544 40.1381 137.796 39.126C138.218 37.5234 140.325 35.6679 140.325 34.9088C140.325 34.1497 137.965 35.4992 137.965 33.1375C137.965 30.7759 143.781 29.3421 147.237 29.5107C150.693 29.6794 153.727 35.4992 156.171 32.6315C158.7 29.8481 154.991 29.089 154.991 29.089C154.991 29.089 159.88 28.4986 159.88 25.9683C159.88 23.438 157.351 21.7511 156.256 21.7511C155.16 21.7511 152.126 23.691 152.126 21.5824C152.126 19.4738 155.076 18.6303 152.294 15.3409C149.513 12.0515 145.804 15.3409 145.804 16.6061C145.804 17.8712 144.877 20.1485 144.202 20.1485C143.528 20.1485 141.674 17.3652 139.482 18.9677C138.218 19.9798 137.375 21.5824 137.375 23.1849Z" fill="#3E4142" stroke="#263238" stroke-linecap="round" stroke-linejoin="round"/>
<path d="M141.421 35.3321L146.563 33.4766" stroke="#263238" stroke-linecap="round" stroke-linejoin="round"/>
<path d="M147.32 31.2806C147.235 30.8591 147.32 30.2691 147.573 29.8477" stroke="#263238" stroke-linecap="round" stroke-linejoin="round"/>
<path d="M147.49 29.764C147.912 29.0892 148.67 28.1614 150.356 27.4023" stroke="white" stroke-linecap="round" stroke-linejoin="round"/>
</svg>
