<svg width="18" height="12" viewBox="0 0 18 12" fill="none" xmlns="http://www.w3.org/2000/svg">
<path fill-rule="evenodd" clip-rule="evenodd" d="M0 2.15379L9.29508 0L18 2.15379L9.29508 6.76906L3.52043 3.90178C3.43493 4.75256 3.12552 6.25609 2.94025 7.07607H1.77242C2.30305 6.45804 2.55239 4.52954 2.63 3.45966L0 2.15379ZM4.8687 9.84633C4.27853 8.98481 4.13099 6.41052 4.13099 5.23106L9.29493 7.84638L15.049 4.76953C15.2851 6.73871 14.4589 8.97455 14.0162 9.84633C11.6556 9.60018 9.88509 11.1796 9.29493 12.0001C7.64247 10.0309 5.65558 9.74377 4.8687 9.84633ZM2.8607 9.0658C2.92882 8.91895 3.00691 8.75061 3.09948 8.46166C3.09948 7.86691 2.63709 7.38477 2.0667 7.38477C1.49631 7.38477 1.03391 7.86691 1.03391 8.46166C0.885484 9.6924 1.62335 10.6155 2.50866 10.7693C2.60976 9.60676 2.71121 9.38806 2.8607 9.0658Z" fill="white"/>
</svg>
