<svg width="44" height="44" viewBox="0 0 44 44" fill="none" xmlns="http://www.w3.org/2000/svg">
<path fill-rule="evenodd" clip-rule="evenodd" d="M5 0C2.23858 0 0 2.23858 0 5V39C0 41.7614 2.23858 44 5 44H39C41.7614 44 44 41.7614 44 39V5C44 2.23858 41.7614 0 39 0H5ZM16.9552 11H27.0448C30.3286 11 33 13.6714 33 16.9552V27.045C33 30.3286 30.3286 33 27.045 33H16.9552C13.6714 33 11 30.3286 11 27.045V16.9552C11 13.6714 13.6714 11 16.9552 11ZM15.9845 22C15.9845 18.683 18.683 15.9845 22 15.9845C25.317 15.9845 28.0155 18.683 28.0155 22C28.0155 25.317 25.317 28.0155 22 28.0155C18.683 28.0155 15.9845 25.317 15.9845 22ZM17.2743 22C17.2743 24.6058 19.3943 26.7257 22 26.7257C24.6058 26.7257 26.7257 24.6058 26.7257 22C26.7257 19.3943 24.6058 17.2743 22 17.2743C19.3943 17.2743 17.2743 19.3943 17.2743 22ZM28.1603 13.8485C27.1801 13.8485 26.3828 14.6459 26.3828 15.626C26.3828 16.6062 27.1801 17.4036 28.1603 17.4036C29.1405 17.4036 29.938 16.6062 29.938 15.626C29.938 14.6457 29.1405 13.8485 28.1603 13.8485ZM28.1603 16.1137C27.8914 16.1137 27.6725 15.8949 27.6725 15.626C27.6725 15.3569 27.8914 15.1382 28.1603 15.1382C28.4294 15.1382 28.6482 15.3569 28.6482 15.626C28.6482 15.8949 28.4294 16.1137 28.1603 16.1137Z" fill="url(#paint0_linear_880_12333)"/>
<defs>
<linearGradient id="paint0_linear_880_12333" x1="42.5333" y1="42.1695" x2="-1.26759e-06" y2="-0.363803" gradientUnits="userSpaceOnUse">
<stop stop-color="#E95950"/>
<stop offset="1" stop-color="#8A3AB9"/>
</linearGradient>
</defs>
</svg>
