<svg width="44" height="44" viewBox="0 0 44 44" fill="none" xmlns="http://www.w3.org/2000/svg">
<path d="M44 37.5612C44 41.1174 41.1319 44 37.5941 44H6.40592C2.86799 44 0 41.1174 0 37.5612V6.43878C0 2.8827 2.86799 0 6.40592 0H37.5941C41.132 0 44 2.8827 44 6.43878V37.5612Z" fill="#FAAB62"/>
<path d="M43.7726 37.402C43.7726 40.9215 40.934 43.7745 37.4325 43.7745H6.56466C3.06311 43.7745 0.224609 40.9215 0.224609 37.402V6.59913C0.224609 3.07962 3.06322 0.226562 6.56466 0.226562H37.4325C40.934 0.226562 43.7726 3.07974 43.7726 6.59913V37.402Z" fill="#F7931E"/>
<path d="M21.9758 6.57422C17.6151 6.57422 14.0801 10.1275 14.0801 14.5105C14.0801 18.8936 17.6151 22.447 21.9758 22.447C26.3366 22.447 29.8716 18.8936 29.8716 14.5105C29.8716 10.1275 26.3366 6.57422 21.9758 6.57422ZM21.9758 17.7913C20.1732 17.7913 18.7119 16.3224 18.7119 14.5106C18.7119 12.6987 20.1732 11.2299 21.9758 11.2299C23.7784 11.2299 25.2397 12.6987 25.2397 14.5106C25.2397 16.3224 23.7784 17.7913 21.9758 17.7913Z" fill="white"/>
<path d="M24.7621 28.7616C27.9231 28.1144 29.8173 26.6098 29.9175 26.529C30.8425 25.7834 30.9911 24.4253 30.2493 23.4955C29.5076 22.5658 28.1565 22.4164 27.2314 23.1619C27.2118 23.1778 25.1915 24.7356 21.8673 24.7379C18.5433 24.7356 16.4803 23.1778 16.4607 23.1619C15.5355 22.4164 14.1845 22.5658 13.4428 23.4955C12.701 24.4253 12.8496 25.7834 13.7745 26.529C13.8761 26.6109 15.8485 28.1547 19.0981 28.7867L14.5692 33.5441C13.7462 34.402 13.7709 35.768 14.6245 36.5953C15.0411 36.9991 15.578 37.1997 16.1145 37.1997C16.677 37.1997 17.2389 36.9788 17.6602 36.5397L21.8675 32.0348L26.4997 36.5688C27.339 37.4111 28.6981 37.4097 29.5359 36.5665C30.3736 35.7231 30.3726 34.3568 29.5335 33.5148L24.7621 28.7616Z" fill="white"/>
</svg>
