<svg width="17" height="17" viewBox="0 0 17 17" fill="none" xmlns="http://www.w3.org/2000/svg">
<path d="M16.5796 5.82104C16.2829 4.62965 15.6906 3.53231 14.8574 2.6305C14.0243 1.7287 12.9771 1.05154 11.8129 0.661672C11.2255 0.31367 9.9835 0.0742188 8.55638 0.0742188C7.23461 0.0742188 6.06609 0.281743 5.42755 0.58824C4.35746 0.916413 3.37544 1.48233 2.55497 2.24365C1.73449 3.00497 1.0968 3.94197 0.689618 4.98456C0.290534 5.50177 0 6.8395 0 8.40392C0 9.764 0.217102 10.9581 0.539563 11.5966C1.55483 14.9234 4.01639 16.8166 8.18603 16.9954C8.23491 16.9992 8.28401 16.9992 8.33289 16.9954C8.73517 16.9379 9.0257 16.641 8.97143 16.3313C8.92951 16.1809 8.83391 16.051 8.70271 15.9663C8.57152 15.8816 8.41382 15.8479 8.25946 15.8716C7.69342 15.8267 7.13249 15.7317 6.5833 15.5874C3.07136 14.6296 0.705582 11.0602 1.28346 7.55786C1.91561 3.76176 5.24557 1.03202 8.9395 1.3034C10.7356 1.4303 12.4233 2.2096 13.6847 3.49452C14.9461 4.77943 15.6941 6.48125 15.7878 8.2794C15.835 8.99919 15.7198 9.72039 15.4507 10.3896C15.1815 11.0589 14.7654 11.6591 14.233 12.1457C13.9297 12.4267 13.5465 12.8832 13.1538 12.6821C12.643 12.4235 13.0549 11.9318 13.1858 11.5711C13.5753 10.4887 12.8473 10.1663 12.0779 9.84062C11.3085 9.51497 10.7466 9.52135 10.5582 10.5175C10.4017 11.3444 9.93561 11.2646 9.45352 10.792C8.38717 9.75123 7.34316 8.69445 6.29596 7.63129C5.80429 7.13323 5.75001 6.67348 6.56415 6.52981C7.73586 6.30952 7.47087 5.61352 7.20268 4.86643C6.88341 3.97886 6.35024 3.58936 5.36689 3.95013C3.7067 4.55355 3.13202 6.63836 4.32608 8.3656C5.14387 9.47848 6.05956 10.516 7.0622 11.4657C10.7881 15.1788 13.9424 14.9553 16.2827 10.8655C16.5118 10.6112 16.6742 10.304 16.7552 9.97152C16.7792 9.91792 16.7943 9.86077 16.7999 9.80231C16.9353 9.25292 17.0018 8.68879 16.9978 8.12296C17.0197 7.33494 16.8772 6.55101 16.5796 5.82104Z" fill="white"/>
</svg>
