<svg width="18" height="17" viewBox="0 0 18 17" fill="none" xmlns="http://www.w3.org/2000/svg">
<path d="M0.75 0.800781C0.335449 0.800781 0 1.12607 0 1.52805V11.7099C0 11.9542 0.124512 12.1701 0.314941 12.3015C0.436523 12.3867 0.587402 12.4371 0.75 12.4371H17.25C17.6646 12.4371 18 12.1119 18 11.7099V1.52805C18 1.12607 17.6646 0.800781 17.25 0.800781H0.75Z" fill="white"/>
<path d="M8.20898 14.0344C8.23535 14.0778 8.25 14.1289 8.25 14.1829V14.3278C8.25 14.489 8.38477 14.619 8.55029 14.619H9.44971C9.55225 14.619 9.64307 14.5692 9.69727 14.494C9.73096 14.4471 9.75 14.3896 9.75 14.3278V14.1829C9.75 14.0217 9.88477 13.8917 10.0503 13.8917H11.6997C11.811 13.8917 11.9092 13.9514 11.9604 14.0394C11.9854 14.0813 12 14.1303 12 14.1829V15.055C12 15.1701 12.0688 15.2695 12.1699 15.3171C12.2095 15.3356 12.2534 15.3462 12.3003 15.3462H12.4497C12.564 15.3462 12.665 15.4087 12.7148 15.5011C12.7368 15.5415 12.75 15.5884 12.75 15.6374V16.5096C12.75 16.6708 12.6152 16.8008 12.4497 16.8008H5.55029C5.43896 16.8008 5.34082 16.7418 5.28955 16.6538C5.26465 16.6112 5.25 16.5621 5.25 16.5096V15.6374C5.25 15.4762 5.38477 15.3462 5.55029 15.3462H5.69971C5.80078 15.3462 5.8916 15.2972 5.9458 15.2219C5.97949 15.1751 6 15.1175 6 15.055V14.1829C6 14.0217 6.13477 13.8917 6.30029 13.8917H7.94971C8.05957 13.8917 8.15625 13.9485 8.20898 14.0344Z" fill="white"/>
</svg>
