<svg width="16" height="14" viewBox="0 0 16 14" fill="none" xmlns="http://www.w3.org/2000/svg">
<path d="M4.7619 0C3.39657 0 2.28571 1.07432 2.28571 2.39474V10.3158H8.95238C9.89752 10.3158 10.6667 11.0596 10.6667 11.9737V12.8947C10.6667 13.5026 11.1765 13.9963 11.8043 13.9993H11.8147C12.4399 13.9963 12.9474 13.5061 12.9516 12.9019C12.952 12.7067 12.9524 1.10526 12.9524 1.10526C12.9524 0.688947 13.1011 0.308737 13.343 0H4.7619ZM14.8571 0C14.227 0 13.7143 0.495895 13.7143 1.10526V3.31579H15.0476C15.573 3.31579 16 2.90279 16 2.39474V1.10526C16 0.495895 15.4872 0 14.8571 0ZM5.14286 2.57895H10.0952C10.4107 2.57895 10.6667 2.82653 10.6667 3.13158C10.6667 3.43663 10.4107 3.68421 10.0952 3.68421H5.14286C4.82743 3.68421 4.57143 3.43663 4.57143 3.13158C4.57143 2.82653 4.82743 2.57895 5.14286 2.57895ZM5.14286 5.15789H10.0952C10.4107 5.15789 10.6667 5.40547 10.6667 5.71053C10.6667 6.01558 10.4107 6.26316 10.0952 6.26316H5.14286C4.82743 6.26316 4.57143 6.01558 4.57143 5.71053C4.57143 5.40547 4.82743 5.15789 5.14286 5.15789ZM5.14286 7.73684H9.33333C9.64876 7.73684 9.90476 7.98442 9.90476 8.28947C9.90476 8.59453 9.64876 8.84211 9.33333 8.84211H5.14286C4.82743 8.84211 4.57143 8.59453 4.57143 8.28947C4.57143 7.98442 4.82743 7.73684 5.14286 7.73684ZM0.952381 11.0526C0.427048 11.0526 0 11.4656 0 11.9737V12.3421C0 13.2562 0.769143 14 1.71429 14H10.2954C10.0535 13.6913 9.90476 13.3111 9.90476 12.8947V11.9737C9.90476 11.4656 9.47771 11.0526 8.95238 11.0526H0.952381Z" fill="white"/>
</svg>
