<svg width="21" height="21" viewBox="0 0 21 21" fill="none" xmlns="http://www.w3.org/2000/svg">
<path d="M9.55657 0.690499C9.85965 -0.230166 11.1403 -0.230166 11.4434 0.690499L13.3185 6.3866C13.4519 6.79161 13.821 7.06784 14.2409 7.07687L20.0244 7.20132C20.958 7.22141 21.3524 8.42017 20.6188 9.00751L15.9477 12.7469C15.6289 13.0021 15.4945 13.4286 15.6079 13.8246L17.2917 19.7013C17.5566 20.6257 16.5214 21.3681 15.7538 20.8041L11.0827 17.3719C10.7349 17.1164 10.2651 17.1164 9.9173 17.3719L5.24617 20.8041C4.47859 21.3681 3.44342 20.6257 3.7083 19.7013L5.39205 13.8246C5.50554 13.4286 5.3711 13.0021 5.05231 12.7469L0.381237 9.00751C-0.352449 8.42017 0.0420337 7.22141 0.975611 7.20132L6.75908 7.07687C7.17901 7.06784 7.54813 6.79161 7.68145 6.3866L9.55657 0.690499Z" fill="#FFDC64"/>
<path d="M12.4054 3.61136L11.4434 0.690499C11.1403 -0.230166 9.85965 -0.230166 9.55657 0.690499L7.68145 6.3866C7.54813 6.79161 7.17901 7.06784 6.75908 7.07687L0.975611 7.20132C0.0420337 7.22141 -0.352449 8.42017 0.381237 9.00751L5.05231 12.7469C5.3711 13.0021 5.50554 13.4286 5.39205 13.8246L3.7083 19.7013C3.44342 20.6257 4.47859 21.3681 5.24617 20.8041L6.24005 20.0729C6.66606 11.7395 9.67935 6.45468 12.4054 3.61136Z" fill="#FFC850"/>
</svg>
