<svg width="30" height="30" viewBox="0 0 30 30" fill="none" xmlns="http://www.w3.org/2000/svg">
<path id="Subtract" fill-rule="evenodd" clip-rule="evenodd" d="M5 0C2.23858 0 0 2.23858 0 5V25C0 27.7614 2.23858 30 5 30H25C27.7614 30 30 27.7614 30 25V5C30 2.23858 27.7614 0 25 0H5ZM19.7916 9.32449C18.5943 9.82226 12.9303 12.1772 8.51074 14.1235C7.35975 14.6305 7.07842 15.1581 8.26357 15.5655C8.29028 15.5747 8.32062 15.5851 8.35429 15.5968C8.70869 15.7192 9.43228 15.9691 10.1715 16.1817C11.2428 16.4898 11.8396 16.296 12.461 15.8736C12.8723 15.5938 16.1042 13.4459 18.4352 11.8985C18.6967 11.7246 18.9813 12.0808 18.7547 12.2978C17.0253 13.9493 14.8056 16.071 14.467 16.403C13.5527 17.2984 14.2172 17.7703 14.7587 18.1548C14.7808 18.1706 14.8027 18.1861 14.8243 18.2016C15.427 18.6332 18.2038 20.4715 18.754 20.8351C19.898 21.5906 20.6256 21.3836 20.9498 19.6373C21.3298 17.5897 21.7771 14.6786 22.0942 12.6142C22.2332 11.7095 22.3472 10.9674 22.4196 10.5319C22.7505 8.54363 22.0869 8.37157 19.9241 9.26938C19.889 9.28396 19.8447 9.30239 19.7916 9.32449Z" fill="#0088CC"/>
</svg>
