<svg width="30" height="30" viewBox="0 0 30 30" fill="none" xmlns="http://www.w3.org/2000/svg">
<path id="Subtract" fill-rule="evenodd" clip-rule="evenodd" d="M5 0C2.23858 0 0 2.23858 0 5V25C0 27.7614 2.23858 30 5 30H25C27.7614 30 30 27.7614 30 25V5C30 2.23858 27.7614 0 25 0H5ZM20.4254 8.68036C21.2348 9.191 21.7864 9.91289 22.0653 10.8248C22.475 12.1679 22.5937 13.653 22.4273 15.3642C22.3325 16.3374 22.0789 17.1961 21.6527 17.9887C21.2443 18.7481 20.5638 19.3143 19.6318 19.6712C18.6131 20.0606 17.5317 20.1431 16.5983 20.19C15.8278 20.2281 15.0525 20.255 14.2936 20.2687C14.2512 20.2695 14.2269 20.27 14.2054 20.2781C14.1765 20.289 14.1528 20.3137 14.0973 20.3718L11.8765 22.3519C11.7701 22.4469 11.6276 22.5 11.479 22.5C11.164 22.5 10.909 22.2662 10.909 21.9775V19.7712C10.791 19.7237 10.656 19.6787 10.5156 19.6331C10.2346 19.5418 9.94554 19.4474 9.71848 19.3168C8.82936 18.8043 8.23071 18.0237 7.88842 16.9318C7.53659 15.8117 7.42545 14.603 7.54818 13.2373C7.60137 12.6467 7.69273 12.0273 7.8291 11.3423C8.10934 9.93101 9.0271 8.88849 10.5565 8.24473C11.3372 7.91597 12.1922 7.71222 13.3281 7.58472C14.5391 7.44909 15.8107 7.47597 17.2146 7.66784C18.2292 7.8066 19.404 8.03535 20.4254 8.68036ZM17.2487 18.053C17.6415 17.903 17.9756 17.6718 18.1985 17.3374C18.504 16.8799 18.5081 16.5624 18.0076 16.2243C17.8783 16.1375 17.7499 16.0496 17.6217 15.9618C17.4227 15.8255 17.2237 15.6892 17.021 15.5574C16.5137 15.2267 15.9648 15.1692 15.5857 15.7486C15.5707 15.7712 15.5494 15.7911 15.5284 15.8107C15.5227 15.816 15.517 15.8214 15.5114 15.8267C15.3178 16.0149 15.0791 16.0624 14.8262 15.9668C13.8654 15.6042 13.1229 15.0199 12.6756 14.1492C12.4131 13.6373 12.4854 13.3805 12.9784 13.0404C13.0268 13.0073 13.0738 12.9723 13.1181 12.9348C13.3343 12.7542 13.3916 12.5392 13.2647 12.2961C12.975 11.7423 12.5897 11.2485 12.1029 10.8223C11.927 10.6679 11.717 10.591 11.4797 10.6391C10.8592 10.7642 10.2449 11.1773 10.2271 11.9117C10.2331 11.9449 10.2368 11.979 10.2405 12.013C10.2481 12.0833 10.2557 12.1535 10.2837 12.2167C10.3352 12.3321 10.3849 12.4484 10.4347 12.5648C10.5809 12.9064 10.7273 13.2484 10.9165 13.5692C12.1479 15.6561 14.01 17.1086 16.3855 18.0299C16.6685 18.1399 16.9617 18.163 17.2487 18.053ZM14.9673 11.3679C15.0928 11.3485 15.2209 11.3392 15.3484 11.3392C16.6064 11.3392 17.6299 12.2773 17.6299 13.4311C17.6299 13.5486 17.6197 13.6661 17.5985 13.7798C17.5631 13.9742 17.7062 14.158 17.9183 14.1911C17.9401 14.1948 17.9619 14.1961 17.9831 14.1961C18.1699 14.1961 18.3349 14.0723 18.367 13.898C18.3949 13.7448 18.4092 13.5873 18.4092 13.4305C18.4092 11.8835 17.036 10.6248 15.3484 10.6248C15.178 10.6248 15.0062 10.6379 14.8391 10.6629C14.6264 10.6954 14.4832 10.8798 14.5186 11.0742C14.5541 11.2692 14.7546 11.401 14.9673 11.3679ZM16.6562 14.0173C16.871 14.0173 17.0455 13.8573 17.0455 13.6605C17.0455 12.6761 16.1714 11.8748 15.0982 11.8754C14.8834 11.8754 14.7089 12.0354 14.7089 12.2323C14.7089 12.4292 14.8834 12.5892 15.0982 12.5892C15.7425 12.5892 16.2669 13.0698 16.2669 13.6605C16.2669 13.8573 16.4414 14.0173 16.6562 14.0173ZM19.2881 14.3742C19.4668 14.3742 19.627 14.2623 19.6679 14.0961C19.7375 13.8167 19.7729 13.528 19.7729 13.2379C19.7729 11.1079 17.8822 9.37475 15.5585 9.37475C15.2421 9.37475 14.9271 9.40663 14.6216 9.471C14.4116 9.51413 14.28 9.70538 14.3277 9.89789C14.3748 10.0904 14.5848 10.2116 14.7934 10.1673C15.0423 10.1154 15.2987 10.0891 15.5571 10.0891C17.4519 10.0891 18.9929 11.5023 18.9929 13.2386C18.9929 13.4748 18.9642 13.7105 18.9077 13.9386C18.8599 14.1305 18.9915 14.3217 19.2015 14.3655C19.2302 14.3711 19.2595 14.3742 19.2881 14.3742Z" fill="#59267C"/>
</svg>
