<svg width="24" height="24" viewBox="0 0 24 24" fill="none" xmlns="http://www.w3.org/2000/svg">
<path fill-rule="evenodd" clip-rule="evenodd" d="M5 0C2.23858 0 0 2.23858 0 5V19C0 21.7614 2.23858 24 5 24H19C21.7614 24 24 21.7614 24 19V5C24 2.23858 21.7614 0 19 0H5ZM13.5757 15.4044C13.62 15.9726 13.6846 16.8 12.0869 16.8C7.51737 16.8 4.8 9.44128 4.8 8.13184C4.8 7.5488 5.1576 7.20064 5.75639 7.20064H7.23297C7.91877 7.20064 8.16236 7.65184 8.32316 8.13888C8.89676 9.9392 9.70795 11.3478 10.1639 11.8694C10.1209 11.1283 10.1407 10.6051 10.156 10.2037C10.1821 9.51467 10.1947 9.18435 9.85194 8.72576C9.23155 7.8976 9.80454 7.2 10.4033 7.2H12.7241C13.6357 7.2 13.6145 8.0697 13.5919 9.00241C13.5908 9.04768 13.5897 9.09309 13.5887 9.13856C13.5779 9.64224 13.5641 10.32 13.5845 11.2077C14.2529 10.5811 15.1445 8.81088 15.4619 7.95008C15.6515 7.4656 16.0265 7.2 16.5209 7.2H17.9975C18.3509 7.2 18.6124 7.31712 18.7768 7.5488C18.886 7.70368 18.9916 7.9776 18.8764 8.4L18.8752 8.40512C18.6622 9.33056 17.2151 11.6435 16.8359 12.1779H16.8371C16.8221 12.2035 16.7933 12.2528 16.7753 12.2899C16.8032 12.3369 16.9294 12.4768 17.1106 12.6778C17.7054 13.3372 18.8928 14.6539 19.1452 15.4995C19.2712 15.9578 19.156 16.2522 19.0384 16.4198C18.9166 16.5933 18.673 16.8 18.2051 16.8H16.7285C16.1337 16.8 15.8404 16.4499 15.3237 15.8332C15.1435 15.6182 14.9362 15.3707 14.6795 15.0944C14.0363 14.4275 13.7249 14.2592 13.5929 14.2195C13.5834 14.3947 13.5857 14.682 13.588 14.9814L13.5881 14.9888C13.5506 15.0831 13.5622 15.2318 13.5757 15.4044Z" fill="white"/>
</svg>
